G04 #@! TF.GenerationSoftware,KiCad,Pcbnew,7.0.5*
G04 #@! TF.CreationDate,2024-08-22T14:11:36-04:00*
G04 #@! TF.ProjectId,xDev_eval,78446576-5f65-4766-916c-2e6b69636164,V0.5*
G04 #@! TF.SameCoordinates,Original*
G04 #@! TF.FileFunction,Paste,Top*
G04 #@! TF.FilePolarity,Positive*
%FSLAX46Y46*%
G04 Gerber Fmt 4.6, Leading zero omitted, Abs format (unit mm)*
G04 Created by KiCad (PCBNEW 7.0.5) date 2024-08-22 14:11:36*
%MOMM*%
%LPD*%
G01*
G04 APERTURE LIST*
G04 Aperture macros list*
%AMRoundRect*
0 Rectangle with rounded corners*
0 $1 Rounding radius*
0 $2 $3 $4 $5 $6 $7 $8 $9 X,Y pos of 4 corners*
0 Add a 4 corners polygon primitive as box body*
4,1,4,$2,$3,$4,$5,$6,$7,$8,$9,$2,$3,0*
0 Add four circle primitives for the rounded corners*
1,1,$1+$1,$2,$3*
1,1,$1+$1,$4,$5*
1,1,$1+$1,$6,$7*
1,1,$1+$1,$8,$9*
0 Add four rect primitives between the rounded corners*
20,1,$1+$1,$2,$3,$4,$5,0*
20,1,$1+$1,$4,$5,$6,$7,0*
20,1,$1+$1,$6,$7,$8,$9,0*
20,1,$1+$1,$8,$9,$2,$3,0*%
G04 Aperture macros list end*
%ADD10RoundRect,0.225000X0.250000X-0.225000X0.250000X0.225000X-0.250000X0.225000X-0.250000X-0.225000X0*%
%ADD11RoundRect,0.225000X-0.250000X0.225000X-0.250000X-0.225000X0.250000X-0.225000X0.250000X0.225000X0*%
%ADD12RoundRect,0.150000X0.521491X-0.309359X-0.309359X0.521491X-0.521491X0.309359X0.309359X-0.521491X0*%
%ADD13RoundRect,0.150000X-0.150000X0.587500X-0.150000X-0.587500X0.150000X-0.587500X0.150000X0.587500X0*%
%ADD14RoundRect,0.135000X0.185000X-0.135000X0.185000X0.135000X-0.185000X0.135000X-0.185000X-0.135000X0*%
%ADD15RoundRect,0.135000X-0.035355X0.226274X-0.226274X0.035355X0.035355X-0.226274X0.226274X-0.035355X0*%
%ADD16RoundRect,0.135000X-0.135000X-0.185000X0.135000X-0.185000X0.135000X0.185000X-0.135000X0.185000X0*%
%ADD17RoundRect,0.135000X0.135000X0.185000X-0.135000X0.185000X-0.135000X-0.185000X0.135000X-0.185000X0*%
%ADD18RoundRect,0.135000X-0.185000X0.135000X-0.185000X-0.135000X0.185000X-0.135000X0.185000X0.135000X0*%
%ADD19RoundRect,0.147500X0.172500X-0.147500X0.172500X0.147500X-0.172500X0.147500X-0.172500X-0.147500X0*%
%ADD20RoundRect,0.250000X1.000000X0.650000X-1.000000X0.650000X-1.000000X-0.650000X1.000000X-0.650000X0*%
%ADD21RoundRect,0.140000X0.140000X0.170000X-0.140000X0.170000X-0.140000X-0.170000X0.140000X-0.170000X0*%
%ADD22RoundRect,0.150000X-0.150000X-0.700000X0.150000X-0.700000X0.150000X0.700000X-0.150000X0.700000X0*%
%ADD23RoundRect,0.150000X-0.700000X-0.150000X0.700000X-0.150000X0.700000X0.150000X-0.700000X0.150000X0*%
%ADD24RoundRect,0.140000X-0.140000X-0.170000X0.140000X-0.170000X0.140000X0.170000X-0.140000X0.170000X0*%
%ADD25RoundRect,0.140000X-0.170000X0.140000X-0.170000X-0.140000X0.170000X-0.140000X0.170000X0.140000X0*%
G04 APERTURE END LIST*
D10*
X157988000Y-101740000D03*
X157988000Y-100190000D03*
D11*
X157353000Y-92088000D03*
X157353000Y-90538000D03*
D12*
X155540761Y-96483064D03*
X156884264Y-95139561D03*
X154886687Y-94485487D03*
D13*
X152715000Y-90248500D03*
X150815000Y-90248500D03*
X151765000Y-92123500D03*
D14*
X157937200Y-97944400D03*
X157937200Y-96924400D03*
D15*
X156118448Y-98846752D03*
X155397200Y-99568000D03*
D14*
X153974800Y-91057000D03*
X153974800Y-92077000D03*
D16*
X152715000Y-88773000D03*
X153735000Y-88773000D03*
D15*
X155351424Y-98089776D03*
X154630176Y-98811024D03*
D17*
X150815000Y-88773000D03*
X149795000Y-88773000D03*
D18*
X154800000Y-79600000D03*
X154800000Y-80620000D03*
D19*
X152273000Y-82485000D03*
X152273000Y-81515000D03*
D20*
X144526000Y-97892000D03*
X140526000Y-97892000D03*
D21*
X136878000Y-64262000D03*
X135918000Y-64262000D03*
D18*
X157353000Y-79600000D03*
X157353000Y-80620000D03*
D19*
X157353000Y-82485000D03*
X157353000Y-81515000D03*
X154800000Y-82485000D03*
X154800000Y-81515000D03*
D18*
X152273000Y-79600000D03*
X152273000Y-80620000D03*
D22*
X143410000Y-101830000D03*
X142140000Y-101830000D03*
X140870000Y-101830000D03*
X139600000Y-101830000D03*
X138330000Y-101830000D03*
X137060000Y-101830000D03*
D23*
X135410000Y-103480000D03*
X135410000Y-104750000D03*
X135410000Y-106020000D03*
X135410000Y-107290000D03*
X135410000Y-108560000D03*
X135410000Y-109830000D03*
X135410000Y-111100000D03*
X135410000Y-112370000D03*
X135410000Y-113640000D03*
X135410000Y-114910000D03*
X135410000Y-116180000D03*
D22*
X137060000Y-117830000D03*
X138330000Y-117830000D03*
X139600000Y-117830000D03*
X140870000Y-117830000D03*
X142140000Y-117830000D03*
X143410000Y-117830000D03*
X144680000Y-117830000D03*
X145950000Y-117830000D03*
X147220000Y-117830000D03*
X148490000Y-117830000D03*
X149760000Y-117830000D03*
D23*
X151410000Y-116180000D03*
X151410000Y-114910000D03*
X151410000Y-113640000D03*
X151410000Y-112370000D03*
X151410000Y-111100000D03*
X151410000Y-109830000D03*
X151410000Y-108560000D03*
X151410000Y-107290000D03*
X151410000Y-106020000D03*
X151410000Y-104750000D03*
X151410000Y-103480000D03*
D22*
X149760000Y-101830000D03*
X148490000Y-101830000D03*
X147220000Y-101830000D03*
X145950000Y-101830000D03*
X144680000Y-101830000D03*
D18*
X162433000Y-79600000D03*
X162433000Y-80620000D03*
X159893000Y-79600000D03*
X159893000Y-80620000D03*
D19*
X162433000Y-82485000D03*
X162433000Y-81515000D03*
D21*
X147220000Y-100178000D03*
X146260000Y-100178000D03*
D11*
X157429200Y-86969600D03*
X157429200Y-88519600D03*
D24*
X149662000Y-100178000D03*
X150622000Y-100178000D03*
D25*
X144780000Y-65712000D03*
X144780000Y-66672000D03*
D20*
X151701000Y-97892000D03*
X147701000Y-97892000D03*
D11*
X142240000Y-65646000D03*
X142240000Y-67196000D03*
D21*
X139600000Y-100178000D03*
X138640000Y-100178000D03*
D19*
X159893000Y-82485000D03*
X159893000Y-81515000D03*
M02*
