M48
; DRILL file {KiCad 7.0.5} date Thu Aug 22 14:11:50 2024
; FORMAT={-:-/ absolute / metric / decimal}
; #@! TF.CreationDate,2024-08-22T14:11:50-04:00
; #@! TF.GenerationSoftware,Kicad,Pcbnew,7.0.5
; #@! TF.FileFunction,Plated,1,2,PTH
FMAT,2
METRIC
; #@! TA.AperFunction,Plated,PTH,ViaDrill
T1C0.400
; #@! TA.AperFunction,Plated,PTH,ViaDrill
T2C0.600
; #@! TA.AperFunction,Plated,PTH,ViaDrill
T3C0.800
; #@! TA.AperFunction,Plated,PTH,ComponentDrill
T4C0.800
; #@! TA.AperFunction,Plated,PTH,ComponentDrill
T5C1.000
; #@! TA.AperFunction,Plated,PTH,ComponentDrill
T6C1.075
%
G90
G05
T1
X122.555Y-85.979
X122.555Y-88.265
X122.555Y-90.551
X122.555Y-92.837
X124.333Y-94.869
X125.476Y-93.726
X127.254Y-118.364
X127.254Y-120.904
X127.254Y-123.444
X127.254Y-125.984
X127.254Y-128.524
X127.254Y-131.064
X127.381Y-99.441
X127.381Y-100.711
X127.381Y-102.489
X127.381Y-104.267
X127.381Y-105.283
X127.381Y-106.807
X127.381Y-107.823
X127.381Y-109.347
X127.381Y-110.363
X127.381Y-111.887
X127.381Y-112.903
X127.381Y-114.427
X127.381Y-115.443
X128.524Y-117.094
X128.524Y-119.634
X128.524Y-122.174
X128.524Y-124.714
X128.524Y-127.254
X128.524Y-129.794
X128.524Y-132.334
X128.524Y-135.509
X128.524Y-137.287
X128.778Y-99.441
X128.778Y-100.711
X128.778Y-102.489
X128.778Y-104.267
X128.778Y-105.283
X128.778Y-106.807
X128.778Y-107.823
X128.778Y-109.347
X128.778Y-110.363
X128.778Y-111.887
X128.778Y-112.903
X128.778Y-114.427
X129.794Y-118.364
X129.794Y-120.904
X129.794Y-123.444
X129.794Y-125.984
X129.794Y-128.524
X129.794Y-131.064
X131.064Y-117.094
X131.064Y-119.634
X131.064Y-122.174
X131.064Y-124.714
X131.064Y-127.254
X131.064Y-129.794
X131.064Y-132.334
X132.334Y-128.524
X132.334Y-131.064
X133.096Y-117.475
X133.096Y-120.142
X133.096Y-122.682
X133.223Y-95.25
X133.477Y-124.841
X133.604Y-127.254
X133.604Y-129.794
X133.604Y-132.334
X133.604Y-135.001
X134.62Y-118.745
X134.62Y-121.285
X134.62Y-123.698
X134.747Y-126.111
X135.128Y-129.794
X135.128Y-132.334
X135.128Y-135.001
X135.763Y-125.095
X136.017Y-127.381
X136.144Y-129.794
X136.271Y-119.507
X136.271Y-122.047
X136.398Y-95.377
X136.525Y-132.334
X136.779Y-124.079
X137.033Y-126.365
X137.287Y-128.651
X137.414Y-108.204
X137.414Y-110.744
X137.414Y-113.284
X137.414Y-115.824
X137.414Y-131.064
X137.795Y-123.063
X138.049Y-125.349
X138.303Y-127.635
X138.43Y-88.138
X138.557Y-129.921
X138.684Y-106.934
X138.684Y-109.474
X138.684Y-112.014
X138.684Y-114.554
X139.065Y-124.333
X139.319Y-126.619
X139.573Y-128.905
X139.827Y-131.191
X139.954Y-105.664
X139.954Y-108.204
X139.954Y-110.744
X139.954Y-113.284
X139.954Y-115.824
X140.081Y-123.317
X140.335Y-125.603
X140.589Y-127.889
X140.843Y-130.175
X141.097Y-122.301
X141.097Y-132.461
X141.224Y-88.138
X141.224Y-106.934
X141.224Y-109.474
X141.224Y-112.014
X141.224Y-114.554
X141.224Y-134.874
X141.351Y-93.345
X141.351Y-94.361
X141.351Y-95.377
X141.351Y-96.266
X141.351Y-124.587
X141.605Y-103.251
X141.605Y-126.873
X141.859Y-129.159
X142.113Y-121.285
X142.113Y-131.445
X142.367Y-123.571
X142.367Y-133.731
X142.494Y-108.204
X142.494Y-110.744
X142.494Y-113.284
X142.494Y-115.824
X142.494Y-136.144
X142.621Y-125.857
X142.875Y-128.143
X143.129Y-120.269
X143.129Y-130.429
X143.383Y-122.555
X143.383Y-132.715
X143.637Y-124.841
X143.637Y-135.001
X143.764Y-109.474
X143.764Y-112.014
X143.764Y-114.554
X143.891Y-127.127
X144.145Y-119.253
X144.145Y-129.413
X144.272Y-100.203
X144.399Y-121.539
X144.399Y-131.699
X144.653Y-123.825
X144.653Y-133.985
X144.907Y-126.111
X144.907Y-136.271
X145.034Y-110.744
X145.034Y-113.284
X145.034Y-115.824
X145.161Y-128.397
X145.288Y-100.203
X145.415Y-120.523
X145.415Y-130.683
X145.669Y-122.809
X145.669Y-132.969
X145.923Y-125.095
X146.177Y-127.381
X146.304Y-112.014
X146.304Y-114.554
X146.431Y-129.667
X146.558Y-136.779
X146.685Y-121.793
X146.685Y-131.953
X146.939Y-124.079
X146.939Y-135.255
X147.193Y-126.365
X147.32Y-133.731
X147.447Y-128.651
X147.574Y-113.284
X147.955Y-123.063
X148.209Y-125.349
X148.463Y-127.635
X148.844Y-129.159
X148.844Y-130.683
X148.844Y-132.207
X148.844Y-133.731
X148.844Y-135.255
X148.844Y-136.779
X149.225Y-124.333
X149.492Y-120.002
X149.76Y-104.75
X149.76Y-106.02
X149.76Y-107.29
X149.76Y-108.56
X149.76Y-109.83
X149.76Y-111.1
X149.76Y-112.37
X149.76Y-113.64
X149.86Y-121.539
X150.241Y-123.063
X150.368Y-124.587
X150.368Y-126.111
X150.368Y-127.635
X150.749Y-117.094
X151.384Y-129.159
X151.384Y-130.683
X151.384Y-132.207
X151.384Y-133.731
X151.384Y-135.255
X151.384Y-136.779
X152.019Y-120.052
X152.4Y-121.539
X152.654Y-116.967
X152.781Y-123.063
X152.908Y-104.14
X152.908Y-105.41
X152.908Y-106.68
X152.908Y-107.95
X152.908Y-109.22
X152.908Y-110.49
X152.908Y-111.76
X152.908Y-113.03
X152.908Y-124.587
X152.908Y-126.111
X152.908Y-127.635
X153.67Y-112.395
X153.67Y-114.935
X153.924Y-129.159
X153.924Y-130.683
X153.924Y-132.207
X153.924Y-133.731
X153.924Y-135.255
X153.924Y-136.779
X154.178Y-116.967
X154.432Y-120.015
X154.813Y-121.539
X154.94Y-111.125
X154.94Y-113.665
X154.94Y-116.205
X155.194Y-118.491
X155.321Y-123.063
X155.448Y-124.587
X155.448Y-126.111
X155.448Y-127.635
X156.21Y-109.855
X156.21Y-112.395
X156.21Y-114.935
X156.21Y-117.475
X156.21Y-120.015
X156.464Y-129.159
X156.464Y-130.683
X156.464Y-132.207
X156.464Y-133.731
X156.464Y-135.255
X156.464Y-136.779
X157.48Y-108.585
X157.48Y-111.125
X157.48Y-113.665
X157.48Y-116.205
X157.48Y-118.745
X157.48Y-121.285
X157.48Y-123.063
X157.861Y-124.587
X157.861Y-126.111
X157.861Y-127.635
X158.75Y-107.315
X158.75Y-109.855
X158.75Y-112.395
X158.75Y-114.935
X158.75Y-117.475
X158.75Y-120.015
X158.75Y-122.555
X159.004Y-129.159
X159.004Y-130.683
X159.004Y-132.207
X159.004Y-133.731
X159.004Y-135.255
X159.004Y-136.779
X160.02Y-106.045
X160.02Y-108.585
X160.02Y-111.125
X160.02Y-113.665
X160.02Y-116.205
X160.02Y-118.745
X160.02Y-121.285
X160.02Y-123.825
X160.274Y-126.111
X160.274Y-127.635
X161.29Y-104.775
X161.29Y-107.315
X161.29Y-109.855
X161.29Y-112.395
X161.29Y-114.935
X161.29Y-117.475
X161.29Y-120.015
X161.29Y-122.555
X161.29Y-125.095
X161.544Y-129.159
X161.544Y-130.683
X161.544Y-132.207
X161.544Y-133.731
X161.544Y-135.255
X161.544Y-136.779
X162.56Y-106.045
X162.56Y-108.585
X162.56Y-111.125
X162.56Y-113.665
X162.56Y-116.205
X162.56Y-118.745
X162.56Y-121.285
X162.56Y-123.825
X162.56Y-126.365
X162.687Y-103.505
X163.83Y-102.235
X163.83Y-104.775
X163.83Y-107.315
X163.83Y-109.855
X163.83Y-112.395
X163.83Y-114.935
X163.83Y-117.475
X163.83Y-120.015
X163.83Y-122.555
X163.83Y-125.095
X163.83Y-127.635
X163.83Y-130.175
X164.084Y-132.207
X164.084Y-133.731
X164.084Y-135.255
X164.084Y-136.779
X165.1Y-100.965
X165.1Y-103.505
X165.1Y-106.045
X165.1Y-108.585
X165.1Y-111.125
X165.1Y-113.665
X165.1Y-116.205
X165.1Y-118.745
X165.1Y-121.285
X165.1Y-123.825
X165.1Y-126.365
X165.1Y-128.905
X165.1Y-131.445
X165.354Y-133.731
X166.37Y-99.695
X166.37Y-102.235
X166.37Y-104.775
X166.37Y-107.315
X166.37Y-109.855
X166.37Y-112.395
X166.37Y-114.935
X166.37Y-117.475
X166.37Y-120.015
X166.37Y-122.555
X166.37Y-125.095
X166.37Y-127.635
X166.37Y-130.175
X166.37Y-132.715
X166.497Y-135.255
X166.624Y-136.779
X167.64Y-98.425
X167.64Y-100.965
X167.64Y-103.505
X167.64Y-106.045
X167.64Y-108.585
X167.64Y-111.125
X167.64Y-113.665
X167.64Y-116.205
X167.64Y-118.745
X167.64Y-121.285
X167.64Y-123.825
X167.64Y-126.365
X167.64Y-128.905
X167.64Y-131.445
X167.64Y-133.985
X167.64Y-136.525
X168.91Y-99.695
X168.91Y-102.235
X168.91Y-104.775
X168.91Y-107.315
X168.91Y-109.855
X168.91Y-112.395
X168.91Y-114.935
X168.91Y-117.475
X168.91Y-120.015
X168.91Y-122.555
X168.91Y-125.095
X168.91Y-127.635
X168.91Y-130.175
X168.91Y-132.715
X169.022Y-135.088
T2
X123.19Y-61.747
X123.19Y-64.16
X123.19Y-66.7
X123.19Y-69.24
X123.19Y-71.78
X123.19Y-74.32
X123.19Y-76.86
X124.333Y-88.265
X124.333Y-90.551
X124.714Y-80.518
X124.714Y-138.684
X124.714Y-141.224
X125.73Y-61.747
X125.73Y-64.16
X125.73Y-66.7
X125.73Y-69.24
X125.73Y-71.78
X125.73Y-74.32
X125.73Y-76.86
X126.619Y-80.518
X126.746Y-83.185
X126.746Y-85.725
X127.254Y-93.726
X127.254Y-138.684
X127.254Y-141.224
X128.27Y-58.166
X128.27Y-60.706
X128.27Y-64.16
X128.27Y-66.7
X128.27Y-69.24
X128.27Y-71.78
X128.27Y-74.32
X128.905Y-93.726
X128.905Y-95.504
X129.159Y-80.518
X129.159Y-83.058
X129.159Y-85.598
X129.159Y-88.265
X129.159Y-90.424
X130.683Y-99.187
X130.683Y-101.092
X130.683Y-103.632
X130.683Y-106.172
X130.81Y-58.166
X130.81Y-60.706
X130.81Y-64.16
X130.81Y-66.7
X130.81Y-69.24
X130.81Y-71.78
X130.81Y-74.32
X130.814Y-76.269
X131.064Y-93.726
X131.191Y-95.631
X131.699Y-80.518
X131.699Y-83.058
X131.699Y-85.598
X131.953Y-88.265
X131.953Y-90.424
X131.953Y-102.362
X131.953Y-104.902
X132.334Y-136.144
X132.334Y-138.684
X132.334Y-141.224
X132.461Y-92.964
X132.461Y-94.234
X133.223Y-101.092
X133.223Y-103.632
X133.35Y-58.166
X133.35Y-60.706
X133.35Y-64.16
X133.35Y-66.7
X133.35Y-69.24
X133.35Y-71.78
X133.35Y-74.32
X133.35Y-76.269
X133.858Y-92.964
X133.858Y-94.234
X134.239Y-80.518
X134.239Y-83.058
X134.239Y-85.598
X134.239Y-88.265
X134.239Y-90.805
X134.493Y-99.822
X134.493Y-102.362
X134.874Y-136.144
X134.874Y-138.684
X134.874Y-141.224
X135.763Y-101.092
X135.89Y-58.166
X135.89Y-60.706
X135.89Y-65.405
X135.89Y-66.7
X135.89Y-69.24
X135.89Y-71.78
X135.89Y-74.32
X135.89Y-76.269
X136.779Y-80.518
X136.779Y-83.058
X136.779Y-85.598
X136.779Y-90.805
X136.779Y-93.218
X136.779Y-99.06
X136.812Y-88.2
X137.033Y-104.902
X137.033Y-106.045
X137.414Y-136.144
X137.414Y-138.684
X137.414Y-141.224
X138.176Y-104.902
X138.43Y-58.166
X138.43Y-60.706
X138.43Y-66.7
X138.43Y-69.24
X138.43Y-71.78
X138.43Y-74.32
X138.43Y-76.269
X138.476Y-64.114
X138.557Y-96.266
X138.557Y-99.06
X138.684Y-80.518
X138.684Y-83.058
X138.684Y-85.598
X138.684Y-91.948
X139.954Y-136.144
X139.954Y-138.684
X139.954Y-141.224
X140.843Y-78.486
X140.97Y-58.166
X140.97Y-60.706
X140.97Y-64.16
X140.97Y-66.7
X140.97Y-69.24
X140.97Y-71.78
X140.97Y-74.32
X141.097Y-99.949
X141.224Y-80.518
X141.224Y-83.058
X141.224Y-85.598
X141.224Y-92.075
X142.138Y-75.717
X142.494Y-138.684
X142.494Y-141.224
X143.129Y-95.377
X143.383Y-78.486
X143.383Y-80.518
X143.383Y-85.598
X143.383Y-88.392
X143.383Y-90.805
X143.383Y-93.345
X143.51Y-58.166
X143.51Y-60.706
X143.51Y-64.16
X143.51Y-66.7
X143.51Y-69.24
X143.51Y-71.78
X143.51Y-74.32
X144.018Y-103.759
X144.907Y-96.139
X145.034Y-138.684
X145.034Y-141.224
X145.48Y-88.646
X145.542Y-80.518
X145.542Y-85.344
X145.542Y-90.678
X145.542Y-93.345
X146.05Y-58.166
X146.05Y-60.706
X146.05Y-64.16
X146.05Y-66.7
X146.05Y-69.24
X146.05Y-71.78
X146.05Y-74.32
X146.05Y-76.269
X146.05Y-94.742
X146.558Y-93.345
X146.558Y-96.139
X147.447Y-116.078
X147.574Y-138.684
X147.574Y-141.224
X148.336Y-99.568
X148.59Y-58.166
X148.59Y-60.706
X148.59Y-64.16
X148.59Y-66.7
X148.59Y-69.24
X148.59Y-71.78
X148.59Y-74.32
X148.59Y-76.269
X148.59Y-114.935
X148.59Y-116.078
X148.971Y-88.265
X149.225Y-83.312
X149.225Y-85.598
X149.225Y-89.535
X149.225Y-90.805
X149.225Y-93.345
X149.225Y-96.139
X149.352Y-80.518
X149.352Y-92.075
X149.733Y-114.935
X149.733Y-116.078
X150.114Y-138.684
X150.114Y-141.224
X150.495Y-82.042
X150.622Y-93.345
X150.622Y-94.742
X151.13Y-58.166
X151.13Y-60.706
X151.13Y-64.16
X151.13Y-66.7
X151.13Y-69.24
X151.13Y-71.78
X151.13Y-74.32
X151.13Y-76.269
X151.638Y-99.695
X151.638Y-101.854
X151.765Y-85.598
X152.019Y-96.139
X152.654Y-138.684
X152.654Y-141.224
X152.781Y-93.345
X153.58Y-82.6
X153.67Y-58.166
X153.67Y-60.706
X153.67Y-64.16
X153.67Y-66.7
X153.67Y-69.24
X153.67Y-71.78
X153.67Y-74.32
X153.67Y-76.269
X153.67Y-81.026
X153.67Y-101.854
X153.975Y-93.574
X154.178Y-108.458
X154.178Y-110.109
X154.305Y-85.598
X154.686Y-88.773
X155.194Y-138.684
X155.194Y-141.224
X155.499Y-93.878
X155.829Y-108.458
X155.905Y-90.876
X155.956Y-88.24
X156.12Y-82.6
X156.21Y-58.166
X156.21Y-60.706
X156.21Y-64.16
X156.21Y-66.7
X156.21Y-69.24
X156.21Y-71.78
X156.21Y-74.32
X156.21Y-76.269
X156.21Y-81.026
X156.21Y-85.598
X156.87Y-89.51
X156.972Y-106.172
X157.734Y-138.684
X157.734Y-141.224
X157.988Y-89.51
X157.988Y-99.06
X158.115Y-106.172
X158.66Y-82.6
X158.75Y-58.166
X158.75Y-60.706
X158.75Y-64.16
X158.75Y-66.7
X158.75Y-69.24
X158.75Y-71.78
X158.75Y-74.32
X158.75Y-76.269
X158.75Y-81.026
X158.75Y-85.344
X160.274Y-138.684
X160.274Y-141.224
X161.2Y-82.6
X161.29Y-58.166
X161.29Y-60.706
X161.29Y-64.16
X161.29Y-66.7
X161.29Y-69.24
X161.29Y-71.78
X161.29Y-74.32
X161.29Y-76.269
X161.29Y-81.026
X161.29Y-85.344
X162.052Y-88.265
X162.052Y-90.805
X162.052Y-92.964
X162.052Y-95.885
X162.052Y-98.425
X162.052Y-100.965
X162.814Y-138.684
X162.814Y-141.224
X163.703Y-80.645
X163.83Y-58.166
X163.83Y-60.706
X163.83Y-64.16
X163.83Y-69.24
X163.83Y-71.78
X163.83Y-74.32
X163.83Y-76.269
X163.83Y-83.566
X163.83Y-85.598
X164.592Y-88.265
X164.592Y-90.805
X164.592Y-93.345
X164.592Y-95.885
X164.592Y-98.425
X165.354Y-138.684
X165.354Y-141.097
X165.862Y-80.645
X165.862Y-83.566
X166.37Y-58.166
X166.37Y-60.706
X166.37Y-64.16
X166.37Y-66.7
X166.37Y-71.78
X166.37Y-74.32
X166.37Y-78.257
X166.37Y-79.502
X166.37Y-85.598
X167.132Y-88.265
X167.132Y-90.805
X167.132Y-93.345
X167.132Y-95.885
X167.64Y-76.987
X168.402Y-79.502
X168.91Y-60.706
X168.91Y-64.135
X168.91Y-66.7
X168.91Y-69.24
X168.91Y-74.32
X168.91Y-83.566
X169.672Y-88.265
X169.672Y-90.805
X169.672Y-93.345
X170.18Y-96.012
X170.434Y-138.684
X170.434Y-141.224
X171.196Y-64.135
X171.196Y-66.954
X171.196Y-69.24
X171.196Y-71.78
X171.196Y-76.86
X171.577Y-79.629
X172.339Y-88.265
X172.466Y-90.551
X172.974Y-138.684
T3
X135.509Y-86.97
X145.679Y-86.97
T4
X130.298Y-97.028
X132.298Y-97.028
X132.359Y-133.858
X134.298Y-97.028
X134.359Y-133.858
X136.359Y-133.858
T5
X125.63Y-81.89
X125.63Y-84.43
X125.63Y-86.97
X125.63Y-89.51
X125.63Y-92.05
X125.63Y-98.4
X125.63Y-100.94
X125.63Y-103.48
X125.63Y-106.02
X125.63Y-108.56
X125.63Y-111.1
X125.63Y-113.64
X125.63Y-116.18
X125.63Y-118.72
X125.63Y-121.26
X125.63Y-123.8
X125.63Y-126.34
X125.63Y-128.88
X125.63Y-131.42
X125.63Y-133.96
X125.63Y-136.5
X129.44Y-62.23
X129.44Y-77.47
X130.556Y-89.413
X130.556Y-91.953
X131.98Y-62.23
X131.98Y-77.47
X134.52Y-62.23
X134.52Y-77.47
X137.06Y-62.23
X137.06Y-77.47
X139.6Y-62.23
X139.6Y-77.47
X142.14Y-62.23
X142.14Y-77.47
X144.648Y-83.058
X144.68Y-62.23
X144.68Y-77.47
X147.188Y-83.058
X147.22Y-62.23
X147.22Y-77.47
X149.76Y-62.23
X149.76Y-77.47
X152.3Y-62.23
X152.3Y-77.47
X154.84Y-62.23
X154.84Y-77.47
X154.94Y-104.262
X154.94Y-106.802
X157.38Y-62.23
X157.38Y-77.47
X159.92Y-62.23
X159.92Y-77.47
X162.46Y-62.23
X162.46Y-77.47
X164.851Y-81.915
X165.0Y-62.23
X165.0Y-77.47
X167.391Y-81.915
X171.196Y-81.89
X171.196Y-84.43
X171.196Y-86.97
X171.196Y-89.51
X171.196Y-92.05
X171.196Y-98.425
X171.196Y-100.965
X171.196Y-103.505
X171.196Y-106.045
X171.196Y-108.585
X171.196Y-111.125
X171.196Y-113.665
X171.196Y-116.205
X171.196Y-118.745
X171.196Y-121.285
X171.196Y-123.825
X171.196Y-126.365
X171.196Y-128.905
X171.196Y-131.445
X171.196Y-133.985
X171.196Y-136.525
T6
X160.02Y-86.995
X160.02Y-89.535
X160.02Y-97.155
X160.02Y-99.695
X160.02Y-102.235
T0
M30
