G04 #@! TF.GenerationSoftware,KiCad,Pcbnew,7.0.5*
G04 #@! TF.CreationDate,2024-08-22T14:11:36-04:00*
G04 #@! TF.ProjectId,xDev_eval,78446576-5f65-4766-916c-2e6b69636164,V0.5*
G04 #@! TF.SameCoordinates,Original*
G04 #@! TF.FileFunction,Legend,Top*
G04 #@! TF.FilePolarity,Positive*
%FSLAX46Y46*%
G04 Gerber Fmt 4.6, Leading zero omitted, Abs format (unit mm)*
G04 Created by KiCad (PCBNEW 7.0.5) date 2024-08-22 14:11:36*
%MOMM*%
%LPD*%
G01*
G04 APERTURE LIST*
G04 Aperture macros list*
%AMRoundRect*
0 Rectangle with rounded corners*
0 $1 Rounding radius*
0 $2 $3 $4 $5 $6 $7 $8 $9 X,Y pos of 4 corners*
0 Add a 4 corners polygon primitive as box body*
4,1,4,$2,$3,$4,$5,$6,$7,$8,$9,$2,$3,0*
0 Add four circle primitives for the rounded corners*
1,1,$1+$1,$2,$3*
1,1,$1+$1,$4,$5*
1,1,$1+$1,$6,$7*
1,1,$1+$1,$8,$9*
0 Add four rect primitives between the rounded corners*
20,1,$1+$1,$2,$3,$4,$5,0*
20,1,$1+$1,$4,$5,$6,$7,0*
20,1,$1+$1,$6,$7,$8,$9,0*
20,1,$1+$1,$8,$9,$2,$3,0*%
G04 Aperture macros list end*
%ADD10C,0.150000*%
%ADD11C,0.100000*%
%ADD12C,0.280000*%
%ADD13C,0.120000*%
%ADD14C,0.200000*%
%ADD15C,0.127000*%
%ADD16RoundRect,0.225000X0.250000X-0.225000X0.250000X0.225000X-0.250000X0.225000X-0.250000X-0.225000X0*%
%ADD17RoundRect,0.225000X-0.250000X0.225000X-0.250000X-0.225000X0.250000X-0.225000X0.250000X0.225000X0*%
%ADD18RoundRect,0.150000X0.521491X-0.309359X-0.309359X0.521491X-0.521491X0.309359X0.309359X-0.521491X0*%
%ADD19R,1.800000X1.800000*%
%ADD20O,2.000000X2.000000*%
%ADD21RoundRect,0.150000X-0.150000X0.587500X-0.150000X-0.587500X0.150000X-0.587500X0.150000X0.587500X0*%
%ADD22RoundRect,0.135000X0.185000X-0.135000X0.185000X0.135000X-0.185000X0.135000X-0.185000X-0.135000X0*%
%ADD23RoundRect,0.135000X-0.035355X0.226274X-0.226274X0.035355X0.035355X-0.226274X0.226274X-0.035355X0*%
%ADD24RoundRect,0.135000X-0.135000X-0.185000X0.135000X-0.185000X0.135000X0.185000X-0.135000X0.185000X0*%
%ADD25RoundRect,0.135000X0.135000X0.185000X-0.135000X0.185000X-0.135000X-0.185000X0.135000X-0.185000X0*%
%ADD26RoundRect,0.135000X-0.185000X0.135000X-0.185000X-0.135000X0.185000X-0.135000X0.185000X0.135000X0*%
%ADD27RoundRect,0.147500X0.172500X-0.147500X0.172500X0.147500X-0.172500X0.147500X-0.172500X-0.147500X0*%
%ADD28C,1.308000*%
%ADD29R,1.308000X1.308000*%
%ADD30C,1.500000*%
%ADD31R,1.600000X1.600000*%
%ADD32O,1.600000X1.600000*%
%ADD33C,2.200000*%
%ADD34RoundRect,0.250000X1.000000X0.650000X-1.000000X0.650000X-1.000000X-0.650000X1.000000X-0.650000X0*%
%ADD35RoundRect,0.140000X0.140000X0.170000X-0.140000X0.170000X-0.140000X-0.170000X0.140000X-0.170000X0*%
%ADD36R,1.700000X1.700000*%
%ADD37O,1.700000X1.700000*%
%ADD38RoundRect,0.150000X-0.150000X-0.700000X0.150000X-0.700000X0.150000X0.700000X-0.150000X0.700000X0*%
%ADD39RoundRect,0.150000X-0.700000X-0.150000X0.700000X-0.150000X0.700000X0.150000X-0.700000X0.150000X0*%
%ADD40RoundRect,0.140000X-0.140000X-0.170000X0.140000X-0.170000X0.140000X0.170000X-0.140000X0.170000X0*%
%ADD41RoundRect,0.140000X-0.170000X0.140000X-0.170000X-0.140000X0.170000X-0.140000X0.170000X0.140000X0*%
G04 APERTURE END LIST*
D10*
X158394400Y-96215200D02*
X158902400Y-95707200D01*
X168656000Y-97536000D02*
X168656000Y-104394000D01*
X170053000Y-95377000D02*
X171196000Y-94234000D01*
X172593000Y-80518000D02*
X172593000Y-79121000D01*
X165989000Y-107061000D02*
X168656000Y-104394000D01*
X172593000Y-79121000D02*
X171958000Y-79121000D01*
X168656000Y-104394000D02*
X169481500Y-104394000D01*
X169926000Y-90297000D02*
X170307000Y-90043000D01*
X171196000Y-94234000D02*
X171196000Y-93599000D01*
X165227000Y-110744000D02*
X165989000Y-110744000D01*
X169926000Y-86995000D02*
X170053000Y-86995000D01*
X170053000Y-82804000D02*
X170688000Y-83439000D01*
X172085000Y-81026000D02*
X172593000Y-80518000D01*
X169481500Y-97536000D02*
X168656000Y-97536000D01*
X165989000Y-105156000D02*
X165989000Y-110744000D01*
X165989000Y-105156000D02*
X165227000Y-105156000D01*
X131564476Y-137141009D02*
X131707333Y-137188628D01*
X131707333Y-137188628D02*
X131754952Y-137236247D01*
X131754952Y-137236247D02*
X131802571Y-137331485D01*
X131802571Y-137331485D02*
X131802571Y-137474342D01*
X131802571Y-137474342D02*
X131754952Y-137569580D01*
X131754952Y-137569580D02*
X131707333Y-137617200D01*
X131707333Y-137617200D02*
X131612095Y-137664819D01*
X131612095Y-137664819D02*
X131231143Y-137664819D01*
X131231143Y-137664819D02*
X131231143Y-136664819D01*
X131231143Y-136664819D02*
X131564476Y-136664819D01*
X131564476Y-136664819D02*
X131659714Y-136712438D01*
X131659714Y-136712438D02*
X131707333Y-136760057D01*
X131707333Y-136760057D02*
X131754952Y-136855295D01*
X131754952Y-136855295D02*
X131754952Y-136950533D01*
X131754952Y-136950533D02*
X131707333Y-137045771D01*
X131707333Y-137045771D02*
X131659714Y-137093390D01*
X131659714Y-137093390D02*
X131564476Y-137141009D01*
X131564476Y-137141009D02*
X131231143Y-137141009D01*
X132421619Y-136664819D02*
X132516857Y-136664819D01*
X132516857Y-136664819D02*
X132612095Y-136712438D01*
X132612095Y-136712438D02*
X132659714Y-136760057D01*
X132659714Y-136760057D02*
X132707333Y-136855295D01*
X132707333Y-136855295D02*
X132754952Y-137045771D01*
X132754952Y-137045771D02*
X132754952Y-137283866D01*
X132754952Y-137283866D02*
X132707333Y-137474342D01*
X132707333Y-137474342D02*
X132659714Y-137569580D01*
X132659714Y-137569580D02*
X132612095Y-137617200D01*
X132612095Y-137617200D02*
X132516857Y-137664819D01*
X132516857Y-137664819D02*
X132421619Y-137664819D01*
X132421619Y-137664819D02*
X132326381Y-137617200D01*
X132326381Y-137617200D02*
X132278762Y-137569580D01*
X132278762Y-137569580D02*
X132231143Y-137474342D01*
X132231143Y-137474342D02*
X132183524Y-137283866D01*
X132183524Y-137283866D02*
X132183524Y-137045771D01*
X132183524Y-137045771D02*
X132231143Y-136855295D01*
X132231143Y-136855295D02*
X132278762Y-136760057D01*
X132278762Y-136760057D02*
X132326381Y-136712438D01*
X132326381Y-136712438D02*
X132421619Y-136664819D01*
X133945429Y-137283866D02*
X134707334Y-137283866D01*
X136469238Y-136712438D02*
X136374000Y-136664819D01*
X136374000Y-136664819D02*
X136231143Y-136664819D01*
X136231143Y-136664819D02*
X136088286Y-136712438D01*
X136088286Y-136712438D02*
X135993048Y-136807676D01*
X135993048Y-136807676D02*
X135945429Y-136902914D01*
X135945429Y-136902914D02*
X135897810Y-137093390D01*
X135897810Y-137093390D02*
X135897810Y-137236247D01*
X135897810Y-137236247D02*
X135945429Y-137426723D01*
X135945429Y-137426723D02*
X135993048Y-137521961D01*
X135993048Y-137521961D02*
X136088286Y-137617200D01*
X136088286Y-137617200D02*
X136231143Y-137664819D01*
X136231143Y-137664819D02*
X136326381Y-137664819D01*
X136326381Y-137664819D02*
X136469238Y-137617200D01*
X136469238Y-137617200D02*
X136516857Y-137569580D01*
X136516857Y-137569580D02*
X136516857Y-137236247D01*
X136516857Y-137236247D02*
X136326381Y-137236247D01*
X136945429Y-137664819D02*
X136945429Y-136664819D01*
X136945429Y-136664819D02*
X137516857Y-137664819D01*
X137516857Y-137664819D02*
X137516857Y-136664819D01*
X137993048Y-137664819D02*
X137993048Y-136664819D01*
X137993048Y-136664819D02*
X138231143Y-136664819D01*
X138231143Y-136664819D02*
X138374000Y-136712438D01*
X138374000Y-136712438D02*
X138469238Y-136807676D01*
X138469238Y-136807676D02*
X138516857Y-136902914D01*
X138516857Y-136902914D02*
X138564476Y-137093390D01*
X138564476Y-137093390D02*
X138564476Y-137236247D01*
X138564476Y-137236247D02*
X138516857Y-137426723D01*
X138516857Y-137426723D02*
X138469238Y-137521961D01*
X138469238Y-137521961D02*
X138374000Y-137617200D01*
X138374000Y-137617200D02*
X138231143Y-137664819D01*
X138231143Y-137664819D02*
X137993048Y-137664819D01*
D11*
X165822524Y-80088800D02*
X165965381Y-80136419D01*
X165965381Y-80136419D02*
X166203476Y-80136419D01*
X166203476Y-80136419D02*
X166298714Y-80088800D01*
X166298714Y-80088800D02*
X166346333Y-80041180D01*
X166346333Y-80041180D02*
X166393952Y-79945942D01*
X166393952Y-79945942D02*
X166393952Y-79850704D01*
X166393952Y-79850704D02*
X166346333Y-79755466D01*
X166346333Y-79755466D02*
X166298714Y-79707847D01*
X166298714Y-79707847D02*
X166203476Y-79660228D01*
X166203476Y-79660228D02*
X166013000Y-79612609D01*
X166013000Y-79612609D02*
X165917762Y-79564990D01*
X165917762Y-79564990D02*
X165870143Y-79517371D01*
X165870143Y-79517371D02*
X165822524Y-79422133D01*
X165822524Y-79422133D02*
X165822524Y-79326895D01*
X165822524Y-79326895D02*
X165870143Y-79231657D01*
X165870143Y-79231657D02*
X165917762Y-79184038D01*
X165917762Y-79184038D02*
X166013000Y-79136419D01*
X166013000Y-79136419D02*
X166251095Y-79136419D01*
X166251095Y-79136419D02*
X166393952Y-79184038D01*
X167393952Y-80041180D02*
X167346333Y-80088800D01*
X167346333Y-80088800D02*
X167203476Y-80136419D01*
X167203476Y-80136419D02*
X167108238Y-80136419D01*
X167108238Y-80136419D02*
X166965381Y-80088800D01*
X166965381Y-80088800D02*
X166870143Y-79993561D01*
X166870143Y-79993561D02*
X166822524Y-79898323D01*
X166822524Y-79898323D02*
X166774905Y-79707847D01*
X166774905Y-79707847D02*
X166774905Y-79564990D01*
X166774905Y-79564990D02*
X166822524Y-79374514D01*
X166822524Y-79374514D02*
X166870143Y-79279276D01*
X166870143Y-79279276D02*
X166965381Y-79184038D01*
X166965381Y-79184038D02*
X167108238Y-79136419D01*
X167108238Y-79136419D02*
X167203476Y-79136419D01*
X167203476Y-79136419D02*
X167346333Y-79184038D01*
X167346333Y-79184038D02*
X167393952Y-79231657D01*
X168298714Y-80136419D02*
X167822524Y-80136419D01*
X167822524Y-80136419D02*
X167822524Y-79136419D01*
X168632048Y-80136419D02*
X168632048Y-79136419D01*
X169203476Y-80136419D02*
X168774905Y-79564990D01*
X169203476Y-79136419D02*
X168632048Y-79707847D01*
D10*
X156578514Y-104673400D02*
X156721371Y-104721019D01*
X156721371Y-104721019D02*
X156959466Y-104721019D01*
X156959466Y-104721019D02*
X157054704Y-104673400D01*
X157054704Y-104673400D02*
X157102323Y-104625780D01*
X157102323Y-104625780D02*
X157149942Y-104530542D01*
X157149942Y-104530542D02*
X157149942Y-104435304D01*
X157149942Y-104435304D02*
X157102323Y-104340066D01*
X157102323Y-104340066D02*
X157054704Y-104292447D01*
X157054704Y-104292447D02*
X156959466Y-104244828D01*
X156959466Y-104244828D02*
X156768990Y-104197209D01*
X156768990Y-104197209D02*
X156673752Y-104149590D01*
X156673752Y-104149590D02*
X156626133Y-104101971D01*
X156626133Y-104101971D02*
X156578514Y-104006733D01*
X156578514Y-104006733D02*
X156578514Y-103911495D01*
X156578514Y-103911495D02*
X156626133Y-103816257D01*
X156626133Y-103816257D02*
X156673752Y-103768638D01*
X156673752Y-103768638D02*
X156768990Y-103721019D01*
X156768990Y-103721019D02*
X157007085Y-103721019D01*
X157007085Y-103721019D02*
X157149942Y-103768638D01*
X157768990Y-103721019D02*
X157959466Y-103721019D01*
X157959466Y-103721019D02*
X158054704Y-103768638D01*
X158054704Y-103768638D02*
X158149942Y-103863876D01*
X158149942Y-103863876D02*
X158197561Y-104054352D01*
X158197561Y-104054352D02*
X158197561Y-104387685D01*
X158197561Y-104387685D02*
X158149942Y-104578161D01*
X158149942Y-104578161D02*
X158054704Y-104673400D01*
X158054704Y-104673400D02*
X157959466Y-104721019D01*
X157959466Y-104721019D02*
X157768990Y-104721019D01*
X157768990Y-104721019D02*
X157673752Y-104673400D01*
X157673752Y-104673400D02*
X157578514Y-104578161D01*
X157578514Y-104578161D02*
X157530895Y-104387685D01*
X157530895Y-104387685D02*
X157530895Y-104054352D01*
X157530895Y-104054352D02*
X157578514Y-103863876D01*
X157578514Y-103863876D02*
X157673752Y-103768638D01*
X157673752Y-103768638D02*
X157768990Y-103721019D01*
X158626133Y-103721019D02*
X158626133Y-104530542D01*
X158626133Y-104530542D02*
X158673752Y-104625780D01*
X158673752Y-104625780D02*
X158721371Y-104673400D01*
X158721371Y-104673400D02*
X158816609Y-104721019D01*
X158816609Y-104721019D02*
X159007085Y-104721019D01*
X159007085Y-104721019D02*
X159102323Y-104673400D01*
X159102323Y-104673400D02*
X159149942Y-104625780D01*
X159149942Y-104625780D02*
X159197561Y-104530542D01*
X159197561Y-104530542D02*
X159197561Y-103721019D01*
X159530895Y-103721019D02*
X160102323Y-103721019D01*
X159816609Y-104721019D02*
X159816609Y-103721019D01*
X142744819Y-84626220D02*
X141744819Y-84626220D01*
X141744819Y-84626220D02*
X141744819Y-84245268D01*
X141744819Y-84245268D02*
X141792438Y-84150030D01*
X141792438Y-84150030D02*
X141840057Y-84102411D01*
X141840057Y-84102411D02*
X141935295Y-84054792D01*
X141935295Y-84054792D02*
X142078152Y-84054792D01*
X142078152Y-84054792D02*
X142173390Y-84102411D01*
X142173390Y-84102411D02*
X142221009Y-84150030D01*
X142221009Y-84150030D02*
X142268628Y-84245268D01*
X142268628Y-84245268D02*
X142268628Y-84626220D01*
X142649580Y-83054792D02*
X142697200Y-83102411D01*
X142697200Y-83102411D02*
X142744819Y-83245268D01*
X142744819Y-83245268D02*
X142744819Y-83340506D01*
X142744819Y-83340506D02*
X142697200Y-83483363D01*
X142697200Y-83483363D02*
X142601961Y-83578601D01*
X142601961Y-83578601D02*
X142506723Y-83626220D01*
X142506723Y-83626220D02*
X142316247Y-83673839D01*
X142316247Y-83673839D02*
X142173390Y-83673839D01*
X142173390Y-83673839D02*
X141982914Y-83626220D01*
X141982914Y-83626220D02*
X141887676Y-83578601D01*
X141887676Y-83578601D02*
X141792438Y-83483363D01*
X141792438Y-83483363D02*
X141744819Y-83340506D01*
X141744819Y-83340506D02*
X141744819Y-83245268D01*
X141744819Y-83245268D02*
X141792438Y-83102411D01*
X141792438Y-83102411D02*
X141840057Y-83054792D01*
X142744819Y-82150030D02*
X142744819Y-82626220D01*
X142744819Y-82626220D02*
X141744819Y-82626220D01*
X142744819Y-81816696D02*
X141744819Y-81816696D01*
X142744819Y-81245268D02*
X142173390Y-81673839D01*
X141744819Y-81245268D02*
X142316247Y-81816696D01*
D12*
X143894210Y-126814106D02*
X144627543Y-125880773D01*
X143894210Y-125880773D02*
X144627543Y-126814106D01*
X145160876Y-126814106D02*
X145160876Y-125414106D01*
X145160876Y-125414106D02*
X145494209Y-125414106D01*
X145494209Y-125414106D02*
X145694209Y-125480773D01*
X145694209Y-125480773D02*
X145827543Y-125614106D01*
X145827543Y-125614106D02*
X145894209Y-125747440D01*
X145894209Y-125747440D02*
X145960876Y-126014106D01*
X145960876Y-126014106D02*
X145960876Y-126214106D01*
X145960876Y-126214106D02*
X145894209Y-126480773D01*
X145894209Y-126480773D02*
X145827543Y-126614106D01*
X145827543Y-126614106D02*
X145694209Y-126747440D01*
X145694209Y-126747440D02*
X145494209Y-126814106D01*
X145494209Y-126814106D02*
X145160876Y-126814106D01*
X147094209Y-126747440D02*
X146960876Y-126814106D01*
X146960876Y-126814106D02*
X146694209Y-126814106D01*
X146694209Y-126814106D02*
X146560876Y-126747440D01*
X146560876Y-126747440D02*
X146494209Y-126614106D01*
X146494209Y-126614106D02*
X146494209Y-126080773D01*
X146494209Y-126080773D02*
X146560876Y-125947440D01*
X146560876Y-125947440D02*
X146694209Y-125880773D01*
X146694209Y-125880773D02*
X146960876Y-125880773D01*
X146960876Y-125880773D02*
X147094209Y-125947440D01*
X147094209Y-125947440D02*
X147160876Y-126080773D01*
X147160876Y-126080773D02*
X147160876Y-126214106D01*
X147160876Y-126214106D02*
X146494209Y-126347440D01*
X147627543Y-125880773D02*
X147960876Y-126814106D01*
X147960876Y-126814106D02*
X148294209Y-125880773D01*
X149894210Y-126080773D02*
X150360877Y-126080773D01*
X150560877Y-126814106D02*
X149894210Y-126814106D01*
X149894210Y-126814106D02*
X149894210Y-125414106D01*
X149894210Y-125414106D02*
X150560877Y-125414106D01*
X151027544Y-125880773D02*
X151360877Y-126814106D01*
X151360877Y-126814106D02*
X151694210Y-125880773D01*
X152827544Y-126814106D02*
X152827544Y-126080773D01*
X152827544Y-126080773D02*
X152760877Y-125947440D01*
X152760877Y-125947440D02*
X152627544Y-125880773D01*
X152627544Y-125880773D02*
X152360877Y-125880773D01*
X152360877Y-125880773D02*
X152227544Y-125947440D01*
X152827544Y-126747440D02*
X152694211Y-126814106D01*
X152694211Y-126814106D02*
X152360877Y-126814106D01*
X152360877Y-126814106D02*
X152227544Y-126747440D01*
X152227544Y-126747440D02*
X152160877Y-126614106D01*
X152160877Y-126614106D02*
X152160877Y-126480773D01*
X152160877Y-126480773D02*
X152227544Y-126347440D01*
X152227544Y-126347440D02*
X152360877Y-126280773D01*
X152360877Y-126280773D02*
X152694211Y-126280773D01*
X152694211Y-126280773D02*
X152827544Y-126214106D01*
X153694211Y-126814106D02*
X153560878Y-126747440D01*
X153560878Y-126747440D02*
X153494211Y-126614106D01*
X153494211Y-126614106D02*
X153494211Y-125414106D01*
X155760878Y-126080773D02*
X155960878Y-126147440D01*
X155960878Y-126147440D02*
X156027544Y-126214106D01*
X156027544Y-126214106D02*
X156094211Y-126347440D01*
X156094211Y-126347440D02*
X156094211Y-126547440D01*
X156094211Y-126547440D02*
X156027544Y-126680773D01*
X156027544Y-126680773D02*
X155960878Y-126747440D01*
X155960878Y-126747440D02*
X155827544Y-126814106D01*
X155827544Y-126814106D02*
X155294211Y-126814106D01*
X155294211Y-126814106D02*
X155294211Y-125414106D01*
X155294211Y-125414106D02*
X155760878Y-125414106D01*
X155760878Y-125414106D02*
X155894211Y-125480773D01*
X155894211Y-125480773D02*
X155960878Y-125547440D01*
X155960878Y-125547440D02*
X156027544Y-125680773D01*
X156027544Y-125680773D02*
X156027544Y-125814106D01*
X156027544Y-125814106D02*
X155960878Y-125947440D01*
X155960878Y-125947440D02*
X155894211Y-126014106D01*
X155894211Y-126014106D02*
X155760878Y-126080773D01*
X155760878Y-126080773D02*
X155294211Y-126080773D01*
X156894211Y-126814106D02*
X156760878Y-126747440D01*
X156760878Y-126747440D02*
X156694211Y-126680773D01*
X156694211Y-126680773D02*
X156627544Y-126547440D01*
X156627544Y-126547440D02*
X156627544Y-126147440D01*
X156627544Y-126147440D02*
X156694211Y-126014106D01*
X156694211Y-126014106D02*
X156760878Y-125947440D01*
X156760878Y-125947440D02*
X156894211Y-125880773D01*
X156894211Y-125880773D02*
X157094211Y-125880773D01*
X157094211Y-125880773D02*
X157227544Y-125947440D01*
X157227544Y-125947440D02*
X157294211Y-126014106D01*
X157294211Y-126014106D02*
X157360878Y-126147440D01*
X157360878Y-126147440D02*
X157360878Y-126547440D01*
X157360878Y-126547440D02*
X157294211Y-126680773D01*
X157294211Y-126680773D02*
X157227544Y-126747440D01*
X157227544Y-126747440D02*
X157094211Y-126814106D01*
X157094211Y-126814106D02*
X156894211Y-126814106D01*
X158560878Y-126814106D02*
X158560878Y-126080773D01*
X158560878Y-126080773D02*
X158494211Y-125947440D01*
X158494211Y-125947440D02*
X158360878Y-125880773D01*
X158360878Y-125880773D02*
X158094211Y-125880773D01*
X158094211Y-125880773D02*
X157960878Y-125947440D01*
X158560878Y-126747440D02*
X158427545Y-126814106D01*
X158427545Y-126814106D02*
X158094211Y-126814106D01*
X158094211Y-126814106D02*
X157960878Y-126747440D01*
X157960878Y-126747440D02*
X157894211Y-126614106D01*
X157894211Y-126614106D02*
X157894211Y-126480773D01*
X157894211Y-126480773D02*
X157960878Y-126347440D01*
X157960878Y-126347440D02*
X158094211Y-126280773D01*
X158094211Y-126280773D02*
X158427545Y-126280773D01*
X158427545Y-126280773D02*
X158560878Y-126214106D01*
X159227545Y-126814106D02*
X159227545Y-125880773D01*
X159227545Y-126147440D02*
X159294212Y-126014106D01*
X159294212Y-126014106D02*
X159360878Y-125947440D01*
X159360878Y-125947440D02*
X159494212Y-125880773D01*
X159494212Y-125880773D02*
X159627545Y-125880773D01*
X160694212Y-126814106D02*
X160694212Y-125414106D01*
X160694212Y-126747440D02*
X160560879Y-126814106D01*
X160560879Y-126814106D02*
X160294212Y-126814106D01*
X160294212Y-126814106D02*
X160160879Y-126747440D01*
X160160879Y-126747440D02*
X160094212Y-126680773D01*
X160094212Y-126680773D02*
X160027545Y-126547440D01*
X160027545Y-126547440D02*
X160027545Y-126147440D01*
X160027545Y-126147440D02*
X160094212Y-126014106D01*
X160094212Y-126014106D02*
X160160879Y-125947440D01*
X160160879Y-125947440D02*
X160294212Y-125880773D01*
X160294212Y-125880773D02*
X160560879Y-125880773D01*
X160560879Y-125880773D02*
X160694212Y-125947440D01*
D10*
X143703922Y-127434819D02*
X144037255Y-128434819D01*
X144037255Y-128434819D02*
X144370588Y-127434819D01*
X144894398Y-127434819D02*
X144989636Y-127434819D01*
X144989636Y-127434819D02*
X145084874Y-127482438D01*
X145084874Y-127482438D02*
X145132493Y-127530057D01*
X145132493Y-127530057D02*
X145180112Y-127625295D01*
X145180112Y-127625295D02*
X145227731Y-127815771D01*
X145227731Y-127815771D02*
X145227731Y-128053866D01*
X145227731Y-128053866D02*
X145180112Y-128244342D01*
X145180112Y-128244342D02*
X145132493Y-128339580D01*
X145132493Y-128339580D02*
X145084874Y-128387200D01*
X145084874Y-128387200D02*
X144989636Y-128434819D01*
X144989636Y-128434819D02*
X144894398Y-128434819D01*
X144894398Y-128434819D02*
X144799160Y-128387200D01*
X144799160Y-128387200D02*
X144751541Y-128339580D01*
X144751541Y-128339580D02*
X144703922Y-128244342D01*
X144703922Y-128244342D02*
X144656303Y-128053866D01*
X144656303Y-128053866D02*
X144656303Y-127815771D01*
X144656303Y-127815771D02*
X144703922Y-127625295D01*
X144703922Y-127625295D02*
X144751541Y-127530057D01*
X144751541Y-127530057D02*
X144799160Y-127482438D01*
X144799160Y-127482438D02*
X144894398Y-127434819D01*
X145656303Y-128339580D02*
X145703922Y-128387200D01*
X145703922Y-128387200D02*
X145656303Y-128434819D01*
X145656303Y-128434819D02*
X145608684Y-128387200D01*
X145608684Y-128387200D02*
X145656303Y-128339580D01*
X145656303Y-128339580D02*
X145656303Y-128434819D01*
X146608683Y-127434819D02*
X146132493Y-127434819D01*
X146132493Y-127434819D02*
X146084874Y-127911009D01*
X146084874Y-127911009D02*
X146132493Y-127863390D01*
X146132493Y-127863390D02*
X146227731Y-127815771D01*
X146227731Y-127815771D02*
X146465826Y-127815771D01*
X146465826Y-127815771D02*
X146561064Y-127863390D01*
X146561064Y-127863390D02*
X146608683Y-127911009D01*
X146608683Y-127911009D02*
X146656302Y-128006247D01*
X146656302Y-128006247D02*
X146656302Y-128244342D01*
X146656302Y-128244342D02*
X146608683Y-128339580D01*
X146608683Y-128339580D02*
X146561064Y-128387200D01*
X146561064Y-128387200D02*
X146465826Y-128434819D01*
X146465826Y-128434819D02*
X146227731Y-128434819D01*
X146227731Y-128434819D02*
X146132493Y-128387200D01*
X146132493Y-128387200D02*
X146084874Y-128339580D01*
X152037254Y-127434819D02*
X151846778Y-127434819D01*
X151846778Y-127434819D02*
X151751540Y-127482438D01*
X151751540Y-127482438D02*
X151703921Y-127530057D01*
X151703921Y-127530057D02*
X151608683Y-127672914D01*
X151608683Y-127672914D02*
X151561064Y-127863390D01*
X151561064Y-127863390D02*
X151561064Y-128244342D01*
X151561064Y-128244342D02*
X151608683Y-128339580D01*
X151608683Y-128339580D02*
X151656302Y-128387200D01*
X151656302Y-128387200D02*
X151751540Y-128434819D01*
X151751540Y-128434819D02*
X151942016Y-128434819D01*
X151942016Y-128434819D02*
X152037254Y-128387200D01*
X152037254Y-128387200D02*
X152084873Y-128339580D01*
X152084873Y-128339580D02*
X152132492Y-128244342D01*
X152132492Y-128244342D02*
X152132492Y-128006247D01*
X152132492Y-128006247D02*
X152084873Y-127911009D01*
X152084873Y-127911009D02*
X152037254Y-127863390D01*
X152037254Y-127863390D02*
X151942016Y-127815771D01*
X151942016Y-127815771D02*
X151751540Y-127815771D01*
X151751540Y-127815771D02*
X151656302Y-127863390D01*
X151656302Y-127863390D02*
X151608683Y-127911009D01*
X151608683Y-127911009D02*
X151561064Y-128006247D01*
X153275349Y-127387200D02*
X152418207Y-128672914D01*
X153561064Y-127530057D02*
X153608683Y-127482438D01*
X153608683Y-127482438D02*
X153703921Y-127434819D01*
X153703921Y-127434819D02*
X153942016Y-127434819D01*
X153942016Y-127434819D02*
X154037254Y-127482438D01*
X154037254Y-127482438D02*
X154084873Y-127530057D01*
X154084873Y-127530057D02*
X154132492Y-127625295D01*
X154132492Y-127625295D02*
X154132492Y-127720533D01*
X154132492Y-127720533D02*
X154084873Y-127863390D01*
X154084873Y-127863390D02*
X153513445Y-128434819D01*
X153513445Y-128434819D02*
X154132492Y-128434819D01*
X154465826Y-127434819D02*
X155084873Y-127434819D01*
X155084873Y-127434819D02*
X154751540Y-127815771D01*
X154751540Y-127815771D02*
X154894397Y-127815771D01*
X154894397Y-127815771D02*
X154989635Y-127863390D01*
X154989635Y-127863390D02*
X155037254Y-127911009D01*
X155037254Y-127911009D02*
X155084873Y-128006247D01*
X155084873Y-128006247D02*
X155084873Y-128244342D01*
X155084873Y-128244342D02*
X155037254Y-128339580D01*
X155037254Y-128339580D02*
X154989635Y-128387200D01*
X154989635Y-128387200D02*
X154894397Y-128434819D01*
X154894397Y-128434819D02*
X154608683Y-128434819D01*
X154608683Y-128434819D02*
X154513445Y-128387200D01*
X154513445Y-128387200D02*
X154465826Y-128339580D01*
X156227730Y-127387200D02*
X155370588Y-128672914D01*
X156513445Y-127530057D02*
X156561064Y-127482438D01*
X156561064Y-127482438D02*
X156656302Y-127434819D01*
X156656302Y-127434819D02*
X156894397Y-127434819D01*
X156894397Y-127434819D02*
X156989635Y-127482438D01*
X156989635Y-127482438D02*
X157037254Y-127530057D01*
X157037254Y-127530057D02*
X157084873Y-127625295D01*
X157084873Y-127625295D02*
X157084873Y-127720533D01*
X157084873Y-127720533D02*
X157037254Y-127863390D01*
X157037254Y-127863390D02*
X156465826Y-128434819D01*
X156465826Y-128434819D02*
X157084873Y-128434819D01*
X157418207Y-127434819D02*
X158037254Y-127434819D01*
X158037254Y-127434819D02*
X157703921Y-127815771D01*
X157703921Y-127815771D02*
X157846778Y-127815771D01*
X157846778Y-127815771D02*
X157942016Y-127863390D01*
X157942016Y-127863390D02*
X157989635Y-127911009D01*
X157989635Y-127911009D02*
X158037254Y-128006247D01*
X158037254Y-128006247D02*
X158037254Y-128244342D01*
X158037254Y-128244342D02*
X157989635Y-128339580D01*
X157989635Y-128339580D02*
X157942016Y-128387200D01*
X157942016Y-128387200D02*
X157846778Y-128434819D01*
X157846778Y-128434819D02*
X157561064Y-128434819D01*
X157561064Y-128434819D02*
X157465826Y-128387200D01*
X157465826Y-128387200D02*
X157418207Y-128339580D01*
X143751541Y-129044819D02*
X144418207Y-130044819D01*
X144418207Y-129044819D02*
X143751541Y-130044819D01*
X145227731Y-130044819D02*
X145227731Y-129521009D01*
X145227731Y-129521009D02*
X145180112Y-129425771D01*
X145180112Y-129425771D02*
X145084874Y-129378152D01*
X145084874Y-129378152D02*
X144894398Y-129378152D01*
X144894398Y-129378152D02*
X144799160Y-129425771D01*
X145227731Y-129997200D02*
X145132493Y-130044819D01*
X145132493Y-130044819D02*
X144894398Y-130044819D01*
X144894398Y-130044819D02*
X144799160Y-129997200D01*
X144799160Y-129997200D02*
X144751541Y-129901961D01*
X144751541Y-129901961D02*
X144751541Y-129806723D01*
X144751541Y-129806723D02*
X144799160Y-129711485D01*
X144799160Y-129711485D02*
X144894398Y-129663866D01*
X144894398Y-129663866D02*
X145132493Y-129663866D01*
X145132493Y-129663866D02*
X145227731Y-129616247D01*
X145608684Y-129378152D02*
X145846779Y-130044819D01*
X145846779Y-130044819D02*
X146084874Y-129378152D01*
X146465827Y-130044819D02*
X146465827Y-129378152D01*
X146465827Y-129044819D02*
X146418208Y-129092438D01*
X146418208Y-129092438D02*
X146465827Y-129140057D01*
X146465827Y-129140057D02*
X146513446Y-129092438D01*
X146513446Y-129092438D02*
X146465827Y-129044819D01*
X146465827Y-129044819D02*
X146465827Y-129140057D01*
X147322969Y-129997200D02*
X147227731Y-130044819D01*
X147227731Y-130044819D02*
X147037255Y-130044819D01*
X147037255Y-130044819D02*
X146942017Y-129997200D01*
X146942017Y-129997200D02*
X146894398Y-129901961D01*
X146894398Y-129901961D02*
X146894398Y-129521009D01*
X146894398Y-129521009D02*
X146942017Y-129425771D01*
X146942017Y-129425771D02*
X147037255Y-129378152D01*
X147037255Y-129378152D02*
X147227731Y-129378152D01*
X147227731Y-129378152D02*
X147322969Y-129425771D01*
X147322969Y-129425771D02*
X147370588Y-129521009D01*
X147370588Y-129521009D02*
X147370588Y-129616247D01*
X147370588Y-129616247D02*
X146894398Y-129711485D01*
X147799160Y-130044819D02*
X147799160Y-129378152D01*
X147799160Y-129568628D02*
X147846779Y-129473390D01*
X147846779Y-129473390D02*
X147894398Y-129425771D01*
X147894398Y-129425771D02*
X147989636Y-129378152D01*
X147989636Y-129378152D02*
X148084874Y-129378152D01*
X149656303Y-130044819D02*
X149180113Y-130044819D01*
X149180113Y-130044819D02*
X149180113Y-129044819D01*
X150370589Y-129997200D02*
X150275351Y-130044819D01*
X150275351Y-130044819D02*
X150084875Y-130044819D01*
X150084875Y-130044819D02*
X149989637Y-129997200D01*
X149989637Y-129997200D02*
X149942018Y-129901961D01*
X149942018Y-129901961D02*
X149942018Y-129521009D01*
X149942018Y-129521009D02*
X149989637Y-129425771D01*
X149989637Y-129425771D02*
X150084875Y-129378152D01*
X150084875Y-129378152D02*
X150275351Y-129378152D01*
X150275351Y-129378152D02*
X150370589Y-129425771D01*
X150370589Y-129425771D02*
X150418208Y-129521009D01*
X150418208Y-129521009D02*
X150418208Y-129616247D01*
X150418208Y-129616247D02*
X149942018Y-129711485D01*
X151227732Y-129997200D02*
X151132494Y-130044819D01*
X151132494Y-130044819D02*
X150942018Y-130044819D01*
X150942018Y-130044819D02*
X150846780Y-129997200D01*
X150846780Y-129997200D02*
X150799161Y-129901961D01*
X150799161Y-129901961D02*
X150799161Y-129521009D01*
X150799161Y-129521009D02*
X150846780Y-129425771D01*
X150846780Y-129425771D02*
X150942018Y-129378152D01*
X150942018Y-129378152D02*
X151132494Y-129378152D01*
X151132494Y-129378152D02*
X151227732Y-129425771D01*
X151227732Y-129425771D02*
X151275351Y-129521009D01*
X151275351Y-129521009D02*
X151275351Y-129616247D01*
X151275351Y-129616247D02*
X150799161Y-129711485D01*
X133299200Y-93055839D02*
X133346819Y-92912982D01*
X133346819Y-92912982D02*
X133346819Y-92674887D01*
X133346819Y-92674887D02*
X133299200Y-92579649D01*
X133299200Y-92579649D02*
X133251580Y-92532030D01*
X133251580Y-92532030D02*
X133156342Y-92484411D01*
X133156342Y-92484411D02*
X133061104Y-92484411D01*
X133061104Y-92484411D02*
X132965866Y-92532030D01*
X132965866Y-92532030D02*
X132918247Y-92579649D01*
X132918247Y-92579649D02*
X132870628Y-92674887D01*
X132870628Y-92674887D02*
X132823009Y-92865363D01*
X132823009Y-92865363D02*
X132775390Y-92960601D01*
X132775390Y-92960601D02*
X132727771Y-93008220D01*
X132727771Y-93008220D02*
X132632533Y-93055839D01*
X132632533Y-93055839D02*
X132537295Y-93055839D01*
X132537295Y-93055839D02*
X132442057Y-93008220D01*
X132442057Y-93008220D02*
X132394438Y-92960601D01*
X132394438Y-92960601D02*
X132346819Y-92865363D01*
X132346819Y-92865363D02*
X132346819Y-92627268D01*
X132346819Y-92627268D02*
X132394438Y-92484411D01*
X133346819Y-92055839D02*
X132346819Y-92055839D01*
X133346819Y-91579649D02*
X132346819Y-91579649D01*
X132346819Y-91579649D02*
X133346819Y-91008221D01*
X133346819Y-91008221D02*
X132346819Y-91008221D01*
X129421238Y-100057009D02*
X129564095Y-100104628D01*
X129564095Y-100104628D02*
X129611714Y-100152247D01*
X129611714Y-100152247D02*
X129659333Y-100247485D01*
X129659333Y-100247485D02*
X129659333Y-100390342D01*
X129659333Y-100390342D02*
X129611714Y-100485580D01*
X129611714Y-100485580D02*
X129564095Y-100533200D01*
X129564095Y-100533200D02*
X129468857Y-100580819D01*
X129468857Y-100580819D02*
X129087905Y-100580819D01*
X129087905Y-100580819D02*
X129087905Y-99580819D01*
X129087905Y-99580819D02*
X129421238Y-99580819D01*
X129421238Y-99580819D02*
X129516476Y-99628438D01*
X129516476Y-99628438D02*
X129564095Y-99676057D01*
X129564095Y-99676057D02*
X129611714Y-99771295D01*
X129611714Y-99771295D02*
X129611714Y-99866533D01*
X129611714Y-99866533D02*
X129564095Y-99961771D01*
X129564095Y-99961771D02*
X129516476Y-100009390D01*
X129516476Y-100009390D02*
X129421238Y-100057009D01*
X129421238Y-100057009D02*
X129087905Y-100057009D01*
X130611714Y-100580819D02*
X130040286Y-100580819D01*
X130326000Y-100580819D02*
X130326000Y-99580819D01*
X130326000Y-99580819D02*
X130230762Y-99723676D01*
X130230762Y-99723676D02*
X130135524Y-99818914D01*
X130135524Y-99818914D02*
X130040286Y-99866533D01*
X131516476Y-99580819D02*
X131040286Y-99580819D01*
X131040286Y-99580819D02*
X130992667Y-100057009D01*
X130992667Y-100057009D02*
X131040286Y-100009390D01*
X131040286Y-100009390D02*
X131135524Y-99961771D01*
X131135524Y-99961771D02*
X131373619Y-99961771D01*
X131373619Y-99961771D02*
X131468857Y-100009390D01*
X131468857Y-100009390D02*
X131516476Y-100057009D01*
X131516476Y-100057009D02*
X131564095Y-100152247D01*
X131564095Y-100152247D02*
X131564095Y-100390342D01*
X131564095Y-100390342D02*
X131516476Y-100485580D01*
X131516476Y-100485580D02*
X131468857Y-100533200D01*
X131468857Y-100533200D02*
X131373619Y-100580819D01*
X131373619Y-100580819D02*
X131135524Y-100580819D01*
X131135524Y-100580819D02*
X131040286Y-100533200D01*
X131040286Y-100533200D02*
X130992667Y-100485580D01*
X131992667Y-100199866D02*
X132754572Y-100199866D01*
X133706952Y-99580819D02*
X133230762Y-99580819D01*
X133230762Y-99580819D02*
X133183143Y-100057009D01*
X133183143Y-100057009D02*
X133230762Y-100009390D01*
X133230762Y-100009390D02*
X133326000Y-99961771D01*
X133326000Y-99961771D02*
X133564095Y-99961771D01*
X133564095Y-99961771D02*
X133659333Y-100009390D01*
X133659333Y-100009390D02*
X133706952Y-100057009D01*
X133706952Y-100057009D02*
X133754571Y-100152247D01*
X133754571Y-100152247D02*
X133754571Y-100390342D01*
X133754571Y-100390342D02*
X133706952Y-100485580D01*
X133706952Y-100485580D02*
X133659333Y-100533200D01*
X133659333Y-100533200D02*
X133564095Y-100580819D01*
X133564095Y-100580819D02*
X133326000Y-100580819D01*
X133326000Y-100580819D02*
X133230762Y-100533200D01*
X133230762Y-100533200D02*
X133183143Y-100485580D01*
X134040286Y-99580819D02*
X134373619Y-100580819D01*
X134373619Y-100580819D02*
X134706952Y-99580819D01*
X157770533Y-103381980D02*
X157722914Y-103429600D01*
X157722914Y-103429600D02*
X157580057Y-103477219D01*
X157580057Y-103477219D02*
X157484819Y-103477219D01*
X157484819Y-103477219D02*
X157341962Y-103429600D01*
X157341962Y-103429600D02*
X157246724Y-103334361D01*
X157246724Y-103334361D02*
X157199105Y-103239123D01*
X157199105Y-103239123D02*
X157151486Y-103048647D01*
X157151486Y-103048647D02*
X157151486Y-102905790D01*
X157151486Y-102905790D02*
X157199105Y-102715314D01*
X157199105Y-102715314D02*
X157246724Y-102620076D01*
X157246724Y-102620076D02*
X157341962Y-102524838D01*
X157341962Y-102524838D02*
X157484819Y-102477219D01*
X157484819Y-102477219D02*
X157580057Y-102477219D01*
X157580057Y-102477219D02*
X157722914Y-102524838D01*
X157722914Y-102524838D02*
X157770533Y-102572457D01*
X158627676Y-102477219D02*
X158437200Y-102477219D01*
X158437200Y-102477219D02*
X158341962Y-102524838D01*
X158341962Y-102524838D02*
X158294343Y-102572457D01*
X158294343Y-102572457D02*
X158199105Y-102715314D01*
X158199105Y-102715314D02*
X158151486Y-102905790D01*
X158151486Y-102905790D02*
X158151486Y-103286742D01*
X158151486Y-103286742D02*
X158199105Y-103381980D01*
X158199105Y-103381980D02*
X158246724Y-103429600D01*
X158246724Y-103429600D02*
X158341962Y-103477219D01*
X158341962Y-103477219D02*
X158532438Y-103477219D01*
X158532438Y-103477219D02*
X158627676Y-103429600D01*
X158627676Y-103429600D02*
X158675295Y-103381980D01*
X158675295Y-103381980D02*
X158722914Y-103286742D01*
X158722914Y-103286742D02*
X158722914Y-103048647D01*
X158722914Y-103048647D02*
X158675295Y-102953409D01*
X158675295Y-102953409D02*
X158627676Y-102905790D01*
X158627676Y-102905790D02*
X158532438Y-102858171D01*
X158532438Y-102858171D02*
X158341962Y-102858171D01*
X158341962Y-102858171D02*
X158246724Y-102905790D01*
X158246724Y-102905790D02*
X158199105Y-102953409D01*
X158199105Y-102953409D02*
X158151486Y-103048647D01*
X158869142Y-91647180D02*
X158821523Y-91694800D01*
X158821523Y-91694800D02*
X158678666Y-91742419D01*
X158678666Y-91742419D02*
X158583428Y-91742419D01*
X158583428Y-91742419D02*
X158440571Y-91694800D01*
X158440571Y-91694800D02*
X158345333Y-91599561D01*
X158345333Y-91599561D02*
X158297714Y-91504323D01*
X158297714Y-91504323D02*
X158250095Y-91313847D01*
X158250095Y-91313847D02*
X158250095Y-91170990D01*
X158250095Y-91170990D02*
X158297714Y-90980514D01*
X158297714Y-90980514D02*
X158345333Y-90885276D01*
X158345333Y-90885276D02*
X158440571Y-90790038D01*
X158440571Y-90790038D02*
X158583428Y-90742419D01*
X158583428Y-90742419D02*
X158678666Y-90742419D01*
X158678666Y-90742419D02*
X158821523Y-90790038D01*
X158821523Y-90790038D02*
X158869142Y-90837657D01*
X159821523Y-91742419D02*
X159250095Y-91742419D01*
X159535809Y-91742419D02*
X159535809Y-90742419D01*
X159535809Y-90742419D02*
X159440571Y-90885276D01*
X159440571Y-90885276D02*
X159345333Y-90980514D01*
X159345333Y-90980514D02*
X159250095Y-91028133D01*
X160440571Y-90742419D02*
X160535809Y-90742419D01*
X160535809Y-90742419D02*
X160631047Y-90790038D01*
X160631047Y-90790038D02*
X160678666Y-90837657D01*
X160678666Y-90837657D02*
X160726285Y-90932895D01*
X160726285Y-90932895D02*
X160773904Y-91123371D01*
X160773904Y-91123371D02*
X160773904Y-91361466D01*
X160773904Y-91361466D02*
X160726285Y-91551942D01*
X160726285Y-91551942D02*
X160678666Y-91647180D01*
X160678666Y-91647180D02*
X160631047Y-91694800D01*
X160631047Y-91694800D02*
X160535809Y-91742419D01*
X160535809Y-91742419D02*
X160440571Y-91742419D01*
X160440571Y-91742419D02*
X160345333Y-91694800D01*
X160345333Y-91694800D02*
X160297714Y-91647180D01*
X160297714Y-91647180D02*
X160250095Y-91551942D01*
X160250095Y-91551942D02*
X160202476Y-91361466D01*
X160202476Y-91361466D02*
X160202476Y-91123371D01*
X160202476Y-91123371D02*
X160250095Y-90932895D01*
X160250095Y-90932895D02*
X160297714Y-90837657D01*
X160297714Y-90837657D02*
X160345333Y-90790038D01*
X160345333Y-90790038D02*
X160440571Y-90742419D01*
X153152314Y-93933214D02*
X152579894Y-94505634D01*
X152579894Y-94505634D02*
X152546222Y-94606649D01*
X152546222Y-94606649D02*
X152546222Y-94673993D01*
X152546222Y-94673993D02*
X152579894Y-94775008D01*
X152579894Y-94775008D02*
X152714581Y-94909695D01*
X152714581Y-94909695D02*
X152815596Y-94943367D01*
X152815596Y-94943367D02*
X152882940Y-94943367D01*
X152882940Y-94943367D02*
X152983955Y-94909695D01*
X152983955Y-94909695D02*
X153556375Y-94337275D01*
X153792077Y-94707665D02*
X153859420Y-94707665D01*
X153859420Y-94707665D02*
X153960436Y-94741336D01*
X153960436Y-94741336D02*
X154128794Y-94909695D01*
X154128794Y-94909695D02*
X154162466Y-95010710D01*
X154162466Y-95010710D02*
X154162466Y-95078054D01*
X154162466Y-95078054D02*
X154128794Y-95179069D01*
X154128794Y-95179069D02*
X154061451Y-95246413D01*
X154061451Y-95246413D02*
X153926764Y-95313756D01*
X153926764Y-95313756D02*
X153118642Y-95313756D01*
X153118642Y-95313756D02*
X153556375Y-95751489D01*
X153670095Y-89421619D02*
X153670095Y-90231142D01*
X153670095Y-90231142D02*
X153717714Y-90326380D01*
X153717714Y-90326380D02*
X153765333Y-90374000D01*
X153765333Y-90374000D02*
X153860571Y-90421619D01*
X153860571Y-90421619D02*
X154051047Y-90421619D01*
X154051047Y-90421619D02*
X154146285Y-90374000D01*
X154146285Y-90374000D02*
X154193904Y-90326380D01*
X154193904Y-90326380D02*
X154241523Y-90231142D01*
X154241523Y-90231142D02*
X154241523Y-89421619D01*
X154622476Y-89421619D02*
X155241523Y-89421619D01*
X155241523Y-89421619D02*
X154908190Y-89802571D01*
X154908190Y-89802571D02*
X155051047Y-89802571D01*
X155051047Y-89802571D02*
X155146285Y-89850190D01*
X155146285Y-89850190D02*
X155193904Y-89897809D01*
X155193904Y-89897809D02*
X155241523Y-89993047D01*
X155241523Y-89993047D02*
X155241523Y-90231142D01*
X155241523Y-90231142D02*
X155193904Y-90326380D01*
X155193904Y-90326380D02*
X155146285Y-90374000D01*
X155146285Y-90374000D02*
X155051047Y-90421619D01*
X155051047Y-90421619D02*
X154765333Y-90421619D01*
X154765333Y-90421619D02*
X154670095Y-90374000D01*
X154670095Y-90374000D02*
X154622476Y-90326380D01*
X159275542Y-95349219D02*
X158942209Y-94873028D01*
X158704114Y-95349219D02*
X158704114Y-94349219D01*
X158704114Y-94349219D02*
X159085066Y-94349219D01*
X159085066Y-94349219D02*
X159180304Y-94396838D01*
X159180304Y-94396838D02*
X159227923Y-94444457D01*
X159227923Y-94444457D02*
X159275542Y-94539695D01*
X159275542Y-94539695D02*
X159275542Y-94682552D01*
X159275542Y-94682552D02*
X159227923Y-94777790D01*
X159227923Y-94777790D02*
X159180304Y-94825409D01*
X159180304Y-94825409D02*
X159085066Y-94873028D01*
X159085066Y-94873028D02*
X158704114Y-94873028D01*
X160227923Y-95349219D02*
X159656495Y-95349219D01*
X159942209Y-95349219D02*
X159942209Y-94349219D01*
X159942209Y-94349219D02*
X159846971Y-94492076D01*
X159846971Y-94492076D02*
X159751733Y-94587314D01*
X159751733Y-94587314D02*
X159656495Y-94634933D01*
X161180304Y-95349219D02*
X160608876Y-95349219D01*
X160894590Y-95349219D02*
X160894590Y-94349219D01*
X160894590Y-94349219D02*
X160799352Y-94492076D01*
X160799352Y-94492076D02*
X160704114Y-94587314D01*
X160704114Y-94587314D02*
X160608876Y-94634933D01*
X155467436Y-101817374D02*
X154895017Y-101716359D01*
X155063375Y-102221435D02*
X154356269Y-101514328D01*
X154356269Y-101514328D02*
X154625643Y-101244954D01*
X154625643Y-101244954D02*
X154726658Y-101211282D01*
X154726658Y-101211282D02*
X154794001Y-101211282D01*
X154794001Y-101211282D02*
X154895017Y-101244954D01*
X154895017Y-101244954D02*
X154996032Y-101345969D01*
X154996032Y-101345969D02*
X155029704Y-101446985D01*
X155029704Y-101446985D02*
X155029704Y-101514328D01*
X155029704Y-101514328D02*
X154996032Y-101615343D01*
X154996032Y-101615343D02*
X154726658Y-101884717D01*
X156140871Y-101143939D02*
X155736810Y-101548000D01*
X155938841Y-101345969D02*
X155231734Y-100638863D01*
X155231734Y-100638863D02*
X155265406Y-100807221D01*
X155265406Y-100807221D02*
X155265406Y-100941908D01*
X155265406Y-100941908D02*
X155231734Y-101042924D01*
X155871498Y-99999099D02*
X155938841Y-99931756D01*
X155938841Y-99931756D02*
X156039856Y-99898084D01*
X156039856Y-99898084D02*
X156107200Y-99898084D01*
X156107200Y-99898084D02*
X156208215Y-99931756D01*
X156208215Y-99931756D02*
X156376574Y-100032771D01*
X156376574Y-100032771D02*
X156544933Y-100201130D01*
X156544933Y-100201130D02*
X156645948Y-100369488D01*
X156645948Y-100369488D02*
X156679620Y-100470504D01*
X156679620Y-100470504D02*
X156679620Y-100537847D01*
X156679620Y-100537847D02*
X156645948Y-100638862D01*
X156645948Y-100638862D02*
X156578604Y-100706206D01*
X156578604Y-100706206D02*
X156477589Y-100739878D01*
X156477589Y-100739878D02*
X156410246Y-100739878D01*
X156410246Y-100739878D02*
X156309230Y-100706206D01*
X156309230Y-100706206D02*
X156140872Y-100605191D01*
X156140872Y-100605191D02*
X155972513Y-100436832D01*
X155972513Y-100436832D02*
X155871498Y-100268473D01*
X155871498Y-100268473D02*
X155837826Y-100167458D01*
X155837826Y-100167458D02*
X155837826Y-100100114D01*
X155837826Y-100100114D02*
X155871498Y-99999099D01*
X155179733Y-92453619D02*
X154846400Y-91977428D01*
X154608305Y-92453619D02*
X154608305Y-91453619D01*
X154608305Y-91453619D02*
X154989257Y-91453619D01*
X154989257Y-91453619D02*
X155084495Y-91501238D01*
X155084495Y-91501238D02*
X155132114Y-91548857D01*
X155132114Y-91548857D02*
X155179733Y-91644095D01*
X155179733Y-91644095D02*
X155179733Y-91786952D01*
X155179733Y-91786952D02*
X155132114Y-91882190D01*
X155132114Y-91882190D02*
X155084495Y-91929809D01*
X155084495Y-91929809D02*
X154989257Y-91977428D01*
X154989257Y-91977428D02*
X154608305Y-91977428D01*
X155655924Y-92453619D02*
X155846400Y-92453619D01*
X155846400Y-92453619D02*
X155941638Y-92406000D01*
X155941638Y-92406000D02*
X155989257Y-92358380D01*
X155989257Y-92358380D02*
X156084495Y-92215523D01*
X156084495Y-92215523D02*
X156132114Y-92025047D01*
X156132114Y-92025047D02*
X156132114Y-91644095D01*
X156132114Y-91644095D02*
X156084495Y-91548857D01*
X156084495Y-91548857D02*
X156036876Y-91501238D01*
X156036876Y-91501238D02*
X155941638Y-91453619D01*
X155941638Y-91453619D02*
X155751162Y-91453619D01*
X155751162Y-91453619D02*
X155655924Y-91501238D01*
X155655924Y-91501238D02*
X155608305Y-91548857D01*
X155608305Y-91548857D02*
X155560686Y-91644095D01*
X155560686Y-91644095D02*
X155560686Y-91882190D01*
X155560686Y-91882190D02*
X155608305Y-91977428D01*
X155608305Y-91977428D02*
X155655924Y-92025047D01*
X155655924Y-92025047D02*
X155751162Y-92072666D01*
X155751162Y-92072666D02*
X155941638Y-92072666D01*
X155941638Y-92072666D02*
X156036876Y-92025047D01*
X156036876Y-92025047D02*
X156084495Y-91977428D01*
X156084495Y-91977428D02*
X156132114Y-91882190D01*
X153058333Y-88057819D02*
X152725000Y-87581628D01*
X152486905Y-88057819D02*
X152486905Y-87057819D01*
X152486905Y-87057819D02*
X152867857Y-87057819D01*
X152867857Y-87057819D02*
X152963095Y-87105438D01*
X152963095Y-87105438D02*
X153010714Y-87153057D01*
X153010714Y-87153057D02*
X153058333Y-87248295D01*
X153058333Y-87248295D02*
X153058333Y-87391152D01*
X153058333Y-87391152D02*
X153010714Y-87486390D01*
X153010714Y-87486390D02*
X152963095Y-87534009D01*
X152963095Y-87534009D02*
X152867857Y-87581628D01*
X152867857Y-87581628D02*
X152486905Y-87581628D01*
X153629762Y-87486390D02*
X153534524Y-87438771D01*
X153534524Y-87438771D02*
X153486905Y-87391152D01*
X153486905Y-87391152D02*
X153439286Y-87295914D01*
X153439286Y-87295914D02*
X153439286Y-87248295D01*
X153439286Y-87248295D02*
X153486905Y-87153057D01*
X153486905Y-87153057D02*
X153534524Y-87105438D01*
X153534524Y-87105438D02*
X153629762Y-87057819D01*
X153629762Y-87057819D02*
X153820238Y-87057819D01*
X153820238Y-87057819D02*
X153915476Y-87105438D01*
X153915476Y-87105438D02*
X153963095Y-87153057D01*
X153963095Y-87153057D02*
X154010714Y-87248295D01*
X154010714Y-87248295D02*
X154010714Y-87295914D01*
X154010714Y-87295914D02*
X153963095Y-87391152D01*
X153963095Y-87391152D02*
X153915476Y-87438771D01*
X153915476Y-87438771D02*
X153820238Y-87486390D01*
X153820238Y-87486390D02*
X153629762Y-87486390D01*
X153629762Y-87486390D02*
X153534524Y-87534009D01*
X153534524Y-87534009D02*
X153486905Y-87581628D01*
X153486905Y-87581628D02*
X153439286Y-87676866D01*
X153439286Y-87676866D02*
X153439286Y-87867342D01*
X153439286Y-87867342D02*
X153486905Y-87962580D01*
X153486905Y-87962580D02*
X153534524Y-88010200D01*
X153534524Y-88010200D02*
X153629762Y-88057819D01*
X153629762Y-88057819D02*
X153820238Y-88057819D01*
X153820238Y-88057819D02*
X153915476Y-88010200D01*
X153915476Y-88010200D02*
X153963095Y-87962580D01*
X153963095Y-87962580D02*
X154010714Y-87867342D01*
X154010714Y-87867342D02*
X154010714Y-87676866D01*
X154010714Y-87676866D02*
X153963095Y-87581628D01*
X153963095Y-87581628D02*
X153915476Y-87534009D01*
X153915476Y-87534009D02*
X153820238Y-87486390D01*
X154076954Y-100921856D02*
X153504535Y-100820841D01*
X153672893Y-101325917D02*
X152965787Y-100618810D01*
X152965787Y-100618810D02*
X153235161Y-100349436D01*
X153235161Y-100349436D02*
X153336176Y-100315764D01*
X153336176Y-100315764D02*
X153403519Y-100315764D01*
X153403519Y-100315764D02*
X153504535Y-100349436D01*
X153504535Y-100349436D02*
X153605550Y-100450451D01*
X153605550Y-100450451D02*
X153639222Y-100551467D01*
X153639222Y-100551467D02*
X153639222Y-100618810D01*
X153639222Y-100618810D02*
X153605550Y-100719825D01*
X153605550Y-100719825D02*
X153336176Y-100989199D01*
X153605550Y-99979047D02*
X154076954Y-99507642D01*
X154076954Y-99507642D02*
X154481015Y-100517795D01*
X150138333Y-88084819D02*
X149805000Y-87608628D01*
X149566905Y-88084819D02*
X149566905Y-87084819D01*
X149566905Y-87084819D02*
X149947857Y-87084819D01*
X149947857Y-87084819D02*
X150043095Y-87132438D01*
X150043095Y-87132438D02*
X150090714Y-87180057D01*
X150090714Y-87180057D02*
X150138333Y-87275295D01*
X150138333Y-87275295D02*
X150138333Y-87418152D01*
X150138333Y-87418152D02*
X150090714Y-87513390D01*
X150090714Y-87513390D02*
X150043095Y-87561009D01*
X150043095Y-87561009D02*
X149947857Y-87608628D01*
X149947857Y-87608628D02*
X149566905Y-87608628D01*
X150995476Y-87084819D02*
X150805000Y-87084819D01*
X150805000Y-87084819D02*
X150709762Y-87132438D01*
X150709762Y-87132438D02*
X150662143Y-87180057D01*
X150662143Y-87180057D02*
X150566905Y-87322914D01*
X150566905Y-87322914D02*
X150519286Y-87513390D01*
X150519286Y-87513390D02*
X150519286Y-87894342D01*
X150519286Y-87894342D02*
X150566905Y-87989580D01*
X150566905Y-87989580D02*
X150614524Y-88037200D01*
X150614524Y-88037200D02*
X150709762Y-88084819D01*
X150709762Y-88084819D02*
X150900238Y-88084819D01*
X150900238Y-88084819D02*
X150995476Y-88037200D01*
X150995476Y-88037200D02*
X151043095Y-87989580D01*
X151043095Y-87989580D02*
X151090714Y-87894342D01*
X151090714Y-87894342D02*
X151090714Y-87656247D01*
X151090714Y-87656247D02*
X151043095Y-87561009D01*
X151043095Y-87561009D02*
X150995476Y-87513390D01*
X150995476Y-87513390D02*
X150900238Y-87465771D01*
X150900238Y-87465771D02*
X150709762Y-87465771D01*
X150709762Y-87465771D02*
X150614524Y-87513390D01*
X150614524Y-87513390D02*
X150566905Y-87561009D01*
X150566905Y-87561009D02*
X150519286Y-87656247D01*
X154111819Y-80288166D02*
X153635628Y-80621499D01*
X154111819Y-80859594D02*
X153111819Y-80859594D01*
X153111819Y-80859594D02*
X153111819Y-80478642D01*
X153111819Y-80478642D02*
X153159438Y-80383404D01*
X153159438Y-80383404D02*
X153207057Y-80335785D01*
X153207057Y-80335785D02*
X153302295Y-80288166D01*
X153302295Y-80288166D02*
X153445152Y-80288166D01*
X153445152Y-80288166D02*
X153540390Y-80335785D01*
X153540390Y-80335785D02*
X153588009Y-80383404D01*
X153588009Y-80383404D02*
X153635628Y-80478642D01*
X153635628Y-80478642D02*
X153635628Y-80859594D01*
X153207057Y-79907213D02*
X153159438Y-79859594D01*
X153159438Y-79859594D02*
X153111819Y-79764356D01*
X153111819Y-79764356D02*
X153111819Y-79526261D01*
X153111819Y-79526261D02*
X153159438Y-79431023D01*
X153159438Y-79431023D02*
X153207057Y-79383404D01*
X153207057Y-79383404D02*
X153302295Y-79335785D01*
X153302295Y-79335785D02*
X153397533Y-79335785D01*
X153397533Y-79335785D02*
X153540390Y-79383404D01*
X153540390Y-79383404D02*
X154111819Y-79954832D01*
X154111819Y-79954832D02*
X154111819Y-79335785D01*
X151534905Y-84105819D02*
X151534905Y-83105819D01*
X151534905Y-83105819D02*
X151773000Y-83105819D01*
X151773000Y-83105819D02*
X151915857Y-83153438D01*
X151915857Y-83153438D02*
X152011095Y-83248676D01*
X152011095Y-83248676D02*
X152058714Y-83343914D01*
X152058714Y-83343914D02*
X152106333Y-83534390D01*
X152106333Y-83534390D02*
X152106333Y-83677247D01*
X152106333Y-83677247D02*
X152058714Y-83867723D01*
X152058714Y-83867723D02*
X152011095Y-83962961D01*
X152011095Y-83962961D02*
X151915857Y-84058200D01*
X151915857Y-84058200D02*
X151773000Y-84105819D01*
X151773000Y-84105819D02*
X151534905Y-84105819D01*
X153058714Y-84105819D02*
X152487286Y-84105819D01*
X152773000Y-84105819D02*
X152773000Y-83105819D01*
X152773000Y-83105819D02*
X152677762Y-83248676D01*
X152677762Y-83248676D02*
X152582524Y-83343914D01*
X152582524Y-83343914D02*
X152487286Y-83391533D01*
X124529104Y-70564285D02*
X124529104Y-70088095D01*
X124814819Y-70659523D02*
X123814819Y-70326190D01*
X123814819Y-70326190D02*
X124814819Y-69992857D01*
X124814819Y-69135714D02*
X124814819Y-69707142D01*
X124814819Y-69421428D02*
X123814819Y-69421428D01*
X123814819Y-69421428D02*
X123957676Y-69516666D01*
X123957676Y-69516666D02*
X124052914Y-69611904D01*
X124052914Y-69611904D02*
X124100533Y-69707142D01*
X164454819Y-71111904D02*
X165264342Y-71111904D01*
X165264342Y-71111904D02*
X165359580Y-71064285D01*
X165359580Y-71064285D02*
X165407200Y-71016666D01*
X165407200Y-71016666D02*
X165454819Y-70921428D01*
X165454819Y-70921428D02*
X165454819Y-70730952D01*
X165454819Y-70730952D02*
X165407200Y-70635714D01*
X165407200Y-70635714D02*
X165359580Y-70588095D01*
X165359580Y-70588095D02*
X165264342Y-70540476D01*
X165264342Y-70540476D02*
X164454819Y-70540476D01*
X165407200Y-70111904D02*
X165454819Y-69969047D01*
X165454819Y-69969047D02*
X165454819Y-69730952D01*
X165454819Y-69730952D02*
X165407200Y-69635714D01*
X165407200Y-69635714D02*
X165359580Y-69588095D01*
X165359580Y-69588095D02*
X165264342Y-69540476D01*
X165264342Y-69540476D02*
X165169104Y-69540476D01*
X165169104Y-69540476D02*
X165073866Y-69588095D01*
X165073866Y-69588095D02*
X165026247Y-69635714D01*
X165026247Y-69635714D02*
X164978628Y-69730952D01*
X164978628Y-69730952D02*
X164931009Y-69921428D01*
X164931009Y-69921428D02*
X164883390Y-70016666D01*
X164883390Y-70016666D02*
X164835771Y-70064285D01*
X164835771Y-70064285D02*
X164740533Y-70111904D01*
X164740533Y-70111904D02*
X164645295Y-70111904D01*
X164645295Y-70111904D02*
X164550057Y-70064285D01*
X164550057Y-70064285D02*
X164502438Y-70016666D01*
X164502438Y-70016666D02*
X164454819Y-69921428D01*
X164454819Y-69921428D02*
X164454819Y-69683333D01*
X164454819Y-69683333D02*
X164502438Y-69540476D01*
X164931009Y-68778571D02*
X164978628Y-68635714D01*
X164978628Y-68635714D02*
X165026247Y-68588095D01*
X165026247Y-68588095D02*
X165121485Y-68540476D01*
X165121485Y-68540476D02*
X165264342Y-68540476D01*
X165264342Y-68540476D02*
X165359580Y-68588095D01*
X165359580Y-68588095D02*
X165407200Y-68635714D01*
X165407200Y-68635714D02*
X165454819Y-68730952D01*
X165454819Y-68730952D02*
X165454819Y-69111904D01*
X165454819Y-69111904D02*
X164454819Y-69111904D01*
X164454819Y-69111904D02*
X164454819Y-68778571D01*
X164454819Y-68778571D02*
X164502438Y-68683333D01*
X164502438Y-68683333D02*
X164550057Y-68635714D01*
X164550057Y-68635714D02*
X164645295Y-68588095D01*
X164645295Y-68588095D02*
X164740533Y-68588095D01*
X164740533Y-68588095D02*
X164835771Y-68635714D01*
X164835771Y-68635714D02*
X164883390Y-68683333D01*
X164883390Y-68683333D02*
X164931009Y-68778571D01*
X164931009Y-68778571D02*
X164931009Y-69111904D01*
X143914905Y-95958819D02*
X143914905Y-94958819D01*
X143914905Y-94958819D02*
X144153000Y-94958819D01*
X144153000Y-94958819D02*
X144295857Y-95006438D01*
X144295857Y-95006438D02*
X144391095Y-95101676D01*
X144391095Y-95101676D02*
X144438714Y-95196914D01*
X144438714Y-95196914D02*
X144486333Y-95387390D01*
X144486333Y-95387390D02*
X144486333Y-95530247D01*
X144486333Y-95530247D02*
X144438714Y-95720723D01*
X144438714Y-95720723D02*
X144391095Y-95815961D01*
X144391095Y-95815961D02*
X144295857Y-95911200D01*
X144295857Y-95911200D02*
X144153000Y-95958819D01*
X144153000Y-95958819D02*
X143914905Y-95958819D01*
X145343476Y-94958819D02*
X145153000Y-94958819D01*
X145153000Y-94958819D02*
X145057762Y-95006438D01*
X145057762Y-95006438D02*
X145010143Y-95054057D01*
X145010143Y-95054057D02*
X144914905Y-95196914D01*
X144914905Y-95196914D02*
X144867286Y-95387390D01*
X144867286Y-95387390D02*
X144867286Y-95768342D01*
X144867286Y-95768342D02*
X144914905Y-95863580D01*
X144914905Y-95863580D02*
X144962524Y-95911200D01*
X144962524Y-95911200D02*
X145057762Y-95958819D01*
X145057762Y-95958819D02*
X145248238Y-95958819D01*
X145248238Y-95958819D02*
X145343476Y-95911200D01*
X145343476Y-95911200D02*
X145391095Y-95863580D01*
X145391095Y-95863580D02*
X145438714Y-95768342D01*
X145438714Y-95768342D02*
X145438714Y-95530247D01*
X145438714Y-95530247D02*
X145391095Y-95435009D01*
X145391095Y-95435009D02*
X145343476Y-95387390D01*
X145343476Y-95387390D02*
X145248238Y-95339771D01*
X145248238Y-95339771D02*
X145057762Y-95339771D01*
X145057762Y-95339771D02*
X144962524Y-95387390D01*
X144962524Y-95387390D02*
X144914905Y-95435009D01*
X144914905Y-95435009D02*
X144867286Y-95530247D01*
X134453333Y-64621580D02*
X134405714Y-64669200D01*
X134405714Y-64669200D02*
X134262857Y-64716819D01*
X134262857Y-64716819D02*
X134167619Y-64716819D01*
X134167619Y-64716819D02*
X134024762Y-64669200D01*
X134024762Y-64669200D02*
X133929524Y-64573961D01*
X133929524Y-64573961D02*
X133881905Y-64478723D01*
X133881905Y-64478723D02*
X133834286Y-64288247D01*
X133834286Y-64288247D02*
X133834286Y-64145390D01*
X133834286Y-64145390D02*
X133881905Y-63954914D01*
X133881905Y-63954914D02*
X133929524Y-63859676D01*
X133929524Y-63859676D02*
X134024762Y-63764438D01*
X134024762Y-63764438D02*
X134167619Y-63716819D01*
X134167619Y-63716819D02*
X134262857Y-63716819D01*
X134262857Y-63716819D02*
X134405714Y-63764438D01*
X134405714Y-63764438D02*
X134453333Y-63812057D01*
X135405714Y-64716819D02*
X134834286Y-64716819D01*
X135120000Y-64716819D02*
X135120000Y-63716819D01*
X135120000Y-63716819D02*
X135024762Y-63859676D01*
X135024762Y-63859676D02*
X134929524Y-63954914D01*
X134929524Y-63954914D02*
X134834286Y-64002533D01*
X156664819Y-80288166D02*
X156188628Y-80621499D01*
X156664819Y-80859594D02*
X155664819Y-80859594D01*
X155664819Y-80859594D02*
X155664819Y-80478642D01*
X155664819Y-80478642D02*
X155712438Y-80383404D01*
X155712438Y-80383404D02*
X155760057Y-80335785D01*
X155760057Y-80335785D02*
X155855295Y-80288166D01*
X155855295Y-80288166D02*
X155998152Y-80288166D01*
X155998152Y-80288166D02*
X156093390Y-80335785D01*
X156093390Y-80335785D02*
X156141009Y-80383404D01*
X156141009Y-80383404D02*
X156188628Y-80478642D01*
X156188628Y-80478642D02*
X156188628Y-80859594D01*
X155664819Y-79954832D02*
X155664819Y-79335785D01*
X155664819Y-79335785D02*
X156045771Y-79669118D01*
X156045771Y-79669118D02*
X156045771Y-79526261D01*
X156045771Y-79526261D02*
X156093390Y-79431023D01*
X156093390Y-79431023D02*
X156141009Y-79383404D01*
X156141009Y-79383404D02*
X156236247Y-79335785D01*
X156236247Y-79335785D02*
X156474342Y-79335785D01*
X156474342Y-79335785D02*
X156569580Y-79383404D01*
X156569580Y-79383404D02*
X156617200Y-79431023D01*
X156617200Y-79431023D02*
X156664819Y-79526261D01*
X156664819Y-79526261D02*
X156664819Y-79811975D01*
X156664819Y-79811975D02*
X156617200Y-79907213D01*
X156617200Y-79907213D02*
X156569580Y-79954832D01*
X125296666Y-94044819D02*
X125296666Y-94759104D01*
X125296666Y-94759104D02*
X125249047Y-94901961D01*
X125249047Y-94901961D02*
X125153809Y-94997200D01*
X125153809Y-94997200D02*
X125010952Y-95044819D01*
X125010952Y-95044819D02*
X124915714Y-95044819D01*
X126201428Y-94378152D02*
X126201428Y-95044819D01*
X125963333Y-93997200D02*
X125725238Y-94711485D01*
X125725238Y-94711485D02*
X126344285Y-94711485D01*
D11*
X127203884Y-87096466D02*
X127965789Y-87096466D01*
X127584836Y-87477419D02*
X127584836Y-86715514D01*
X128918169Y-86477419D02*
X128441979Y-86477419D01*
X128441979Y-86477419D02*
X128394360Y-86953609D01*
X128394360Y-86953609D02*
X128441979Y-86905990D01*
X128441979Y-86905990D02*
X128537217Y-86858371D01*
X128537217Y-86858371D02*
X128775312Y-86858371D01*
X128775312Y-86858371D02*
X128870550Y-86905990D01*
X128870550Y-86905990D02*
X128918169Y-86953609D01*
X128918169Y-86953609D02*
X128965788Y-87048847D01*
X128965788Y-87048847D02*
X128965788Y-87286942D01*
X128965788Y-87286942D02*
X128918169Y-87382180D01*
X128918169Y-87382180D02*
X128870550Y-87429800D01*
X128870550Y-87429800D02*
X128775312Y-87477419D01*
X128775312Y-87477419D02*
X128537217Y-87477419D01*
X128537217Y-87477419D02*
X128441979Y-87429800D01*
X128441979Y-87429800D02*
X128394360Y-87382180D01*
X129251503Y-86477419D02*
X129584836Y-87477419D01*
X129584836Y-87477419D02*
X129918169Y-86477419D01*
X127203884Y-84937419D02*
X127203884Y-83937419D01*
X127203884Y-83937419D02*
X127584836Y-83937419D01*
X127584836Y-83937419D02*
X127680074Y-83985038D01*
X127680074Y-83985038D02*
X127727693Y-84032657D01*
X127727693Y-84032657D02*
X127775312Y-84127895D01*
X127775312Y-84127895D02*
X127775312Y-84270752D01*
X127775312Y-84270752D02*
X127727693Y-84365990D01*
X127727693Y-84365990D02*
X127680074Y-84413609D01*
X127680074Y-84413609D02*
X127584836Y-84461228D01*
X127584836Y-84461228D02*
X127203884Y-84461228D01*
X128775312Y-84842180D02*
X128727693Y-84889800D01*
X128727693Y-84889800D02*
X128584836Y-84937419D01*
X128584836Y-84937419D02*
X128489598Y-84937419D01*
X128489598Y-84937419D02*
X128346741Y-84889800D01*
X128346741Y-84889800D02*
X128251503Y-84794561D01*
X128251503Y-84794561D02*
X128203884Y-84699323D01*
X128203884Y-84699323D02*
X128156265Y-84508847D01*
X128156265Y-84508847D02*
X128156265Y-84365990D01*
X128156265Y-84365990D02*
X128203884Y-84175514D01*
X128203884Y-84175514D02*
X128251503Y-84080276D01*
X128251503Y-84080276D02*
X128346741Y-83985038D01*
X128346741Y-83985038D02*
X128489598Y-83937419D01*
X128489598Y-83937419D02*
X128584836Y-83937419D01*
X128584836Y-83937419D02*
X128727693Y-83985038D01*
X128727693Y-83985038D02*
X128775312Y-84032657D01*
X129680074Y-84937419D02*
X129203884Y-84937419D01*
X129203884Y-84937419D02*
X129203884Y-83937419D01*
X130013408Y-84937419D02*
X130013408Y-83937419D01*
X130584836Y-84937419D02*
X130156265Y-84365990D01*
X130584836Y-83937419D02*
X130013408Y-84508847D01*
X127444038Y-89977306D02*
X127396419Y-90072544D01*
X127396419Y-90072544D02*
X127396419Y-90215401D01*
X127396419Y-90215401D02*
X127444038Y-90358258D01*
X127444038Y-90358258D02*
X127539276Y-90453496D01*
X127539276Y-90453496D02*
X127634514Y-90501115D01*
X127634514Y-90501115D02*
X127824990Y-90548734D01*
X127824990Y-90548734D02*
X127967847Y-90548734D01*
X127967847Y-90548734D02*
X128158323Y-90501115D01*
X128158323Y-90501115D02*
X128253561Y-90453496D01*
X128253561Y-90453496D02*
X128348800Y-90358258D01*
X128348800Y-90358258D02*
X128396419Y-90215401D01*
X128396419Y-90215401D02*
X128396419Y-90120163D01*
X128396419Y-90120163D02*
X128348800Y-89977306D01*
X128348800Y-89977306D02*
X128301180Y-89929687D01*
X128301180Y-89929687D02*
X127967847Y-89929687D01*
X127967847Y-89929687D02*
X127967847Y-90120163D01*
X128396419Y-89501115D02*
X127396419Y-89501115D01*
X127396419Y-89501115D02*
X128396419Y-88929687D01*
X128396419Y-88929687D02*
X127396419Y-88929687D01*
X128396419Y-88453496D02*
X127396419Y-88453496D01*
X127396419Y-88453496D02*
X127396419Y-88215401D01*
X127396419Y-88215401D02*
X127444038Y-88072544D01*
X127444038Y-88072544D02*
X127539276Y-87977306D01*
X127539276Y-87977306D02*
X127634514Y-87929687D01*
X127634514Y-87929687D02*
X127824990Y-87882068D01*
X127824990Y-87882068D02*
X127967847Y-87882068D01*
X127967847Y-87882068D02*
X128158323Y-87929687D01*
X128158323Y-87929687D02*
X128253561Y-87977306D01*
X128253561Y-87977306D02*
X128348800Y-88072544D01*
X128348800Y-88072544D02*
X128396419Y-88215401D01*
X128396419Y-88215401D02*
X128396419Y-88453496D01*
X128348800Y-93342734D02*
X128396419Y-93199877D01*
X128396419Y-93199877D02*
X128396419Y-92961782D01*
X128396419Y-92961782D02*
X128348800Y-92866544D01*
X128348800Y-92866544D02*
X128301180Y-92818925D01*
X128301180Y-92818925D02*
X128205942Y-92771306D01*
X128205942Y-92771306D02*
X128110704Y-92771306D01*
X128110704Y-92771306D02*
X128015466Y-92818925D01*
X128015466Y-92818925D02*
X127967847Y-92866544D01*
X127967847Y-92866544D02*
X127920228Y-92961782D01*
X127920228Y-92961782D02*
X127872609Y-93152258D01*
X127872609Y-93152258D02*
X127824990Y-93247496D01*
X127824990Y-93247496D02*
X127777371Y-93295115D01*
X127777371Y-93295115D02*
X127682133Y-93342734D01*
X127682133Y-93342734D02*
X127586895Y-93342734D01*
X127586895Y-93342734D02*
X127491657Y-93295115D01*
X127491657Y-93295115D02*
X127444038Y-93247496D01*
X127444038Y-93247496D02*
X127396419Y-93152258D01*
X127396419Y-93152258D02*
X127396419Y-92914163D01*
X127396419Y-92914163D02*
X127444038Y-92771306D01*
X128396419Y-92342734D02*
X127396419Y-92342734D01*
X128396419Y-91866544D02*
X127396419Y-91866544D01*
X127396419Y-91866544D02*
X128396419Y-91295116D01*
X128396419Y-91295116D02*
X127396419Y-91295116D01*
X127156265Y-82349800D02*
X127299122Y-82397419D01*
X127299122Y-82397419D02*
X127537217Y-82397419D01*
X127537217Y-82397419D02*
X127632455Y-82349800D01*
X127632455Y-82349800D02*
X127680074Y-82302180D01*
X127680074Y-82302180D02*
X127727693Y-82206942D01*
X127727693Y-82206942D02*
X127727693Y-82111704D01*
X127727693Y-82111704D02*
X127680074Y-82016466D01*
X127680074Y-82016466D02*
X127632455Y-81968847D01*
X127632455Y-81968847D02*
X127537217Y-81921228D01*
X127537217Y-81921228D02*
X127346741Y-81873609D01*
X127346741Y-81873609D02*
X127251503Y-81825990D01*
X127251503Y-81825990D02*
X127203884Y-81778371D01*
X127203884Y-81778371D02*
X127156265Y-81683133D01*
X127156265Y-81683133D02*
X127156265Y-81587895D01*
X127156265Y-81587895D02*
X127203884Y-81492657D01*
X127203884Y-81492657D02*
X127251503Y-81445038D01*
X127251503Y-81445038D02*
X127346741Y-81397419D01*
X127346741Y-81397419D02*
X127584836Y-81397419D01*
X127584836Y-81397419D02*
X127727693Y-81445038D01*
X128727693Y-82302180D02*
X128680074Y-82349800D01*
X128680074Y-82349800D02*
X128537217Y-82397419D01*
X128537217Y-82397419D02*
X128441979Y-82397419D01*
X128441979Y-82397419D02*
X128299122Y-82349800D01*
X128299122Y-82349800D02*
X128203884Y-82254561D01*
X128203884Y-82254561D02*
X128156265Y-82159323D01*
X128156265Y-82159323D02*
X128108646Y-81968847D01*
X128108646Y-81968847D02*
X128108646Y-81825990D01*
X128108646Y-81825990D02*
X128156265Y-81635514D01*
X128156265Y-81635514D02*
X128203884Y-81540276D01*
X128203884Y-81540276D02*
X128299122Y-81445038D01*
X128299122Y-81445038D02*
X128441979Y-81397419D01*
X128441979Y-81397419D02*
X128537217Y-81397419D01*
X128537217Y-81397419D02*
X128680074Y-81445038D01*
X128680074Y-81445038D02*
X128727693Y-81492657D01*
X129632455Y-82397419D02*
X129156265Y-82397419D01*
X129156265Y-82397419D02*
X129156265Y-81397419D01*
X129965789Y-82397419D02*
X129965789Y-81397419D01*
X130537217Y-82397419D02*
X130108646Y-81825990D01*
X130537217Y-81397419D02*
X129965789Y-81968847D01*
D10*
X156614905Y-84105819D02*
X156614905Y-83105819D01*
X156614905Y-83105819D02*
X156853000Y-83105819D01*
X156853000Y-83105819D02*
X156995857Y-83153438D01*
X156995857Y-83153438D02*
X157091095Y-83248676D01*
X157091095Y-83248676D02*
X157138714Y-83343914D01*
X157138714Y-83343914D02*
X157186333Y-83534390D01*
X157186333Y-83534390D02*
X157186333Y-83677247D01*
X157186333Y-83677247D02*
X157138714Y-83867723D01*
X157138714Y-83867723D02*
X157091095Y-83962961D01*
X157091095Y-83962961D02*
X156995857Y-84058200D01*
X156995857Y-84058200D02*
X156853000Y-84105819D01*
X156853000Y-84105819D02*
X156614905Y-84105819D01*
X157519667Y-83105819D02*
X158138714Y-83105819D01*
X158138714Y-83105819D02*
X157805381Y-83486771D01*
X157805381Y-83486771D02*
X157948238Y-83486771D01*
X157948238Y-83486771D02*
X158043476Y-83534390D01*
X158043476Y-83534390D02*
X158091095Y-83582009D01*
X158091095Y-83582009D02*
X158138714Y-83677247D01*
X158138714Y-83677247D02*
X158138714Y-83915342D01*
X158138714Y-83915342D02*
X158091095Y-84010580D01*
X158091095Y-84010580D02*
X158043476Y-84058200D01*
X158043476Y-84058200D02*
X157948238Y-84105819D01*
X157948238Y-84105819D02*
X157662524Y-84105819D01*
X157662524Y-84105819D02*
X157567286Y-84058200D01*
X157567286Y-84058200D02*
X157519667Y-84010580D01*
X154061905Y-84105819D02*
X154061905Y-83105819D01*
X154061905Y-83105819D02*
X154300000Y-83105819D01*
X154300000Y-83105819D02*
X154442857Y-83153438D01*
X154442857Y-83153438D02*
X154538095Y-83248676D01*
X154538095Y-83248676D02*
X154585714Y-83343914D01*
X154585714Y-83343914D02*
X154633333Y-83534390D01*
X154633333Y-83534390D02*
X154633333Y-83677247D01*
X154633333Y-83677247D02*
X154585714Y-83867723D01*
X154585714Y-83867723D02*
X154538095Y-83962961D01*
X154538095Y-83962961D02*
X154442857Y-84058200D01*
X154442857Y-84058200D02*
X154300000Y-84105819D01*
X154300000Y-84105819D02*
X154061905Y-84105819D01*
X155014286Y-83201057D02*
X155061905Y-83153438D01*
X155061905Y-83153438D02*
X155157143Y-83105819D01*
X155157143Y-83105819D02*
X155395238Y-83105819D01*
X155395238Y-83105819D02*
X155490476Y-83153438D01*
X155490476Y-83153438D02*
X155538095Y-83201057D01*
X155538095Y-83201057D02*
X155585714Y-83296295D01*
X155585714Y-83296295D02*
X155585714Y-83391533D01*
X155585714Y-83391533D02*
X155538095Y-83534390D01*
X155538095Y-83534390D02*
X154966667Y-84105819D01*
X154966667Y-84105819D02*
X155585714Y-84105819D01*
X164385666Y-83528819D02*
X164385666Y-84243104D01*
X164385666Y-84243104D02*
X164338047Y-84385961D01*
X164338047Y-84385961D02*
X164242809Y-84481200D01*
X164242809Y-84481200D02*
X164099952Y-84528819D01*
X164099952Y-84528819D02*
X164004714Y-84528819D01*
X165338047Y-83528819D02*
X164861857Y-83528819D01*
X164861857Y-83528819D02*
X164814238Y-84005009D01*
X164814238Y-84005009D02*
X164861857Y-83957390D01*
X164861857Y-83957390D02*
X164957095Y-83909771D01*
X164957095Y-83909771D02*
X165195190Y-83909771D01*
X165195190Y-83909771D02*
X165290428Y-83957390D01*
X165290428Y-83957390D02*
X165338047Y-84005009D01*
X165338047Y-84005009D02*
X165385666Y-84100247D01*
X165385666Y-84100247D02*
X165385666Y-84338342D01*
X165385666Y-84338342D02*
X165338047Y-84433580D01*
X165338047Y-84433580D02*
X165290428Y-84481200D01*
X165290428Y-84481200D02*
X165195190Y-84528819D01*
X165195190Y-84528819D02*
X164957095Y-84528819D01*
X164957095Y-84528819D02*
X164861857Y-84481200D01*
X164861857Y-84481200D02*
X164814238Y-84433580D01*
X172386666Y-93942819D02*
X172386666Y-94657104D01*
X172386666Y-94657104D02*
X172339047Y-94799961D01*
X172339047Y-94799961D02*
X172243809Y-94895200D01*
X172243809Y-94895200D02*
X172100952Y-94942819D01*
X172100952Y-94942819D02*
X172005714Y-94942819D01*
X172767619Y-93942819D02*
X173386666Y-93942819D01*
X173386666Y-93942819D02*
X173053333Y-94323771D01*
X173053333Y-94323771D02*
X173196190Y-94323771D01*
X173196190Y-94323771D02*
X173291428Y-94371390D01*
X173291428Y-94371390D02*
X173339047Y-94419009D01*
X173339047Y-94419009D02*
X173386666Y-94514247D01*
X173386666Y-94514247D02*
X173386666Y-94752342D01*
X173386666Y-94752342D02*
X173339047Y-94847580D01*
X173339047Y-94847580D02*
X173291428Y-94895200D01*
X173291428Y-94895200D02*
X173196190Y-94942819D01*
X173196190Y-94942819D02*
X172910476Y-94942819D01*
X172910476Y-94942819D02*
X172815238Y-94895200D01*
X172815238Y-94895200D02*
X172767619Y-94847580D01*
D11*
X169164533Y-85201286D02*
X169164533Y-85963191D01*
X168783580Y-85582238D02*
X169545485Y-85582238D01*
X169783580Y-86915571D02*
X169783580Y-86439381D01*
X169783580Y-86439381D02*
X169307390Y-86391762D01*
X169307390Y-86391762D02*
X169355009Y-86439381D01*
X169355009Y-86439381D02*
X169402628Y-86534619D01*
X169402628Y-86534619D02*
X169402628Y-86772714D01*
X169402628Y-86772714D02*
X169355009Y-86867952D01*
X169355009Y-86867952D02*
X169307390Y-86915571D01*
X169307390Y-86915571D02*
X169212152Y-86963190D01*
X169212152Y-86963190D02*
X168974057Y-86963190D01*
X168974057Y-86963190D02*
X168878819Y-86915571D01*
X168878819Y-86915571D02*
X168831200Y-86867952D01*
X168831200Y-86867952D02*
X168783580Y-86772714D01*
X168783580Y-86772714D02*
X168783580Y-86534619D01*
X168783580Y-86534619D02*
X168831200Y-86439381D01*
X168831200Y-86439381D02*
X168878819Y-86391762D01*
X169783580Y-87248905D02*
X168783580Y-87582238D01*
X168783580Y-87582238D02*
X169783580Y-87915571D01*
X170736200Y-77091265D02*
X170688580Y-77234122D01*
X170688580Y-77234122D02*
X170688580Y-77472217D01*
X170688580Y-77472217D02*
X170736200Y-77567455D01*
X170736200Y-77567455D02*
X170783819Y-77615074D01*
X170783819Y-77615074D02*
X170879057Y-77662693D01*
X170879057Y-77662693D02*
X170974295Y-77662693D01*
X170974295Y-77662693D02*
X171069533Y-77615074D01*
X171069533Y-77615074D02*
X171117152Y-77567455D01*
X171117152Y-77567455D02*
X171164771Y-77472217D01*
X171164771Y-77472217D02*
X171212390Y-77281741D01*
X171212390Y-77281741D02*
X171260009Y-77186503D01*
X171260009Y-77186503D02*
X171307628Y-77138884D01*
X171307628Y-77138884D02*
X171402866Y-77091265D01*
X171402866Y-77091265D02*
X171498104Y-77091265D01*
X171498104Y-77091265D02*
X171593342Y-77138884D01*
X171593342Y-77138884D02*
X171640961Y-77186503D01*
X171640961Y-77186503D02*
X171688580Y-77281741D01*
X171688580Y-77281741D02*
X171688580Y-77519836D01*
X171688580Y-77519836D02*
X171640961Y-77662693D01*
X170783819Y-78662693D02*
X170736200Y-78615074D01*
X170736200Y-78615074D02*
X170688580Y-78472217D01*
X170688580Y-78472217D02*
X170688580Y-78376979D01*
X170688580Y-78376979D02*
X170736200Y-78234122D01*
X170736200Y-78234122D02*
X170831438Y-78138884D01*
X170831438Y-78138884D02*
X170926676Y-78091265D01*
X170926676Y-78091265D02*
X171117152Y-78043646D01*
X171117152Y-78043646D02*
X171260009Y-78043646D01*
X171260009Y-78043646D02*
X171450485Y-78091265D01*
X171450485Y-78091265D02*
X171545723Y-78138884D01*
X171545723Y-78138884D02*
X171640961Y-78234122D01*
X171640961Y-78234122D02*
X171688580Y-78376979D01*
X171688580Y-78376979D02*
X171688580Y-78472217D01*
X171688580Y-78472217D02*
X171640961Y-78615074D01*
X171640961Y-78615074D02*
X171593342Y-78662693D01*
X170688580Y-79567455D02*
X170688580Y-79091265D01*
X170688580Y-79091265D02*
X171688580Y-79091265D01*
X170688580Y-79900789D02*
X171688580Y-79900789D01*
X170688580Y-80472217D02*
X171260009Y-80043646D01*
X171688580Y-80472217D02*
X171117152Y-79900789D01*
X168910580Y-81264333D02*
X169910580Y-81264333D01*
X169910580Y-81264333D02*
X169910580Y-81645285D01*
X169910580Y-81645285D02*
X169862961Y-81740523D01*
X169862961Y-81740523D02*
X169815342Y-81788142D01*
X169815342Y-81788142D02*
X169720104Y-81835761D01*
X169720104Y-81835761D02*
X169577247Y-81835761D01*
X169577247Y-81835761D02*
X169482009Y-81788142D01*
X169482009Y-81788142D02*
X169434390Y-81740523D01*
X169434390Y-81740523D02*
X169386771Y-81645285D01*
X169386771Y-81645285D02*
X169386771Y-81264333D01*
X169005819Y-82835761D02*
X168958200Y-82788142D01*
X168958200Y-82788142D02*
X168910580Y-82645285D01*
X168910580Y-82645285D02*
X168910580Y-82550047D01*
X168910580Y-82550047D02*
X168958200Y-82407190D01*
X168958200Y-82407190D02*
X169053438Y-82311952D01*
X169053438Y-82311952D02*
X169148676Y-82264333D01*
X169148676Y-82264333D02*
X169339152Y-82216714D01*
X169339152Y-82216714D02*
X169482009Y-82216714D01*
X169482009Y-82216714D02*
X169672485Y-82264333D01*
X169672485Y-82264333D02*
X169767723Y-82311952D01*
X169767723Y-82311952D02*
X169862961Y-82407190D01*
X169862961Y-82407190D02*
X169910580Y-82550047D01*
X169910580Y-82550047D02*
X169910580Y-82645285D01*
X169910580Y-82645285D02*
X169862961Y-82788142D01*
X169862961Y-82788142D02*
X169815342Y-82835761D01*
X168910580Y-83740523D02*
X168910580Y-83264333D01*
X168910580Y-83264333D02*
X169910580Y-83264333D01*
X168910580Y-84073857D02*
X169910580Y-84073857D01*
X168910580Y-84645285D02*
X169482009Y-84216714D01*
X169910580Y-84645285D02*
X169339152Y-84073857D01*
X169735961Y-89727693D02*
X169783580Y-89632455D01*
X169783580Y-89632455D02*
X169783580Y-89489598D01*
X169783580Y-89489598D02*
X169735961Y-89346741D01*
X169735961Y-89346741D02*
X169640723Y-89251503D01*
X169640723Y-89251503D02*
X169545485Y-89203884D01*
X169545485Y-89203884D02*
X169355009Y-89156265D01*
X169355009Y-89156265D02*
X169212152Y-89156265D01*
X169212152Y-89156265D02*
X169021676Y-89203884D01*
X169021676Y-89203884D02*
X168926438Y-89251503D01*
X168926438Y-89251503D02*
X168831200Y-89346741D01*
X168831200Y-89346741D02*
X168783580Y-89489598D01*
X168783580Y-89489598D02*
X168783580Y-89584836D01*
X168783580Y-89584836D02*
X168831200Y-89727693D01*
X168831200Y-89727693D02*
X168878819Y-89775312D01*
X168878819Y-89775312D02*
X169212152Y-89775312D01*
X169212152Y-89775312D02*
X169212152Y-89584836D01*
X168783580Y-90203884D02*
X169783580Y-90203884D01*
X169783580Y-90203884D02*
X168783580Y-90775312D01*
X168783580Y-90775312D02*
X169783580Y-90775312D01*
X168783580Y-91251503D02*
X169783580Y-91251503D01*
X169783580Y-91251503D02*
X169783580Y-91489598D01*
X169783580Y-91489598D02*
X169735961Y-91632455D01*
X169735961Y-91632455D02*
X169640723Y-91727693D01*
X169640723Y-91727693D02*
X169545485Y-91775312D01*
X169545485Y-91775312D02*
X169355009Y-91822931D01*
X169355009Y-91822931D02*
X169212152Y-91822931D01*
X169212152Y-91822931D02*
X169021676Y-91775312D01*
X169021676Y-91775312D02*
X168926438Y-91727693D01*
X168926438Y-91727693D02*
X168831200Y-91632455D01*
X168831200Y-91632455D02*
X168783580Y-91489598D01*
X168783580Y-91489598D02*
X168783580Y-91251503D01*
X168704200Y-93347265D02*
X168656580Y-93490122D01*
X168656580Y-93490122D02*
X168656580Y-93728217D01*
X168656580Y-93728217D02*
X168704200Y-93823455D01*
X168704200Y-93823455D02*
X168751819Y-93871074D01*
X168751819Y-93871074D02*
X168847057Y-93918693D01*
X168847057Y-93918693D02*
X168942295Y-93918693D01*
X168942295Y-93918693D02*
X169037533Y-93871074D01*
X169037533Y-93871074D02*
X169085152Y-93823455D01*
X169085152Y-93823455D02*
X169132771Y-93728217D01*
X169132771Y-93728217D02*
X169180390Y-93537741D01*
X169180390Y-93537741D02*
X169228009Y-93442503D01*
X169228009Y-93442503D02*
X169275628Y-93394884D01*
X169275628Y-93394884D02*
X169370866Y-93347265D01*
X169370866Y-93347265D02*
X169466104Y-93347265D01*
X169466104Y-93347265D02*
X169561342Y-93394884D01*
X169561342Y-93394884D02*
X169608961Y-93442503D01*
X169608961Y-93442503D02*
X169656580Y-93537741D01*
X169656580Y-93537741D02*
X169656580Y-93775836D01*
X169656580Y-93775836D02*
X169608961Y-93918693D01*
X169656580Y-94537741D02*
X169656580Y-94728217D01*
X169656580Y-94728217D02*
X169608961Y-94823455D01*
X169608961Y-94823455D02*
X169513723Y-94918693D01*
X169513723Y-94918693D02*
X169323247Y-94966312D01*
X169323247Y-94966312D02*
X168989914Y-94966312D01*
X168989914Y-94966312D02*
X168799438Y-94918693D01*
X168799438Y-94918693D02*
X168704200Y-94823455D01*
X168704200Y-94823455D02*
X168656580Y-94728217D01*
X168656580Y-94728217D02*
X168656580Y-94537741D01*
X168656580Y-94537741D02*
X168704200Y-94442503D01*
X168704200Y-94442503D02*
X168799438Y-94347265D01*
X168799438Y-94347265D02*
X168989914Y-94299646D01*
X168989914Y-94299646D02*
X169323247Y-94299646D01*
X169323247Y-94299646D02*
X169513723Y-94347265D01*
X169513723Y-94347265D02*
X169608961Y-94442503D01*
X169608961Y-94442503D02*
X169656580Y-94537741D01*
X169656580Y-95394884D02*
X168847057Y-95394884D01*
X168847057Y-95394884D02*
X168751819Y-95442503D01*
X168751819Y-95442503D02*
X168704200Y-95490122D01*
X168704200Y-95490122D02*
X168656580Y-95585360D01*
X168656580Y-95585360D02*
X168656580Y-95775836D01*
X168656580Y-95775836D02*
X168704200Y-95871074D01*
X168704200Y-95871074D02*
X168751819Y-95918693D01*
X168751819Y-95918693D02*
X168847057Y-95966312D01*
X168847057Y-95966312D02*
X169656580Y-95966312D01*
X169656580Y-96299646D02*
X169656580Y-96871074D01*
X168656580Y-96585360D02*
X169656580Y-96585360D01*
D10*
X151584819Y-80288166D02*
X151108628Y-80621499D01*
X151584819Y-80859594D02*
X150584819Y-80859594D01*
X150584819Y-80859594D02*
X150584819Y-80478642D01*
X150584819Y-80478642D02*
X150632438Y-80383404D01*
X150632438Y-80383404D02*
X150680057Y-80335785D01*
X150680057Y-80335785D02*
X150775295Y-80288166D01*
X150775295Y-80288166D02*
X150918152Y-80288166D01*
X150918152Y-80288166D02*
X151013390Y-80335785D01*
X151013390Y-80335785D02*
X151061009Y-80383404D01*
X151061009Y-80383404D02*
X151108628Y-80478642D01*
X151108628Y-80478642D02*
X151108628Y-80859594D01*
X151584819Y-79335785D02*
X151584819Y-79907213D01*
X151584819Y-79621499D02*
X150584819Y-79621499D01*
X150584819Y-79621499D02*
X150727676Y-79716737D01*
X150727676Y-79716737D02*
X150822914Y-79811975D01*
X150822914Y-79811975D02*
X150870533Y-79907213D01*
X137636476Y-120596819D02*
X137636476Y-119596819D01*
X137636476Y-119596819D02*
X137969809Y-120311104D01*
X137969809Y-120311104D02*
X138303142Y-119596819D01*
X138303142Y-119596819D02*
X138303142Y-120596819D01*
X138779333Y-119596819D02*
X138779333Y-120406342D01*
X138779333Y-120406342D02*
X138826952Y-120501580D01*
X138826952Y-120501580D02*
X138874571Y-120549200D01*
X138874571Y-120549200D02*
X138969809Y-120596819D01*
X138969809Y-120596819D02*
X139160285Y-120596819D01*
X139160285Y-120596819D02*
X139255523Y-120549200D01*
X139255523Y-120549200D02*
X139303142Y-120501580D01*
X139303142Y-120501580D02*
X139350761Y-120406342D01*
X139350761Y-120406342D02*
X139350761Y-119596819D01*
X139731714Y-119596819D02*
X140398380Y-120596819D01*
X140398380Y-119596819D02*
X139731714Y-120596819D01*
X141303142Y-120596819D02*
X140731714Y-120596819D01*
X141017428Y-120596819D02*
X141017428Y-119596819D01*
X141017428Y-119596819D02*
X140922190Y-119739676D01*
X140922190Y-119739676D02*
X140826952Y-119834914D01*
X140826952Y-119834914D02*
X140731714Y-119882533D01*
X149187819Y-83391333D02*
X149902104Y-83391333D01*
X149902104Y-83391333D02*
X150044961Y-83438952D01*
X150044961Y-83438952D02*
X150140200Y-83534190D01*
X150140200Y-83534190D02*
X150187819Y-83677047D01*
X150187819Y-83677047D02*
X150187819Y-83772285D01*
X149187819Y-83010380D02*
X149187819Y-82343714D01*
X149187819Y-82343714D02*
X150187819Y-82772285D01*
X161744819Y-80288166D02*
X161268628Y-80621499D01*
X161744819Y-80859594D02*
X160744819Y-80859594D01*
X160744819Y-80859594D02*
X160744819Y-80478642D01*
X160744819Y-80478642D02*
X160792438Y-80383404D01*
X160792438Y-80383404D02*
X160840057Y-80335785D01*
X160840057Y-80335785D02*
X160935295Y-80288166D01*
X160935295Y-80288166D02*
X161078152Y-80288166D01*
X161078152Y-80288166D02*
X161173390Y-80335785D01*
X161173390Y-80335785D02*
X161221009Y-80383404D01*
X161221009Y-80383404D02*
X161268628Y-80478642D01*
X161268628Y-80478642D02*
X161268628Y-80859594D01*
X160744819Y-79383404D02*
X160744819Y-79859594D01*
X160744819Y-79859594D02*
X161221009Y-79907213D01*
X161221009Y-79907213D02*
X161173390Y-79859594D01*
X161173390Y-79859594D02*
X161125771Y-79764356D01*
X161125771Y-79764356D02*
X161125771Y-79526261D01*
X161125771Y-79526261D02*
X161173390Y-79431023D01*
X161173390Y-79431023D02*
X161221009Y-79383404D01*
X161221009Y-79383404D02*
X161316247Y-79335785D01*
X161316247Y-79335785D02*
X161554342Y-79335785D01*
X161554342Y-79335785D02*
X161649580Y-79383404D01*
X161649580Y-79383404D02*
X161697200Y-79431023D01*
X161697200Y-79431023D02*
X161744819Y-79526261D01*
X161744819Y-79526261D02*
X161744819Y-79764356D01*
X161744819Y-79764356D02*
X161697200Y-79859594D01*
X161697200Y-79859594D02*
X161649580Y-79907213D01*
X159204819Y-80288166D02*
X158728628Y-80621499D01*
X159204819Y-80859594D02*
X158204819Y-80859594D01*
X158204819Y-80859594D02*
X158204819Y-80478642D01*
X158204819Y-80478642D02*
X158252438Y-80383404D01*
X158252438Y-80383404D02*
X158300057Y-80335785D01*
X158300057Y-80335785D02*
X158395295Y-80288166D01*
X158395295Y-80288166D02*
X158538152Y-80288166D01*
X158538152Y-80288166D02*
X158633390Y-80335785D01*
X158633390Y-80335785D02*
X158681009Y-80383404D01*
X158681009Y-80383404D02*
X158728628Y-80478642D01*
X158728628Y-80478642D02*
X158728628Y-80859594D01*
X158538152Y-79431023D02*
X159204819Y-79431023D01*
X158157200Y-79669118D02*
X158871485Y-79907213D01*
X158871485Y-79907213D02*
X158871485Y-79288166D01*
X161694905Y-84103819D02*
X161694905Y-83103819D01*
X161694905Y-83103819D02*
X161933000Y-83103819D01*
X161933000Y-83103819D02*
X162075857Y-83151438D01*
X162075857Y-83151438D02*
X162171095Y-83246676D01*
X162171095Y-83246676D02*
X162218714Y-83341914D01*
X162218714Y-83341914D02*
X162266333Y-83532390D01*
X162266333Y-83532390D02*
X162266333Y-83675247D01*
X162266333Y-83675247D02*
X162218714Y-83865723D01*
X162218714Y-83865723D02*
X162171095Y-83960961D01*
X162171095Y-83960961D02*
X162075857Y-84056200D01*
X162075857Y-84056200D02*
X161933000Y-84103819D01*
X161933000Y-84103819D02*
X161694905Y-84103819D01*
X163171095Y-83103819D02*
X162694905Y-83103819D01*
X162694905Y-83103819D02*
X162647286Y-83580009D01*
X162647286Y-83580009D02*
X162694905Y-83532390D01*
X162694905Y-83532390D02*
X162790143Y-83484771D01*
X162790143Y-83484771D02*
X163028238Y-83484771D01*
X163028238Y-83484771D02*
X163123476Y-83532390D01*
X163123476Y-83532390D02*
X163171095Y-83580009D01*
X163171095Y-83580009D02*
X163218714Y-83675247D01*
X163218714Y-83675247D02*
X163218714Y-83913342D01*
X163218714Y-83913342D02*
X163171095Y-84008580D01*
X163171095Y-84008580D02*
X163123476Y-84056200D01*
X163123476Y-84056200D02*
X163028238Y-84103819D01*
X163028238Y-84103819D02*
X162790143Y-84103819D01*
X162790143Y-84103819D02*
X162694905Y-84056200D01*
X162694905Y-84056200D02*
X162647286Y-84008580D01*
X144668333Y-100689580D02*
X144620714Y-100737200D01*
X144620714Y-100737200D02*
X144477857Y-100784819D01*
X144477857Y-100784819D02*
X144382619Y-100784819D01*
X144382619Y-100784819D02*
X144239762Y-100737200D01*
X144239762Y-100737200D02*
X144144524Y-100641961D01*
X144144524Y-100641961D02*
X144096905Y-100546723D01*
X144096905Y-100546723D02*
X144049286Y-100356247D01*
X144049286Y-100356247D02*
X144049286Y-100213390D01*
X144049286Y-100213390D02*
X144096905Y-100022914D01*
X144096905Y-100022914D02*
X144144524Y-99927676D01*
X144144524Y-99927676D02*
X144239762Y-99832438D01*
X144239762Y-99832438D02*
X144382619Y-99784819D01*
X144382619Y-99784819D02*
X144477857Y-99784819D01*
X144477857Y-99784819D02*
X144620714Y-99832438D01*
X144620714Y-99832438D02*
X144668333Y-99880057D01*
X145573095Y-99784819D02*
X145096905Y-99784819D01*
X145096905Y-99784819D02*
X145049286Y-100261009D01*
X145049286Y-100261009D02*
X145096905Y-100213390D01*
X145096905Y-100213390D02*
X145192143Y-100165771D01*
X145192143Y-100165771D02*
X145430238Y-100165771D01*
X145430238Y-100165771D02*
X145525476Y-100213390D01*
X145525476Y-100213390D02*
X145573095Y-100261009D01*
X145573095Y-100261009D02*
X145620714Y-100356247D01*
X145620714Y-100356247D02*
X145620714Y-100594342D01*
X145620714Y-100594342D02*
X145573095Y-100689580D01*
X145573095Y-100689580D02*
X145525476Y-100737200D01*
X145525476Y-100737200D02*
X145430238Y-100784819D01*
X145430238Y-100784819D02*
X145192143Y-100784819D01*
X145192143Y-100784819D02*
X145096905Y-100737200D01*
X145096905Y-100737200D02*
X145049286Y-100689580D01*
X157262533Y-86008380D02*
X157214914Y-86056000D01*
X157214914Y-86056000D02*
X157072057Y-86103619D01*
X157072057Y-86103619D02*
X156976819Y-86103619D01*
X156976819Y-86103619D02*
X156833962Y-86056000D01*
X156833962Y-86056000D02*
X156738724Y-85960761D01*
X156738724Y-85960761D02*
X156691105Y-85865523D01*
X156691105Y-85865523D02*
X156643486Y-85675047D01*
X156643486Y-85675047D02*
X156643486Y-85532190D01*
X156643486Y-85532190D02*
X156691105Y-85341714D01*
X156691105Y-85341714D02*
X156738724Y-85246476D01*
X156738724Y-85246476D02*
X156833962Y-85151238D01*
X156833962Y-85151238D02*
X156976819Y-85103619D01*
X156976819Y-85103619D02*
X157072057Y-85103619D01*
X157072057Y-85103619D02*
X157214914Y-85151238D01*
X157214914Y-85151238D02*
X157262533Y-85198857D01*
X157738724Y-86103619D02*
X157929200Y-86103619D01*
X157929200Y-86103619D02*
X158024438Y-86056000D01*
X158024438Y-86056000D02*
X158072057Y-86008380D01*
X158072057Y-86008380D02*
X158167295Y-85865523D01*
X158167295Y-85865523D02*
X158214914Y-85675047D01*
X158214914Y-85675047D02*
X158214914Y-85294095D01*
X158214914Y-85294095D02*
X158167295Y-85198857D01*
X158167295Y-85198857D02*
X158119676Y-85151238D01*
X158119676Y-85151238D02*
X158024438Y-85103619D01*
X158024438Y-85103619D02*
X157833962Y-85103619D01*
X157833962Y-85103619D02*
X157738724Y-85151238D01*
X157738724Y-85151238D02*
X157691105Y-85198857D01*
X157691105Y-85198857D02*
X157643486Y-85294095D01*
X157643486Y-85294095D02*
X157643486Y-85532190D01*
X157643486Y-85532190D02*
X157691105Y-85627428D01*
X157691105Y-85627428D02*
X157738724Y-85675047D01*
X157738724Y-85675047D02*
X157833962Y-85722666D01*
X157833962Y-85722666D02*
X158024438Y-85722666D01*
X158024438Y-85722666D02*
X158119676Y-85675047D01*
X158119676Y-85675047D02*
X158167295Y-85627428D01*
X158167295Y-85627428D02*
X158214914Y-85532190D01*
X151726333Y-100689580D02*
X151678714Y-100737200D01*
X151678714Y-100737200D02*
X151535857Y-100784819D01*
X151535857Y-100784819D02*
X151440619Y-100784819D01*
X151440619Y-100784819D02*
X151297762Y-100737200D01*
X151297762Y-100737200D02*
X151202524Y-100641961D01*
X151202524Y-100641961D02*
X151154905Y-100546723D01*
X151154905Y-100546723D02*
X151107286Y-100356247D01*
X151107286Y-100356247D02*
X151107286Y-100213390D01*
X151107286Y-100213390D02*
X151154905Y-100022914D01*
X151154905Y-100022914D02*
X151202524Y-99927676D01*
X151202524Y-99927676D02*
X151297762Y-99832438D01*
X151297762Y-99832438D02*
X151440619Y-99784819D01*
X151440619Y-99784819D02*
X151535857Y-99784819D01*
X151535857Y-99784819D02*
X151678714Y-99832438D01*
X151678714Y-99832438D02*
X151726333Y-99880057D01*
X152583476Y-100118152D02*
X152583476Y-100784819D01*
X152345381Y-99737200D02*
X152107286Y-100451485D01*
X152107286Y-100451485D02*
X152726333Y-100451485D01*
X145139580Y-68263666D02*
X145187200Y-68311285D01*
X145187200Y-68311285D02*
X145234819Y-68454142D01*
X145234819Y-68454142D02*
X145234819Y-68549380D01*
X145234819Y-68549380D02*
X145187200Y-68692237D01*
X145187200Y-68692237D02*
X145091961Y-68787475D01*
X145091961Y-68787475D02*
X144996723Y-68835094D01*
X144996723Y-68835094D02*
X144806247Y-68882713D01*
X144806247Y-68882713D02*
X144663390Y-68882713D01*
X144663390Y-68882713D02*
X144472914Y-68835094D01*
X144472914Y-68835094D02*
X144377676Y-68787475D01*
X144377676Y-68787475D02*
X144282438Y-68692237D01*
X144282438Y-68692237D02*
X144234819Y-68549380D01*
X144234819Y-68549380D02*
X144234819Y-68454142D01*
X144234819Y-68454142D02*
X144282438Y-68311285D01*
X144282438Y-68311285D02*
X144330057Y-68263666D01*
X144330057Y-67882713D02*
X144282438Y-67835094D01*
X144282438Y-67835094D02*
X144234819Y-67739856D01*
X144234819Y-67739856D02*
X144234819Y-67501761D01*
X144234819Y-67501761D02*
X144282438Y-67406523D01*
X144282438Y-67406523D02*
X144330057Y-67358904D01*
X144330057Y-67358904D02*
X144425295Y-67311285D01*
X144425295Y-67311285D02*
X144520533Y-67311285D01*
X144520533Y-67311285D02*
X144663390Y-67358904D01*
X144663390Y-67358904D02*
X145234819Y-67930332D01*
X145234819Y-67930332D02*
X145234819Y-67311285D01*
X147030905Y-95958819D02*
X147030905Y-94958819D01*
X147030905Y-94958819D02*
X147269000Y-94958819D01*
X147269000Y-94958819D02*
X147411857Y-95006438D01*
X147411857Y-95006438D02*
X147507095Y-95101676D01*
X147507095Y-95101676D02*
X147554714Y-95196914D01*
X147554714Y-95196914D02*
X147602333Y-95387390D01*
X147602333Y-95387390D02*
X147602333Y-95530247D01*
X147602333Y-95530247D02*
X147554714Y-95720723D01*
X147554714Y-95720723D02*
X147507095Y-95815961D01*
X147507095Y-95815961D02*
X147411857Y-95911200D01*
X147411857Y-95911200D02*
X147269000Y-95958819D01*
X147269000Y-95958819D02*
X147030905Y-95958819D01*
X147935667Y-94958819D02*
X148602333Y-94958819D01*
X148602333Y-94958819D02*
X148173762Y-95958819D01*
X170835666Y-139179819D02*
X170835666Y-139894104D01*
X170835666Y-139894104D02*
X170788047Y-140036961D01*
X170788047Y-140036961D02*
X170692809Y-140132200D01*
X170692809Y-140132200D02*
X170549952Y-140179819D01*
X170549952Y-140179819D02*
X170454714Y-140179819D01*
X171835666Y-140179819D02*
X171264238Y-140179819D01*
X171549952Y-140179819D02*
X171549952Y-139179819D01*
X171549952Y-139179819D02*
X171454714Y-139322676D01*
X171454714Y-139322676D02*
X171359476Y-139417914D01*
X171359476Y-139417914D02*
X171264238Y-139465533D01*
D11*
X167642265Y-113886704D02*
X168118455Y-113886704D01*
X167547027Y-114172419D02*
X167880360Y-113172419D01*
X167880360Y-113172419D02*
X168213693Y-114172419D01*
X168594646Y-114172419D02*
X168785122Y-114172419D01*
X168785122Y-114172419D02*
X168880360Y-114124800D01*
X168880360Y-114124800D02*
X168927979Y-114077180D01*
X168927979Y-114077180D02*
X169023217Y-113934323D01*
X169023217Y-113934323D02*
X169070836Y-113743847D01*
X169070836Y-113743847D02*
X169070836Y-113362895D01*
X169070836Y-113362895D02*
X169023217Y-113267657D01*
X169023217Y-113267657D02*
X168975598Y-113220038D01*
X168975598Y-113220038D02*
X168880360Y-113172419D01*
X168880360Y-113172419D02*
X168689884Y-113172419D01*
X168689884Y-113172419D02*
X168594646Y-113220038D01*
X168594646Y-113220038D02*
X168547027Y-113267657D01*
X168547027Y-113267657D02*
X168499408Y-113362895D01*
X168499408Y-113362895D02*
X168499408Y-113600990D01*
X168499408Y-113600990D02*
X168547027Y-113696228D01*
X168547027Y-113696228D02*
X168594646Y-113743847D01*
X168594646Y-113743847D02*
X168689884Y-113791466D01*
X168689884Y-113791466D02*
X168880360Y-113791466D01*
X168880360Y-113791466D02*
X168975598Y-113743847D01*
X168975598Y-113743847D02*
X169023217Y-113696228D01*
X169023217Y-113696228D02*
X169070836Y-113600990D01*
X167642265Y-121506704D02*
X168118455Y-121506704D01*
X167547027Y-121792419D02*
X167880360Y-120792419D01*
X167880360Y-120792419D02*
X168213693Y-121792419D01*
X168975598Y-120792419D02*
X168785122Y-120792419D01*
X168785122Y-120792419D02*
X168689884Y-120840038D01*
X168689884Y-120840038D02*
X168642265Y-120887657D01*
X168642265Y-120887657D02*
X168547027Y-121030514D01*
X168547027Y-121030514D02*
X168499408Y-121220990D01*
X168499408Y-121220990D02*
X168499408Y-121601942D01*
X168499408Y-121601942D02*
X168547027Y-121697180D01*
X168547027Y-121697180D02*
X168594646Y-121744800D01*
X168594646Y-121744800D02*
X168689884Y-121792419D01*
X168689884Y-121792419D02*
X168880360Y-121792419D01*
X168880360Y-121792419D02*
X168975598Y-121744800D01*
X168975598Y-121744800D02*
X169023217Y-121697180D01*
X169023217Y-121697180D02*
X169070836Y-121601942D01*
X169070836Y-121601942D02*
X169070836Y-121363847D01*
X169070836Y-121363847D02*
X169023217Y-121268609D01*
X169023217Y-121268609D02*
X168975598Y-121220990D01*
X168975598Y-121220990D02*
X168880360Y-121173371D01*
X168880360Y-121173371D02*
X168689884Y-121173371D01*
X168689884Y-121173371D02*
X168594646Y-121220990D01*
X168594646Y-121220990D02*
X168547027Y-121268609D01*
X168547027Y-121268609D02*
X168499408Y-121363847D01*
X167642265Y-106266704D02*
X168118455Y-106266704D01*
X167547027Y-106552419D02*
X167880360Y-105552419D01*
X167880360Y-105552419D02*
X168213693Y-106552419D01*
X169070836Y-106552419D02*
X168499408Y-106552419D01*
X168785122Y-106552419D02*
X168785122Y-105552419D01*
X168785122Y-105552419D02*
X168689884Y-105695276D01*
X168689884Y-105695276D02*
X168594646Y-105790514D01*
X168594646Y-105790514D02*
X168499408Y-105838133D01*
X169451789Y-105647657D02*
X169499408Y-105600038D01*
X169499408Y-105600038D02*
X169594646Y-105552419D01*
X169594646Y-105552419D02*
X169832741Y-105552419D01*
X169832741Y-105552419D02*
X169927979Y-105600038D01*
X169927979Y-105600038D02*
X169975598Y-105647657D01*
X169975598Y-105647657D02*
X170023217Y-105742895D01*
X170023217Y-105742895D02*
X170023217Y-105838133D01*
X170023217Y-105838133D02*
X169975598Y-105980990D01*
X169975598Y-105980990D02*
X169404170Y-106552419D01*
X169404170Y-106552419D02*
X170023217Y-106552419D01*
X167642265Y-136746704D02*
X168118455Y-136746704D01*
X167547027Y-137032419D02*
X167880360Y-136032419D01*
X167880360Y-136032419D02*
X168213693Y-137032419D01*
X168737503Y-136032419D02*
X168832741Y-136032419D01*
X168832741Y-136032419D02*
X168927979Y-136080038D01*
X168927979Y-136080038D02*
X168975598Y-136127657D01*
X168975598Y-136127657D02*
X169023217Y-136222895D01*
X169023217Y-136222895D02*
X169070836Y-136413371D01*
X169070836Y-136413371D02*
X169070836Y-136651466D01*
X169070836Y-136651466D02*
X169023217Y-136841942D01*
X169023217Y-136841942D02*
X168975598Y-136937180D01*
X168975598Y-136937180D02*
X168927979Y-136984800D01*
X168927979Y-136984800D02*
X168832741Y-137032419D01*
X168832741Y-137032419D02*
X168737503Y-137032419D01*
X168737503Y-137032419D02*
X168642265Y-136984800D01*
X168642265Y-136984800D02*
X168594646Y-136937180D01*
X168594646Y-136937180D02*
X168547027Y-136841942D01*
X168547027Y-136841942D02*
X168499408Y-136651466D01*
X168499408Y-136651466D02*
X168499408Y-136413371D01*
X168499408Y-136413371D02*
X168547027Y-136222895D01*
X168547027Y-136222895D02*
X168594646Y-136127657D01*
X168594646Y-136127657D02*
X168642265Y-136080038D01*
X168642265Y-136080038D02*
X168737503Y-136032419D01*
X163297265Y-108196704D02*
X163773455Y-108196704D01*
X163202027Y-108482419D02*
X163535360Y-107482419D01*
X163535360Y-107482419D02*
X163868693Y-108482419D01*
X164725836Y-108482419D02*
X164154408Y-108482419D01*
X164440122Y-108482419D02*
X164440122Y-107482419D01*
X164440122Y-107482419D02*
X164344884Y-107625276D01*
X164344884Y-107625276D02*
X164249646Y-107720514D01*
X164249646Y-107720514D02*
X164154408Y-107768133D01*
X165582979Y-107815752D02*
X165582979Y-108482419D01*
X165344884Y-107434800D02*
X165106789Y-108149085D01*
X165106789Y-108149085D02*
X165725836Y-108149085D01*
X167642265Y-118966704D02*
X168118455Y-118966704D01*
X167547027Y-119252419D02*
X167880360Y-118252419D01*
X167880360Y-118252419D02*
X168213693Y-119252419D01*
X168451789Y-118252419D02*
X169118455Y-118252419D01*
X169118455Y-118252419D02*
X168689884Y-119252419D01*
X163297265Y-110101704D02*
X163773455Y-110101704D01*
X163202027Y-110387419D02*
X163535360Y-109387419D01*
X163535360Y-109387419D02*
X163868693Y-110387419D01*
X164725836Y-110387419D02*
X164154408Y-110387419D01*
X164440122Y-110387419D02*
X164440122Y-109387419D01*
X164440122Y-109387419D02*
X164344884Y-109530276D01*
X164344884Y-109530276D02*
X164249646Y-109625514D01*
X164249646Y-109625514D02*
X164154408Y-109673133D01*
X165059170Y-109387419D02*
X165678217Y-109387419D01*
X165678217Y-109387419D02*
X165344884Y-109768371D01*
X165344884Y-109768371D02*
X165487741Y-109768371D01*
X165487741Y-109768371D02*
X165582979Y-109815990D01*
X165582979Y-109815990D02*
X165630598Y-109863609D01*
X165630598Y-109863609D02*
X165678217Y-109958847D01*
X165678217Y-109958847D02*
X165678217Y-110196942D01*
X165678217Y-110196942D02*
X165630598Y-110292180D01*
X165630598Y-110292180D02*
X165582979Y-110339800D01*
X165582979Y-110339800D02*
X165487741Y-110387419D01*
X165487741Y-110387419D02*
X165202027Y-110387419D01*
X165202027Y-110387419D02*
X165106789Y-110339800D01*
X165106789Y-110339800D02*
X165059170Y-110292180D01*
X167642265Y-126586704D02*
X168118455Y-126586704D01*
X167547027Y-126872419D02*
X167880360Y-125872419D01*
X167880360Y-125872419D02*
X168213693Y-126872419D01*
X168975598Y-126205752D02*
X168975598Y-126872419D01*
X168737503Y-125824800D02*
X168499408Y-126539085D01*
X168499408Y-126539085D02*
X169118455Y-126539085D01*
X167642265Y-116426704D02*
X168118455Y-116426704D01*
X167547027Y-116712419D02*
X167880360Y-115712419D01*
X167880360Y-115712419D02*
X168213693Y-116712419D01*
X168689884Y-116140990D02*
X168594646Y-116093371D01*
X168594646Y-116093371D02*
X168547027Y-116045752D01*
X168547027Y-116045752D02*
X168499408Y-115950514D01*
X168499408Y-115950514D02*
X168499408Y-115902895D01*
X168499408Y-115902895D02*
X168547027Y-115807657D01*
X168547027Y-115807657D02*
X168594646Y-115760038D01*
X168594646Y-115760038D02*
X168689884Y-115712419D01*
X168689884Y-115712419D02*
X168880360Y-115712419D01*
X168880360Y-115712419D02*
X168975598Y-115760038D01*
X168975598Y-115760038D02*
X169023217Y-115807657D01*
X169023217Y-115807657D02*
X169070836Y-115902895D01*
X169070836Y-115902895D02*
X169070836Y-115950514D01*
X169070836Y-115950514D02*
X169023217Y-116045752D01*
X169023217Y-116045752D02*
X168975598Y-116093371D01*
X168975598Y-116093371D02*
X168880360Y-116140990D01*
X168880360Y-116140990D02*
X168689884Y-116140990D01*
X168689884Y-116140990D02*
X168594646Y-116188609D01*
X168594646Y-116188609D02*
X168547027Y-116236228D01*
X168547027Y-116236228D02*
X168499408Y-116331466D01*
X168499408Y-116331466D02*
X168499408Y-116521942D01*
X168499408Y-116521942D02*
X168547027Y-116617180D01*
X168547027Y-116617180D02*
X168594646Y-116664800D01*
X168594646Y-116664800D02*
X168689884Y-116712419D01*
X168689884Y-116712419D02*
X168880360Y-116712419D01*
X168880360Y-116712419D02*
X168975598Y-116664800D01*
X168975598Y-116664800D02*
X169023217Y-116617180D01*
X169023217Y-116617180D02*
X169070836Y-116521942D01*
X169070836Y-116521942D02*
X169070836Y-116331466D01*
X169070836Y-116331466D02*
X169023217Y-116236228D01*
X169023217Y-116236228D02*
X168975598Y-116188609D01*
X168975598Y-116188609D02*
X168880360Y-116140990D01*
X167642265Y-124046704D02*
X168118455Y-124046704D01*
X167547027Y-124332419D02*
X167880360Y-123332419D01*
X167880360Y-123332419D02*
X168213693Y-124332419D01*
X169023217Y-123332419D02*
X168547027Y-123332419D01*
X168547027Y-123332419D02*
X168499408Y-123808609D01*
X168499408Y-123808609D02*
X168547027Y-123760990D01*
X168547027Y-123760990D02*
X168642265Y-123713371D01*
X168642265Y-123713371D02*
X168880360Y-123713371D01*
X168880360Y-123713371D02*
X168975598Y-123760990D01*
X168975598Y-123760990D02*
X169023217Y-123808609D01*
X169023217Y-123808609D02*
X169070836Y-123903847D01*
X169070836Y-123903847D02*
X169070836Y-124141942D01*
X169070836Y-124141942D02*
X169023217Y-124237180D01*
X169023217Y-124237180D02*
X168975598Y-124284800D01*
X168975598Y-124284800D02*
X168880360Y-124332419D01*
X168880360Y-124332419D02*
X168642265Y-124332419D01*
X168642265Y-124332419D02*
X168547027Y-124284800D01*
X168547027Y-124284800D02*
X168499408Y-124237180D01*
X167642265Y-134206704D02*
X168118455Y-134206704D01*
X167547027Y-134492419D02*
X167880360Y-133492419D01*
X167880360Y-133492419D02*
X168213693Y-134492419D01*
X169070836Y-134492419D02*
X168499408Y-134492419D01*
X168785122Y-134492419D02*
X168785122Y-133492419D01*
X168785122Y-133492419D02*
X168689884Y-133635276D01*
X168689884Y-133635276D02*
X168594646Y-133730514D01*
X168594646Y-133730514D02*
X168499408Y-133778133D01*
X167642265Y-131666704D02*
X168118455Y-131666704D01*
X167547027Y-131952419D02*
X167880360Y-130952419D01*
X167880360Y-130952419D02*
X168213693Y-131952419D01*
X168499408Y-131047657D02*
X168547027Y-131000038D01*
X168547027Y-131000038D02*
X168642265Y-130952419D01*
X168642265Y-130952419D02*
X168880360Y-130952419D01*
X168880360Y-130952419D02*
X168975598Y-131000038D01*
X168975598Y-131000038D02*
X169023217Y-131047657D01*
X169023217Y-131047657D02*
X169070836Y-131142895D01*
X169070836Y-131142895D02*
X169070836Y-131238133D01*
X169070836Y-131238133D02*
X169023217Y-131380990D01*
X169023217Y-131380990D02*
X168451789Y-131952419D01*
X168451789Y-131952419D02*
X169070836Y-131952419D01*
X163297265Y-106291704D02*
X163773455Y-106291704D01*
X163202027Y-106577419D02*
X163535360Y-105577419D01*
X163535360Y-105577419D02*
X163868693Y-106577419D01*
X164725836Y-106577419D02*
X164154408Y-106577419D01*
X164440122Y-106577419D02*
X164440122Y-105577419D01*
X164440122Y-105577419D02*
X164344884Y-105720276D01*
X164344884Y-105720276D02*
X164249646Y-105815514D01*
X164249646Y-105815514D02*
X164154408Y-105863133D01*
X165630598Y-105577419D02*
X165154408Y-105577419D01*
X165154408Y-105577419D02*
X165106789Y-106053609D01*
X165106789Y-106053609D02*
X165154408Y-106005990D01*
X165154408Y-106005990D02*
X165249646Y-105958371D01*
X165249646Y-105958371D02*
X165487741Y-105958371D01*
X165487741Y-105958371D02*
X165582979Y-106005990D01*
X165582979Y-106005990D02*
X165630598Y-106053609D01*
X165630598Y-106053609D02*
X165678217Y-106148847D01*
X165678217Y-106148847D02*
X165678217Y-106386942D01*
X165678217Y-106386942D02*
X165630598Y-106482180D01*
X165630598Y-106482180D02*
X165582979Y-106529800D01*
X165582979Y-106529800D02*
X165487741Y-106577419D01*
X165487741Y-106577419D02*
X165249646Y-106577419D01*
X165249646Y-106577419D02*
X165154408Y-106529800D01*
X165154408Y-106529800D02*
X165106789Y-106482180D01*
X167642265Y-108806704D02*
X168118455Y-108806704D01*
X167547027Y-109092419D02*
X167880360Y-108092419D01*
X167880360Y-108092419D02*
X168213693Y-109092419D01*
X169070836Y-109092419D02*
X168499408Y-109092419D01*
X168785122Y-109092419D02*
X168785122Y-108092419D01*
X168785122Y-108092419D02*
X168689884Y-108235276D01*
X168689884Y-108235276D02*
X168594646Y-108330514D01*
X168594646Y-108330514D02*
X168499408Y-108378133D01*
X170023217Y-109092419D02*
X169451789Y-109092419D01*
X169737503Y-109092419D02*
X169737503Y-108092419D01*
X169737503Y-108092419D02*
X169642265Y-108235276D01*
X169642265Y-108235276D02*
X169547027Y-108330514D01*
X169547027Y-108330514D02*
X169451789Y-108378133D01*
X167642265Y-111346704D02*
X168118455Y-111346704D01*
X167547027Y-111632419D02*
X167880360Y-110632419D01*
X167880360Y-110632419D02*
X168213693Y-111632419D01*
X169070836Y-111632419D02*
X168499408Y-111632419D01*
X168785122Y-111632419D02*
X168785122Y-110632419D01*
X168785122Y-110632419D02*
X168689884Y-110775276D01*
X168689884Y-110775276D02*
X168594646Y-110870514D01*
X168594646Y-110870514D02*
X168499408Y-110918133D01*
X169689884Y-110632419D02*
X169785122Y-110632419D01*
X169785122Y-110632419D02*
X169880360Y-110680038D01*
X169880360Y-110680038D02*
X169927979Y-110727657D01*
X169927979Y-110727657D02*
X169975598Y-110822895D01*
X169975598Y-110822895D02*
X170023217Y-111013371D01*
X170023217Y-111013371D02*
X170023217Y-111251466D01*
X170023217Y-111251466D02*
X169975598Y-111441942D01*
X169975598Y-111441942D02*
X169927979Y-111537180D01*
X169927979Y-111537180D02*
X169880360Y-111584800D01*
X169880360Y-111584800D02*
X169785122Y-111632419D01*
X169785122Y-111632419D02*
X169689884Y-111632419D01*
X169689884Y-111632419D02*
X169594646Y-111584800D01*
X169594646Y-111584800D02*
X169547027Y-111537180D01*
X169547027Y-111537180D02*
X169499408Y-111441942D01*
X169499408Y-111441942D02*
X169451789Y-111251466D01*
X169451789Y-111251466D02*
X169451789Y-111013371D01*
X169451789Y-111013371D02*
X169499408Y-110822895D01*
X169499408Y-110822895D02*
X169547027Y-110727657D01*
X169547027Y-110727657D02*
X169594646Y-110680038D01*
X169594646Y-110680038D02*
X169689884Y-110632419D01*
X167642265Y-129126704D02*
X168118455Y-129126704D01*
X167547027Y-129412419D02*
X167880360Y-128412419D01*
X167880360Y-128412419D02*
X168213693Y-129412419D01*
X168451789Y-128412419D02*
X169070836Y-128412419D01*
X169070836Y-128412419D02*
X168737503Y-128793371D01*
X168737503Y-128793371D02*
X168880360Y-128793371D01*
X168880360Y-128793371D02*
X168975598Y-128840990D01*
X168975598Y-128840990D02*
X169023217Y-128888609D01*
X169023217Y-128888609D02*
X169070836Y-128983847D01*
X169070836Y-128983847D02*
X169070836Y-129221942D01*
X169070836Y-129221942D02*
X169023217Y-129317180D01*
X169023217Y-129317180D02*
X168975598Y-129364800D01*
X168975598Y-129364800D02*
X168880360Y-129412419D01*
X168880360Y-129412419D02*
X168594646Y-129412419D01*
X168594646Y-129412419D02*
X168499408Y-129364800D01*
X168499408Y-129364800D02*
X168451789Y-129317180D01*
D10*
X142599580Y-69000666D02*
X142647200Y-69048285D01*
X142647200Y-69048285D02*
X142694819Y-69191142D01*
X142694819Y-69191142D02*
X142694819Y-69286380D01*
X142694819Y-69286380D02*
X142647200Y-69429237D01*
X142647200Y-69429237D02*
X142551961Y-69524475D01*
X142551961Y-69524475D02*
X142456723Y-69572094D01*
X142456723Y-69572094D02*
X142266247Y-69619713D01*
X142266247Y-69619713D02*
X142123390Y-69619713D01*
X142123390Y-69619713D02*
X141932914Y-69572094D01*
X141932914Y-69572094D02*
X141837676Y-69524475D01*
X141837676Y-69524475D02*
X141742438Y-69429237D01*
X141742438Y-69429237D02*
X141694819Y-69286380D01*
X141694819Y-69286380D02*
X141694819Y-69191142D01*
X141694819Y-69191142D02*
X141742438Y-69048285D01*
X141742438Y-69048285D02*
X141790057Y-69000666D01*
X141694819Y-68667332D02*
X141694819Y-68048285D01*
X141694819Y-68048285D02*
X142075771Y-68381618D01*
X142075771Y-68381618D02*
X142075771Y-68238761D01*
X142075771Y-68238761D02*
X142123390Y-68143523D01*
X142123390Y-68143523D02*
X142171009Y-68095904D01*
X142171009Y-68095904D02*
X142266247Y-68048285D01*
X142266247Y-68048285D02*
X142504342Y-68048285D01*
X142504342Y-68048285D02*
X142599580Y-68095904D01*
X142599580Y-68095904D02*
X142647200Y-68143523D01*
X142647200Y-68143523D02*
X142694819Y-68238761D01*
X142694819Y-68238761D02*
X142694819Y-68524475D01*
X142694819Y-68524475D02*
X142647200Y-68619713D01*
X142647200Y-68619713D02*
X142599580Y-68667332D01*
X136136142Y-100308580D02*
X136088523Y-100356200D01*
X136088523Y-100356200D02*
X135945666Y-100403819D01*
X135945666Y-100403819D02*
X135850428Y-100403819D01*
X135850428Y-100403819D02*
X135707571Y-100356200D01*
X135707571Y-100356200D02*
X135612333Y-100260961D01*
X135612333Y-100260961D02*
X135564714Y-100165723D01*
X135564714Y-100165723D02*
X135517095Y-99975247D01*
X135517095Y-99975247D02*
X135517095Y-99832390D01*
X135517095Y-99832390D02*
X135564714Y-99641914D01*
X135564714Y-99641914D02*
X135612333Y-99546676D01*
X135612333Y-99546676D02*
X135707571Y-99451438D01*
X135707571Y-99451438D02*
X135850428Y-99403819D01*
X135850428Y-99403819D02*
X135945666Y-99403819D01*
X135945666Y-99403819D02*
X136088523Y-99451438D01*
X136088523Y-99451438D02*
X136136142Y-99499057D01*
X137088523Y-100403819D02*
X136517095Y-100403819D01*
X136802809Y-100403819D02*
X136802809Y-99403819D01*
X136802809Y-99403819D02*
X136707571Y-99546676D01*
X136707571Y-99546676D02*
X136612333Y-99641914D01*
X136612333Y-99641914D02*
X136517095Y-99689533D01*
X137469476Y-99499057D02*
X137517095Y-99451438D01*
X137517095Y-99451438D02*
X137612333Y-99403819D01*
X137612333Y-99403819D02*
X137850428Y-99403819D01*
X137850428Y-99403819D02*
X137945666Y-99451438D01*
X137945666Y-99451438D02*
X137993285Y-99499057D01*
X137993285Y-99499057D02*
X138040904Y-99594295D01*
X138040904Y-99594295D02*
X138040904Y-99689533D01*
X138040904Y-99689533D02*
X137993285Y-99832390D01*
X137993285Y-99832390D02*
X137421857Y-100403819D01*
X137421857Y-100403819D02*
X138040904Y-100403819D01*
X159154905Y-84103819D02*
X159154905Y-83103819D01*
X159154905Y-83103819D02*
X159393000Y-83103819D01*
X159393000Y-83103819D02*
X159535857Y-83151438D01*
X159535857Y-83151438D02*
X159631095Y-83246676D01*
X159631095Y-83246676D02*
X159678714Y-83341914D01*
X159678714Y-83341914D02*
X159726333Y-83532390D01*
X159726333Y-83532390D02*
X159726333Y-83675247D01*
X159726333Y-83675247D02*
X159678714Y-83865723D01*
X159678714Y-83865723D02*
X159631095Y-83960961D01*
X159631095Y-83960961D02*
X159535857Y-84056200D01*
X159535857Y-84056200D02*
X159393000Y-84103819D01*
X159393000Y-84103819D02*
X159154905Y-84103819D01*
X160583476Y-83437152D02*
X160583476Y-84103819D01*
X160345381Y-83056200D02*
X160107286Y-83770485D01*
X160107286Y-83770485D02*
X160726333Y-83770485D01*
X132396819Y-89517333D02*
X133111104Y-89517333D01*
X133111104Y-89517333D02*
X133253961Y-89564952D01*
X133253961Y-89564952D02*
X133349200Y-89660190D01*
X133349200Y-89660190D02*
X133396819Y-89803047D01*
X133396819Y-89803047D02*
X133396819Y-89898285D01*
X132396819Y-88612571D02*
X132396819Y-88803047D01*
X132396819Y-88803047D02*
X132444438Y-88898285D01*
X132444438Y-88898285D02*
X132492057Y-88945904D01*
X132492057Y-88945904D02*
X132634914Y-89041142D01*
X132634914Y-89041142D02*
X132825390Y-89088761D01*
X132825390Y-89088761D02*
X133206342Y-89088761D01*
X133206342Y-89088761D02*
X133301580Y-89041142D01*
X133301580Y-89041142D02*
X133349200Y-88993523D01*
X133349200Y-88993523D02*
X133396819Y-88898285D01*
X133396819Y-88898285D02*
X133396819Y-88707809D01*
X133396819Y-88707809D02*
X133349200Y-88612571D01*
X133349200Y-88612571D02*
X133301580Y-88564952D01*
X133301580Y-88564952D02*
X133206342Y-88517333D01*
X133206342Y-88517333D02*
X132968247Y-88517333D01*
X132968247Y-88517333D02*
X132873009Y-88564952D01*
X132873009Y-88564952D02*
X132825390Y-88612571D01*
X132825390Y-88612571D02*
X132777771Y-88707809D01*
X132777771Y-88707809D02*
X132777771Y-88898285D01*
X132777771Y-88898285D02*
X132825390Y-88993523D01*
X132825390Y-88993523D02*
X132873009Y-89041142D01*
X132873009Y-89041142D02*
X132968247Y-89088761D01*
X154606666Y-108801819D02*
X154606666Y-109516104D01*
X154606666Y-109516104D02*
X154559047Y-109658961D01*
X154559047Y-109658961D02*
X154463809Y-109754200D01*
X154463809Y-109754200D02*
X154320952Y-109801819D01*
X154320952Y-109801819D02*
X154225714Y-109801819D01*
X155225714Y-109230390D02*
X155130476Y-109182771D01*
X155130476Y-109182771D02*
X155082857Y-109135152D01*
X155082857Y-109135152D02*
X155035238Y-109039914D01*
X155035238Y-109039914D02*
X155035238Y-108992295D01*
X155035238Y-108992295D02*
X155082857Y-108897057D01*
X155082857Y-108897057D02*
X155130476Y-108849438D01*
X155130476Y-108849438D02*
X155225714Y-108801819D01*
X155225714Y-108801819D02*
X155416190Y-108801819D01*
X155416190Y-108801819D02*
X155511428Y-108849438D01*
X155511428Y-108849438D02*
X155559047Y-108897057D01*
X155559047Y-108897057D02*
X155606666Y-108992295D01*
X155606666Y-108992295D02*
X155606666Y-109039914D01*
X155606666Y-109039914D02*
X155559047Y-109135152D01*
X155559047Y-109135152D02*
X155511428Y-109182771D01*
X155511428Y-109182771D02*
X155416190Y-109230390D01*
X155416190Y-109230390D02*
X155225714Y-109230390D01*
X155225714Y-109230390D02*
X155130476Y-109278009D01*
X155130476Y-109278009D02*
X155082857Y-109325628D01*
X155082857Y-109325628D02*
X155035238Y-109420866D01*
X155035238Y-109420866D02*
X155035238Y-109611342D01*
X155035238Y-109611342D02*
X155082857Y-109706580D01*
X155082857Y-109706580D02*
X155130476Y-109754200D01*
X155130476Y-109754200D02*
X155225714Y-109801819D01*
X155225714Y-109801819D02*
X155416190Y-109801819D01*
X155416190Y-109801819D02*
X155511428Y-109754200D01*
X155511428Y-109754200D02*
X155559047Y-109706580D01*
X155559047Y-109706580D02*
X155606666Y-109611342D01*
X155606666Y-109611342D02*
X155606666Y-109420866D01*
X155606666Y-109420866D02*
X155559047Y-109325628D01*
X155559047Y-109325628D02*
X155511428Y-109278009D01*
X155511428Y-109278009D02*
X155416190Y-109230390D01*
X125269666Y-138646819D02*
X125269666Y-139361104D01*
X125269666Y-139361104D02*
X125222047Y-139503961D01*
X125222047Y-139503961D02*
X125126809Y-139599200D01*
X125126809Y-139599200D02*
X124983952Y-139646819D01*
X124983952Y-139646819D02*
X124888714Y-139646819D01*
X125698238Y-138742057D02*
X125745857Y-138694438D01*
X125745857Y-138694438D02*
X125841095Y-138646819D01*
X125841095Y-138646819D02*
X126079190Y-138646819D01*
X126079190Y-138646819D02*
X126174428Y-138694438D01*
X126174428Y-138694438D02*
X126222047Y-138742057D01*
X126222047Y-138742057D02*
X126269666Y-138837295D01*
X126269666Y-138837295D02*
X126269666Y-138932533D01*
X126269666Y-138932533D02*
X126222047Y-139075390D01*
X126222047Y-139075390D02*
X125650619Y-139646819D01*
X125650619Y-139646819D02*
X126269666Y-139646819D01*
D11*
X128172217Y-136483609D02*
X128315074Y-136531228D01*
X128315074Y-136531228D02*
X128362693Y-136578847D01*
X128362693Y-136578847D02*
X128410312Y-136674085D01*
X128410312Y-136674085D02*
X128410312Y-136816942D01*
X128410312Y-136816942D02*
X128362693Y-136912180D01*
X128362693Y-136912180D02*
X128315074Y-136959800D01*
X128315074Y-136959800D02*
X128219836Y-137007419D01*
X128219836Y-137007419D02*
X127838884Y-137007419D01*
X127838884Y-137007419D02*
X127838884Y-136007419D01*
X127838884Y-136007419D02*
X128172217Y-136007419D01*
X128172217Y-136007419D02*
X128267455Y-136055038D01*
X128267455Y-136055038D02*
X128315074Y-136102657D01*
X128315074Y-136102657D02*
X128362693Y-136197895D01*
X128362693Y-136197895D02*
X128362693Y-136293133D01*
X128362693Y-136293133D02*
X128315074Y-136388371D01*
X128315074Y-136388371D02*
X128267455Y-136435990D01*
X128267455Y-136435990D02*
X128172217Y-136483609D01*
X128172217Y-136483609D02*
X127838884Y-136483609D01*
X129029360Y-136007419D02*
X129124598Y-136007419D01*
X129124598Y-136007419D02*
X129219836Y-136055038D01*
X129219836Y-136055038D02*
X129267455Y-136102657D01*
X129267455Y-136102657D02*
X129315074Y-136197895D01*
X129315074Y-136197895D02*
X129362693Y-136388371D01*
X129362693Y-136388371D02*
X129362693Y-136626466D01*
X129362693Y-136626466D02*
X129315074Y-136816942D01*
X129315074Y-136816942D02*
X129267455Y-136912180D01*
X129267455Y-136912180D02*
X129219836Y-136959800D01*
X129219836Y-136959800D02*
X129124598Y-137007419D01*
X129124598Y-137007419D02*
X129029360Y-137007419D01*
X129029360Y-137007419D02*
X128934122Y-136959800D01*
X128934122Y-136959800D02*
X128886503Y-136912180D01*
X128886503Y-136912180D02*
X128838884Y-136816942D01*
X128838884Y-136816942D02*
X128791265Y-136626466D01*
X128791265Y-136626466D02*
X128791265Y-136388371D01*
X128791265Y-136388371D02*
X128838884Y-136197895D01*
X128838884Y-136197895D02*
X128886503Y-136102657D01*
X128886503Y-136102657D02*
X128934122Y-136055038D01*
X128934122Y-136055038D02*
X129029360Y-136007419D01*
X128172217Y-133943609D02*
X128315074Y-133991228D01*
X128315074Y-133991228D02*
X128362693Y-134038847D01*
X128362693Y-134038847D02*
X128410312Y-134134085D01*
X128410312Y-134134085D02*
X128410312Y-134276942D01*
X128410312Y-134276942D02*
X128362693Y-134372180D01*
X128362693Y-134372180D02*
X128315074Y-134419800D01*
X128315074Y-134419800D02*
X128219836Y-134467419D01*
X128219836Y-134467419D02*
X127838884Y-134467419D01*
X127838884Y-134467419D02*
X127838884Y-133467419D01*
X127838884Y-133467419D02*
X128172217Y-133467419D01*
X128172217Y-133467419D02*
X128267455Y-133515038D01*
X128267455Y-133515038D02*
X128315074Y-133562657D01*
X128315074Y-133562657D02*
X128362693Y-133657895D01*
X128362693Y-133657895D02*
X128362693Y-133753133D01*
X128362693Y-133753133D02*
X128315074Y-133848371D01*
X128315074Y-133848371D02*
X128267455Y-133895990D01*
X128267455Y-133895990D02*
X128172217Y-133943609D01*
X128172217Y-133943609D02*
X127838884Y-133943609D01*
X129362693Y-134467419D02*
X128791265Y-134467419D01*
X129076979Y-134467419D02*
X129076979Y-133467419D01*
X129076979Y-133467419D02*
X128981741Y-133610276D01*
X128981741Y-133610276D02*
X128886503Y-133705514D01*
X128886503Y-133705514D02*
X128791265Y-133753133D01*
X128172217Y-128863609D02*
X128315074Y-128911228D01*
X128315074Y-128911228D02*
X128362693Y-128958847D01*
X128362693Y-128958847D02*
X128410312Y-129054085D01*
X128410312Y-129054085D02*
X128410312Y-129196942D01*
X128410312Y-129196942D02*
X128362693Y-129292180D01*
X128362693Y-129292180D02*
X128315074Y-129339800D01*
X128315074Y-129339800D02*
X128219836Y-129387419D01*
X128219836Y-129387419D02*
X127838884Y-129387419D01*
X127838884Y-129387419D02*
X127838884Y-128387419D01*
X127838884Y-128387419D02*
X128172217Y-128387419D01*
X128172217Y-128387419D02*
X128267455Y-128435038D01*
X128267455Y-128435038D02*
X128315074Y-128482657D01*
X128315074Y-128482657D02*
X128362693Y-128577895D01*
X128362693Y-128577895D02*
X128362693Y-128673133D01*
X128362693Y-128673133D02*
X128315074Y-128768371D01*
X128315074Y-128768371D02*
X128267455Y-128815990D01*
X128267455Y-128815990D02*
X128172217Y-128863609D01*
X128172217Y-128863609D02*
X127838884Y-128863609D01*
X128743646Y-128387419D02*
X129362693Y-128387419D01*
X129362693Y-128387419D02*
X129029360Y-128768371D01*
X129029360Y-128768371D02*
X129172217Y-128768371D01*
X129172217Y-128768371D02*
X129267455Y-128815990D01*
X129267455Y-128815990D02*
X129315074Y-128863609D01*
X129315074Y-128863609D02*
X129362693Y-128958847D01*
X129362693Y-128958847D02*
X129362693Y-129196942D01*
X129362693Y-129196942D02*
X129315074Y-129292180D01*
X129315074Y-129292180D02*
X129267455Y-129339800D01*
X129267455Y-129339800D02*
X129172217Y-129387419D01*
X129172217Y-129387419D02*
X128886503Y-129387419D01*
X128886503Y-129387419D02*
X128791265Y-129339800D01*
X128791265Y-129339800D02*
X128743646Y-129292180D01*
X128172217Y-108543609D02*
X128315074Y-108591228D01*
X128315074Y-108591228D02*
X128362693Y-108638847D01*
X128362693Y-108638847D02*
X128410312Y-108734085D01*
X128410312Y-108734085D02*
X128410312Y-108876942D01*
X128410312Y-108876942D02*
X128362693Y-108972180D01*
X128362693Y-108972180D02*
X128315074Y-109019800D01*
X128315074Y-109019800D02*
X128219836Y-109067419D01*
X128219836Y-109067419D02*
X127838884Y-109067419D01*
X127838884Y-109067419D02*
X127838884Y-108067419D01*
X127838884Y-108067419D02*
X128172217Y-108067419D01*
X128172217Y-108067419D02*
X128267455Y-108115038D01*
X128267455Y-108115038D02*
X128315074Y-108162657D01*
X128315074Y-108162657D02*
X128362693Y-108257895D01*
X128362693Y-108257895D02*
X128362693Y-108353133D01*
X128362693Y-108353133D02*
X128315074Y-108448371D01*
X128315074Y-108448371D02*
X128267455Y-108495990D01*
X128267455Y-108495990D02*
X128172217Y-108543609D01*
X128172217Y-108543609D02*
X127838884Y-108543609D01*
X129362693Y-109067419D02*
X128791265Y-109067419D01*
X129076979Y-109067419D02*
X129076979Y-108067419D01*
X129076979Y-108067419D02*
X128981741Y-108210276D01*
X128981741Y-108210276D02*
X128886503Y-108305514D01*
X128886503Y-108305514D02*
X128791265Y-108353133D01*
X130315074Y-109067419D02*
X129743646Y-109067419D01*
X130029360Y-109067419D02*
X130029360Y-108067419D01*
X130029360Y-108067419D02*
X129934122Y-108210276D01*
X129934122Y-108210276D02*
X129838884Y-108305514D01*
X129838884Y-108305514D02*
X129743646Y-108353133D01*
X128172217Y-116163609D02*
X128315074Y-116211228D01*
X128315074Y-116211228D02*
X128362693Y-116258847D01*
X128362693Y-116258847D02*
X128410312Y-116354085D01*
X128410312Y-116354085D02*
X128410312Y-116496942D01*
X128410312Y-116496942D02*
X128362693Y-116592180D01*
X128362693Y-116592180D02*
X128315074Y-116639800D01*
X128315074Y-116639800D02*
X128219836Y-116687419D01*
X128219836Y-116687419D02*
X127838884Y-116687419D01*
X127838884Y-116687419D02*
X127838884Y-115687419D01*
X127838884Y-115687419D02*
X128172217Y-115687419D01*
X128172217Y-115687419D02*
X128267455Y-115735038D01*
X128267455Y-115735038D02*
X128315074Y-115782657D01*
X128315074Y-115782657D02*
X128362693Y-115877895D01*
X128362693Y-115877895D02*
X128362693Y-115973133D01*
X128362693Y-115973133D02*
X128315074Y-116068371D01*
X128315074Y-116068371D02*
X128267455Y-116115990D01*
X128267455Y-116115990D02*
X128172217Y-116163609D01*
X128172217Y-116163609D02*
X127838884Y-116163609D01*
X128981741Y-116115990D02*
X128886503Y-116068371D01*
X128886503Y-116068371D02*
X128838884Y-116020752D01*
X128838884Y-116020752D02*
X128791265Y-115925514D01*
X128791265Y-115925514D02*
X128791265Y-115877895D01*
X128791265Y-115877895D02*
X128838884Y-115782657D01*
X128838884Y-115782657D02*
X128886503Y-115735038D01*
X128886503Y-115735038D02*
X128981741Y-115687419D01*
X128981741Y-115687419D02*
X129172217Y-115687419D01*
X129172217Y-115687419D02*
X129267455Y-115735038D01*
X129267455Y-115735038D02*
X129315074Y-115782657D01*
X129315074Y-115782657D02*
X129362693Y-115877895D01*
X129362693Y-115877895D02*
X129362693Y-115925514D01*
X129362693Y-115925514D02*
X129315074Y-116020752D01*
X129315074Y-116020752D02*
X129267455Y-116068371D01*
X129267455Y-116068371D02*
X129172217Y-116115990D01*
X129172217Y-116115990D02*
X128981741Y-116115990D01*
X128981741Y-116115990D02*
X128886503Y-116163609D01*
X128886503Y-116163609D02*
X128838884Y-116211228D01*
X128838884Y-116211228D02*
X128791265Y-116306466D01*
X128791265Y-116306466D02*
X128791265Y-116496942D01*
X128791265Y-116496942D02*
X128838884Y-116592180D01*
X128838884Y-116592180D02*
X128886503Y-116639800D01*
X128886503Y-116639800D02*
X128981741Y-116687419D01*
X128981741Y-116687419D02*
X129172217Y-116687419D01*
X129172217Y-116687419D02*
X129267455Y-116639800D01*
X129267455Y-116639800D02*
X129315074Y-116592180D01*
X129315074Y-116592180D02*
X129362693Y-116496942D01*
X129362693Y-116496942D02*
X129362693Y-116306466D01*
X129362693Y-116306466D02*
X129315074Y-116211228D01*
X129315074Y-116211228D02*
X129267455Y-116163609D01*
X129267455Y-116163609D02*
X129172217Y-116115990D01*
X128172217Y-123783609D02*
X128315074Y-123831228D01*
X128315074Y-123831228D02*
X128362693Y-123878847D01*
X128362693Y-123878847D02*
X128410312Y-123974085D01*
X128410312Y-123974085D02*
X128410312Y-124116942D01*
X128410312Y-124116942D02*
X128362693Y-124212180D01*
X128362693Y-124212180D02*
X128315074Y-124259800D01*
X128315074Y-124259800D02*
X128219836Y-124307419D01*
X128219836Y-124307419D02*
X127838884Y-124307419D01*
X127838884Y-124307419D02*
X127838884Y-123307419D01*
X127838884Y-123307419D02*
X128172217Y-123307419D01*
X128172217Y-123307419D02*
X128267455Y-123355038D01*
X128267455Y-123355038D02*
X128315074Y-123402657D01*
X128315074Y-123402657D02*
X128362693Y-123497895D01*
X128362693Y-123497895D02*
X128362693Y-123593133D01*
X128362693Y-123593133D02*
X128315074Y-123688371D01*
X128315074Y-123688371D02*
X128267455Y-123735990D01*
X128267455Y-123735990D02*
X128172217Y-123783609D01*
X128172217Y-123783609D02*
X127838884Y-123783609D01*
X129315074Y-123307419D02*
X128838884Y-123307419D01*
X128838884Y-123307419D02*
X128791265Y-123783609D01*
X128791265Y-123783609D02*
X128838884Y-123735990D01*
X128838884Y-123735990D02*
X128934122Y-123688371D01*
X128934122Y-123688371D02*
X129172217Y-123688371D01*
X129172217Y-123688371D02*
X129267455Y-123735990D01*
X129267455Y-123735990D02*
X129315074Y-123783609D01*
X129315074Y-123783609D02*
X129362693Y-123878847D01*
X129362693Y-123878847D02*
X129362693Y-124116942D01*
X129362693Y-124116942D02*
X129315074Y-124212180D01*
X129315074Y-124212180D02*
X129267455Y-124259800D01*
X129267455Y-124259800D02*
X129172217Y-124307419D01*
X129172217Y-124307419D02*
X128934122Y-124307419D01*
X128934122Y-124307419D02*
X128838884Y-124259800D01*
X128838884Y-124259800D02*
X128791265Y-124212180D01*
X128172217Y-121243609D02*
X128315074Y-121291228D01*
X128315074Y-121291228D02*
X128362693Y-121338847D01*
X128362693Y-121338847D02*
X128410312Y-121434085D01*
X128410312Y-121434085D02*
X128410312Y-121576942D01*
X128410312Y-121576942D02*
X128362693Y-121672180D01*
X128362693Y-121672180D02*
X128315074Y-121719800D01*
X128315074Y-121719800D02*
X128219836Y-121767419D01*
X128219836Y-121767419D02*
X127838884Y-121767419D01*
X127838884Y-121767419D02*
X127838884Y-120767419D01*
X127838884Y-120767419D02*
X128172217Y-120767419D01*
X128172217Y-120767419D02*
X128267455Y-120815038D01*
X128267455Y-120815038D02*
X128315074Y-120862657D01*
X128315074Y-120862657D02*
X128362693Y-120957895D01*
X128362693Y-120957895D02*
X128362693Y-121053133D01*
X128362693Y-121053133D02*
X128315074Y-121148371D01*
X128315074Y-121148371D02*
X128267455Y-121195990D01*
X128267455Y-121195990D02*
X128172217Y-121243609D01*
X128172217Y-121243609D02*
X127838884Y-121243609D01*
X129267455Y-120767419D02*
X129076979Y-120767419D01*
X129076979Y-120767419D02*
X128981741Y-120815038D01*
X128981741Y-120815038D02*
X128934122Y-120862657D01*
X128934122Y-120862657D02*
X128838884Y-121005514D01*
X128838884Y-121005514D02*
X128791265Y-121195990D01*
X128791265Y-121195990D02*
X128791265Y-121576942D01*
X128791265Y-121576942D02*
X128838884Y-121672180D01*
X128838884Y-121672180D02*
X128886503Y-121719800D01*
X128886503Y-121719800D02*
X128981741Y-121767419D01*
X128981741Y-121767419D02*
X129172217Y-121767419D01*
X129172217Y-121767419D02*
X129267455Y-121719800D01*
X129267455Y-121719800D02*
X129315074Y-121672180D01*
X129315074Y-121672180D02*
X129362693Y-121576942D01*
X129362693Y-121576942D02*
X129362693Y-121338847D01*
X129362693Y-121338847D02*
X129315074Y-121243609D01*
X129315074Y-121243609D02*
X129267455Y-121195990D01*
X129267455Y-121195990D02*
X129172217Y-121148371D01*
X129172217Y-121148371D02*
X128981741Y-121148371D01*
X128981741Y-121148371D02*
X128886503Y-121195990D01*
X128886503Y-121195990D02*
X128838884Y-121243609D01*
X128838884Y-121243609D02*
X128791265Y-121338847D01*
X124970217Y-96122609D02*
X125113074Y-96170228D01*
X125113074Y-96170228D02*
X125160693Y-96217847D01*
X125160693Y-96217847D02*
X125208312Y-96313085D01*
X125208312Y-96313085D02*
X125208312Y-96455942D01*
X125208312Y-96455942D02*
X125160693Y-96551180D01*
X125160693Y-96551180D02*
X125113074Y-96598800D01*
X125113074Y-96598800D02*
X125017836Y-96646419D01*
X125017836Y-96646419D02*
X124636884Y-96646419D01*
X124636884Y-96646419D02*
X124636884Y-95646419D01*
X124636884Y-95646419D02*
X124970217Y-95646419D01*
X124970217Y-95646419D02*
X125065455Y-95694038D01*
X125065455Y-95694038D02*
X125113074Y-95741657D01*
X125113074Y-95741657D02*
X125160693Y-95836895D01*
X125160693Y-95836895D02*
X125160693Y-95932133D01*
X125160693Y-95932133D02*
X125113074Y-96027371D01*
X125113074Y-96027371D02*
X125065455Y-96074990D01*
X125065455Y-96074990D02*
X124970217Y-96122609D01*
X124970217Y-96122609D02*
X124636884Y-96122609D01*
X126160693Y-96646419D02*
X125589265Y-96646419D01*
X125874979Y-96646419D02*
X125874979Y-95646419D01*
X125874979Y-95646419D02*
X125779741Y-95789276D01*
X125779741Y-95789276D02*
X125684503Y-95884514D01*
X125684503Y-95884514D02*
X125589265Y-95932133D01*
X127065455Y-95646419D02*
X126589265Y-95646419D01*
X126589265Y-95646419D02*
X126541646Y-96122609D01*
X126541646Y-96122609D02*
X126589265Y-96074990D01*
X126589265Y-96074990D02*
X126684503Y-96027371D01*
X126684503Y-96027371D02*
X126922598Y-96027371D01*
X126922598Y-96027371D02*
X127017836Y-96074990D01*
X127017836Y-96074990D02*
X127065455Y-96122609D01*
X127065455Y-96122609D02*
X127113074Y-96217847D01*
X127113074Y-96217847D02*
X127113074Y-96455942D01*
X127113074Y-96455942D02*
X127065455Y-96551180D01*
X127065455Y-96551180D02*
X127017836Y-96598800D01*
X127017836Y-96598800D02*
X126922598Y-96646419D01*
X126922598Y-96646419D02*
X126684503Y-96646419D01*
X126684503Y-96646419D02*
X126589265Y-96598800D01*
X126589265Y-96598800D02*
X126541646Y-96551180D01*
X128172217Y-113623609D02*
X128315074Y-113671228D01*
X128315074Y-113671228D02*
X128362693Y-113718847D01*
X128362693Y-113718847D02*
X128410312Y-113814085D01*
X128410312Y-113814085D02*
X128410312Y-113956942D01*
X128410312Y-113956942D02*
X128362693Y-114052180D01*
X128362693Y-114052180D02*
X128315074Y-114099800D01*
X128315074Y-114099800D02*
X128219836Y-114147419D01*
X128219836Y-114147419D02*
X127838884Y-114147419D01*
X127838884Y-114147419D02*
X127838884Y-113147419D01*
X127838884Y-113147419D02*
X128172217Y-113147419D01*
X128172217Y-113147419D02*
X128267455Y-113195038D01*
X128267455Y-113195038D02*
X128315074Y-113242657D01*
X128315074Y-113242657D02*
X128362693Y-113337895D01*
X128362693Y-113337895D02*
X128362693Y-113433133D01*
X128362693Y-113433133D02*
X128315074Y-113528371D01*
X128315074Y-113528371D02*
X128267455Y-113575990D01*
X128267455Y-113575990D02*
X128172217Y-113623609D01*
X128172217Y-113623609D02*
X127838884Y-113623609D01*
X128886503Y-114147419D02*
X129076979Y-114147419D01*
X129076979Y-114147419D02*
X129172217Y-114099800D01*
X129172217Y-114099800D02*
X129219836Y-114052180D01*
X129219836Y-114052180D02*
X129315074Y-113909323D01*
X129315074Y-113909323D02*
X129362693Y-113718847D01*
X129362693Y-113718847D02*
X129362693Y-113337895D01*
X129362693Y-113337895D02*
X129315074Y-113242657D01*
X129315074Y-113242657D02*
X129267455Y-113195038D01*
X129267455Y-113195038D02*
X129172217Y-113147419D01*
X129172217Y-113147419D02*
X128981741Y-113147419D01*
X128981741Y-113147419D02*
X128886503Y-113195038D01*
X128886503Y-113195038D02*
X128838884Y-113242657D01*
X128838884Y-113242657D02*
X128791265Y-113337895D01*
X128791265Y-113337895D02*
X128791265Y-113575990D01*
X128791265Y-113575990D02*
X128838884Y-113671228D01*
X128838884Y-113671228D02*
X128886503Y-113718847D01*
X128886503Y-113718847D02*
X128981741Y-113766466D01*
X128981741Y-113766466D02*
X129172217Y-113766466D01*
X129172217Y-113766466D02*
X129267455Y-113718847D01*
X129267455Y-113718847D02*
X129315074Y-113671228D01*
X129315074Y-113671228D02*
X129362693Y-113575990D01*
X128172217Y-118703609D02*
X128315074Y-118751228D01*
X128315074Y-118751228D02*
X128362693Y-118798847D01*
X128362693Y-118798847D02*
X128410312Y-118894085D01*
X128410312Y-118894085D02*
X128410312Y-119036942D01*
X128410312Y-119036942D02*
X128362693Y-119132180D01*
X128362693Y-119132180D02*
X128315074Y-119179800D01*
X128315074Y-119179800D02*
X128219836Y-119227419D01*
X128219836Y-119227419D02*
X127838884Y-119227419D01*
X127838884Y-119227419D02*
X127838884Y-118227419D01*
X127838884Y-118227419D02*
X128172217Y-118227419D01*
X128172217Y-118227419D02*
X128267455Y-118275038D01*
X128267455Y-118275038D02*
X128315074Y-118322657D01*
X128315074Y-118322657D02*
X128362693Y-118417895D01*
X128362693Y-118417895D02*
X128362693Y-118513133D01*
X128362693Y-118513133D02*
X128315074Y-118608371D01*
X128315074Y-118608371D02*
X128267455Y-118655990D01*
X128267455Y-118655990D02*
X128172217Y-118703609D01*
X128172217Y-118703609D02*
X127838884Y-118703609D01*
X128743646Y-118227419D02*
X129410312Y-118227419D01*
X129410312Y-118227419D02*
X128981741Y-119227419D01*
X128172217Y-111083609D02*
X128315074Y-111131228D01*
X128315074Y-111131228D02*
X128362693Y-111178847D01*
X128362693Y-111178847D02*
X128410312Y-111274085D01*
X128410312Y-111274085D02*
X128410312Y-111416942D01*
X128410312Y-111416942D02*
X128362693Y-111512180D01*
X128362693Y-111512180D02*
X128315074Y-111559800D01*
X128315074Y-111559800D02*
X128219836Y-111607419D01*
X128219836Y-111607419D02*
X127838884Y-111607419D01*
X127838884Y-111607419D02*
X127838884Y-110607419D01*
X127838884Y-110607419D02*
X128172217Y-110607419D01*
X128172217Y-110607419D02*
X128267455Y-110655038D01*
X128267455Y-110655038D02*
X128315074Y-110702657D01*
X128315074Y-110702657D02*
X128362693Y-110797895D01*
X128362693Y-110797895D02*
X128362693Y-110893133D01*
X128362693Y-110893133D02*
X128315074Y-110988371D01*
X128315074Y-110988371D02*
X128267455Y-111035990D01*
X128267455Y-111035990D02*
X128172217Y-111083609D01*
X128172217Y-111083609D02*
X127838884Y-111083609D01*
X129362693Y-111607419D02*
X128791265Y-111607419D01*
X129076979Y-111607419D02*
X129076979Y-110607419D01*
X129076979Y-110607419D02*
X128981741Y-110750276D01*
X128981741Y-110750276D02*
X128886503Y-110845514D01*
X128886503Y-110845514D02*
X128791265Y-110893133D01*
X129981741Y-110607419D02*
X130076979Y-110607419D01*
X130076979Y-110607419D02*
X130172217Y-110655038D01*
X130172217Y-110655038D02*
X130219836Y-110702657D01*
X130219836Y-110702657D02*
X130267455Y-110797895D01*
X130267455Y-110797895D02*
X130315074Y-110988371D01*
X130315074Y-110988371D02*
X130315074Y-111226466D01*
X130315074Y-111226466D02*
X130267455Y-111416942D01*
X130267455Y-111416942D02*
X130219836Y-111512180D01*
X130219836Y-111512180D02*
X130172217Y-111559800D01*
X130172217Y-111559800D02*
X130076979Y-111607419D01*
X130076979Y-111607419D02*
X129981741Y-111607419D01*
X129981741Y-111607419D02*
X129886503Y-111559800D01*
X129886503Y-111559800D02*
X129838884Y-111512180D01*
X129838884Y-111512180D02*
X129791265Y-111416942D01*
X129791265Y-111416942D02*
X129743646Y-111226466D01*
X129743646Y-111226466D02*
X129743646Y-110988371D01*
X129743646Y-110988371D02*
X129791265Y-110797895D01*
X129791265Y-110797895D02*
X129838884Y-110702657D01*
X129838884Y-110702657D02*
X129886503Y-110655038D01*
X129886503Y-110655038D02*
X129981741Y-110607419D01*
X128172217Y-106003609D02*
X128315074Y-106051228D01*
X128315074Y-106051228D02*
X128362693Y-106098847D01*
X128362693Y-106098847D02*
X128410312Y-106194085D01*
X128410312Y-106194085D02*
X128410312Y-106336942D01*
X128410312Y-106336942D02*
X128362693Y-106432180D01*
X128362693Y-106432180D02*
X128315074Y-106479800D01*
X128315074Y-106479800D02*
X128219836Y-106527419D01*
X128219836Y-106527419D02*
X127838884Y-106527419D01*
X127838884Y-106527419D02*
X127838884Y-105527419D01*
X127838884Y-105527419D02*
X128172217Y-105527419D01*
X128172217Y-105527419D02*
X128267455Y-105575038D01*
X128267455Y-105575038D02*
X128315074Y-105622657D01*
X128315074Y-105622657D02*
X128362693Y-105717895D01*
X128362693Y-105717895D02*
X128362693Y-105813133D01*
X128362693Y-105813133D02*
X128315074Y-105908371D01*
X128315074Y-105908371D02*
X128267455Y-105955990D01*
X128267455Y-105955990D02*
X128172217Y-106003609D01*
X128172217Y-106003609D02*
X127838884Y-106003609D01*
X129362693Y-106527419D02*
X128791265Y-106527419D01*
X129076979Y-106527419D02*
X129076979Y-105527419D01*
X129076979Y-105527419D02*
X128981741Y-105670276D01*
X128981741Y-105670276D02*
X128886503Y-105765514D01*
X128886503Y-105765514D02*
X128791265Y-105813133D01*
X129743646Y-105622657D02*
X129791265Y-105575038D01*
X129791265Y-105575038D02*
X129886503Y-105527419D01*
X129886503Y-105527419D02*
X130124598Y-105527419D01*
X130124598Y-105527419D02*
X130219836Y-105575038D01*
X130219836Y-105575038D02*
X130267455Y-105622657D01*
X130267455Y-105622657D02*
X130315074Y-105717895D01*
X130315074Y-105717895D02*
X130315074Y-105813133D01*
X130315074Y-105813133D02*
X130267455Y-105955990D01*
X130267455Y-105955990D02*
X129696027Y-106527419D01*
X129696027Y-106527419D02*
X130315074Y-106527419D01*
X128172217Y-131403609D02*
X128315074Y-131451228D01*
X128315074Y-131451228D02*
X128362693Y-131498847D01*
X128362693Y-131498847D02*
X128410312Y-131594085D01*
X128410312Y-131594085D02*
X128410312Y-131736942D01*
X128410312Y-131736942D02*
X128362693Y-131832180D01*
X128362693Y-131832180D02*
X128315074Y-131879800D01*
X128315074Y-131879800D02*
X128219836Y-131927419D01*
X128219836Y-131927419D02*
X127838884Y-131927419D01*
X127838884Y-131927419D02*
X127838884Y-130927419D01*
X127838884Y-130927419D02*
X128172217Y-130927419D01*
X128172217Y-130927419D02*
X128267455Y-130975038D01*
X128267455Y-130975038D02*
X128315074Y-131022657D01*
X128315074Y-131022657D02*
X128362693Y-131117895D01*
X128362693Y-131117895D02*
X128362693Y-131213133D01*
X128362693Y-131213133D02*
X128315074Y-131308371D01*
X128315074Y-131308371D02*
X128267455Y-131355990D01*
X128267455Y-131355990D02*
X128172217Y-131403609D01*
X128172217Y-131403609D02*
X127838884Y-131403609D01*
X128791265Y-131022657D02*
X128838884Y-130975038D01*
X128838884Y-130975038D02*
X128934122Y-130927419D01*
X128934122Y-130927419D02*
X129172217Y-130927419D01*
X129172217Y-130927419D02*
X129267455Y-130975038D01*
X129267455Y-130975038D02*
X129315074Y-131022657D01*
X129315074Y-131022657D02*
X129362693Y-131117895D01*
X129362693Y-131117895D02*
X129362693Y-131213133D01*
X129362693Y-131213133D02*
X129315074Y-131355990D01*
X129315074Y-131355990D02*
X128743646Y-131927419D01*
X128743646Y-131927419D02*
X129362693Y-131927419D01*
X128172217Y-103615609D02*
X128315074Y-103663228D01*
X128315074Y-103663228D02*
X128362693Y-103710847D01*
X128362693Y-103710847D02*
X128410312Y-103806085D01*
X128410312Y-103806085D02*
X128410312Y-103948942D01*
X128410312Y-103948942D02*
X128362693Y-104044180D01*
X128362693Y-104044180D02*
X128315074Y-104091800D01*
X128315074Y-104091800D02*
X128219836Y-104139419D01*
X128219836Y-104139419D02*
X127838884Y-104139419D01*
X127838884Y-104139419D02*
X127838884Y-103139419D01*
X127838884Y-103139419D02*
X128172217Y-103139419D01*
X128172217Y-103139419D02*
X128267455Y-103187038D01*
X128267455Y-103187038D02*
X128315074Y-103234657D01*
X128315074Y-103234657D02*
X128362693Y-103329895D01*
X128362693Y-103329895D02*
X128362693Y-103425133D01*
X128362693Y-103425133D02*
X128315074Y-103520371D01*
X128315074Y-103520371D02*
X128267455Y-103567990D01*
X128267455Y-103567990D02*
X128172217Y-103615609D01*
X128172217Y-103615609D02*
X127838884Y-103615609D01*
X129362693Y-104139419D02*
X128791265Y-104139419D01*
X129076979Y-104139419D02*
X129076979Y-103139419D01*
X129076979Y-103139419D02*
X128981741Y-103282276D01*
X128981741Y-103282276D02*
X128886503Y-103377514D01*
X128886503Y-103377514D02*
X128791265Y-103425133D01*
X129696027Y-103139419D02*
X130315074Y-103139419D01*
X130315074Y-103139419D02*
X129981741Y-103520371D01*
X129981741Y-103520371D02*
X130124598Y-103520371D01*
X130124598Y-103520371D02*
X130219836Y-103567990D01*
X130219836Y-103567990D02*
X130267455Y-103615609D01*
X130267455Y-103615609D02*
X130315074Y-103710847D01*
X130315074Y-103710847D02*
X130315074Y-103948942D01*
X130315074Y-103948942D02*
X130267455Y-104044180D01*
X130267455Y-104044180D02*
X130219836Y-104091800D01*
X130219836Y-104091800D02*
X130124598Y-104139419D01*
X130124598Y-104139419D02*
X129838884Y-104139419D01*
X129838884Y-104139419D02*
X129743646Y-104091800D01*
X129743646Y-104091800D02*
X129696027Y-104044180D01*
X128172217Y-126323609D02*
X128315074Y-126371228D01*
X128315074Y-126371228D02*
X128362693Y-126418847D01*
X128362693Y-126418847D02*
X128410312Y-126514085D01*
X128410312Y-126514085D02*
X128410312Y-126656942D01*
X128410312Y-126656942D02*
X128362693Y-126752180D01*
X128362693Y-126752180D02*
X128315074Y-126799800D01*
X128315074Y-126799800D02*
X128219836Y-126847419D01*
X128219836Y-126847419D02*
X127838884Y-126847419D01*
X127838884Y-126847419D02*
X127838884Y-125847419D01*
X127838884Y-125847419D02*
X128172217Y-125847419D01*
X128172217Y-125847419D02*
X128267455Y-125895038D01*
X128267455Y-125895038D02*
X128315074Y-125942657D01*
X128315074Y-125942657D02*
X128362693Y-126037895D01*
X128362693Y-126037895D02*
X128362693Y-126133133D01*
X128362693Y-126133133D02*
X128315074Y-126228371D01*
X128315074Y-126228371D02*
X128267455Y-126275990D01*
X128267455Y-126275990D02*
X128172217Y-126323609D01*
X128172217Y-126323609D02*
X127838884Y-126323609D01*
X129267455Y-126180752D02*
X129267455Y-126847419D01*
X129029360Y-125799800D02*
X128791265Y-126514085D01*
X128791265Y-126514085D02*
X129410312Y-126514085D01*
X128172217Y-101583609D02*
X128315074Y-101631228D01*
X128315074Y-101631228D02*
X128362693Y-101678847D01*
X128362693Y-101678847D02*
X128410312Y-101774085D01*
X128410312Y-101774085D02*
X128410312Y-101916942D01*
X128410312Y-101916942D02*
X128362693Y-102012180D01*
X128362693Y-102012180D02*
X128315074Y-102059800D01*
X128315074Y-102059800D02*
X128219836Y-102107419D01*
X128219836Y-102107419D02*
X127838884Y-102107419D01*
X127838884Y-102107419D02*
X127838884Y-101107419D01*
X127838884Y-101107419D02*
X128172217Y-101107419D01*
X128172217Y-101107419D02*
X128267455Y-101155038D01*
X128267455Y-101155038D02*
X128315074Y-101202657D01*
X128315074Y-101202657D02*
X128362693Y-101297895D01*
X128362693Y-101297895D02*
X128362693Y-101393133D01*
X128362693Y-101393133D02*
X128315074Y-101488371D01*
X128315074Y-101488371D02*
X128267455Y-101535990D01*
X128267455Y-101535990D02*
X128172217Y-101583609D01*
X128172217Y-101583609D02*
X127838884Y-101583609D01*
X129362693Y-102107419D02*
X128791265Y-102107419D01*
X129076979Y-102107419D02*
X129076979Y-101107419D01*
X129076979Y-101107419D02*
X128981741Y-101250276D01*
X128981741Y-101250276D02*
X128886503Y-101345514D01*
X128886503Y-101345514D02*
X128791265Y-101393133D01*
X130219836Y-101440752D02*
X130219836Y-102107419D01*
X129981741Y-101059800D02*
X129743646Y-101774085D01*
X129743646Y-101774085D02*
X130362693Y-101774085D01*
D13*
X157478000Y-101105580D02*
X157478000Y-100824420D01*
X158498000Y-101105580D02*
X158498000Y-100824420D01*
X156843000Y-91172420D02*
X156843000Y-91453580D01*
X157863000Y-91172420D02*
X157863000Y-91453580D01*
X154446513Y-96251487D02*
X153986894Y-95791867D01*
X156652687Y-94045313D02*
X156193067Y-93585694D01*
X154446513Y-96251487D02*
X155630917Y-97435890D01*
X156652687Y-94045313D02*
X157112306Y-94504933D01*
X153325000Y-91186000D02*
X153325000Y-91836000D01*
X150205000Y-91186000D02*
X150205000Y-91836000D01*
X153325000Y-91186000D02*
X153325000Y-89511000D01*
X150205000Y-91186000D02*
X150205000Y-90536000D01*
X157557200Y-97588041D02*
X157557200Y-97280759D01*
X158317200Y-97588041D02*
X158317200Y-97280759D01*
X156135165Y-99367436D02*
X155917884Y-99584717D01*
X155597764Y-98830035D02*
X155380483Y-99047316D01*
X154354800Y-91720641D02*
X154354800Y-91413359D01*
X153594800Y-91720641D02*
X153594800Y-91413359D01*
X153071359Y-88393000D02*
X153378641Y-88393000D01*
X153071359Y-89153000D02*
X153378641Y-89153000D01*
X155368141Y-98610460D02*
X155150860Y-98827741D01*
X154830740Y-98073059D02*
X154613459Y-98290340D01*
X150458641Y-89153000D02*
X150151359Y-89153000D01*
X150458641Y-88393000D02*
X150151359Y-88393000D01*
X155180000Y-79956359D02*
X155180000Y-80263641D01*
X154420000Y-79956359D02*
X154420000Y-80263641D01*
D11*
X152323000Y-83090000D02*
G75*
G03*
X152323000Y-83090000I-50000J0D01*
G01*
D14*
X140309500Y-133908000D02*
G75*
G03*
X140309500Y-133908000I-100000J0D01*
G01*
D15*
X130059500Y-131708000D02*
X130059500Y-132458000D01*
X130059500Y-135258000D02*
X130059500Y-136008000D01*
X130059500Y-136008000D02*
X138659500Y-136008000D01*
X138659500Y-131708000D02*
X130059500Y-131708000D01*
X138659500Y-132558000D02*
X138659500Y-131708000D01*
X138659500Y-136008000D02*
X138659500Y-135258000D01*
D13*
X125500000Y-78870000D02*
X128170000Y-78870000D01*
X130710000Y-78870000D02*
X168940000Y-78870000D01*
X168940000Y-78870000D02*
X168940000Y-73790000D01*
X128170000Y-76200000D02*
X128170000Y-78870000D01*
X130710000Y-76200000D02*
X130710000Y-78870000D01*
X130710000Y-76200000D02*
X128170000Y-76200000D01*
X130710000Y-76200000D02*
X166270000Y-76200000D01*
X166270000Y-76200000D02*
X166270000Y-78870000D01*
X161060000Y-73790000D02*
X161060000Y-65910000D01*
X171480000Y-73790000D02*
X161060000Y-73790000D01*
X161060000Y-65910000D02*
X171480000Y-65910000D01*
X171480000Y-65910000D02*
X171480000Y-73790000D01*
X128170000Y-63500000D02*
X166270000Y-63500000D01*
X128170000Y-63500000D02*
X128170000Y-60830000D01*
X166270000Y-63500000D02*
X166270000Y-60830000D01*
X125500000Y-60830000D02*
X125500000Y-78870000D01*
X168940000Y-60830000D02*
X168940000Y-65910000D01*
X168940000Y-60830000D02*
X125500000Y-60830000D01*
X146036000Y-99542000D02*
X146036000Y-96242000D01*
X146036000Y-99542000D02*
X140526000Y-99542000D01*
X146036000Y-96242000D02*
X140526000Y-96242000D01*
X136505836Y-64622000D02*
X136290164Y-64622000D01*
X136505836Y-63902000D02*
X136290164Y-63902000D01*
X157733000Y-79956359D02*
X157733000Y-80263641D01*
X156973000Y-79956359D02*
X156973000Y-80263641D01*
X126900000Y-93320000D02*
X125630000Y-93320000D01*
X126900000Y-92050000D02*
X126900000Y-93320000D01*
D14*
X126548000Y-96978000D02*
G75*
G03*
X126548000Y-96978000I-100000J0D01*
G01*
D15*
X136598000Y-99178000D02*
X136598000Y-98428000D01*
X136598000Y-95628000D02*
X136598000Y-94878000D01*
X136598000Y-94878000D02*
X127998000Y-94878000D01*
X127998000Y-99178000D02*
X136598000Y-99178000D01*
X127998000Y-98328000D02*
X127998000Y-99178000D01*
X127998000Y-94878000D02*
X127998000Y-95628000D01*
D11*
X157403000Y-83090000D02*
G75*
G03*
X157403000Y-83090000I-50000J0D01*
G01*
X154850000Y-83090000D02*
G75*
G03*
X154850000Y-83090000I-50000J0D01*
G01*
D13*
X168721000Y-80585000D02*
X168721000Y-81915000D01*
X167391000Y-80585000D02*
X168721000Y-80585000D01*
X166121000Y-80585000D02*
X163521000Y-80585000D01*
X166121000Y-80585000D02*
X166121000Y-83245000D01*
X163521000Y-80585000D02*
X163521000Y-83245000D01*
X166121000Y-83245000D02*
X163521000Y-83245000D01*
X171196000Y-93380000D02*
X170086000Y-93380000D01*
X170086000Y-93380000D02*
X170086000Y-92050000D01*
X152653000Y-79956359D02*
X152653000Y-80263641D01*
X151893000Y-79956359D02*
X151893000Y-80263641D01*
X135006900Y-102602118D02*
X135006900Y-102920000D01*
X135006900Y-118233100D02*
X135006900Y-116740000D01*
X136182118Y-101426900D02*
X135006900Y-102602118D01*
X136500000Y-101426900D02*
X136182118Y-101426900D01*
X136500000Y-118233100D02*
X135006900Y-118233100D01*
X150320000Y-101426900D02*
X151813100Y-101426900D01*
X150320000Y-118233100D02*
X151813100Y-118233100D01*
X151813100Y-101426900D02*
X151813100Y-102920000D01*
X151813100Y-118233100D02*
X151813100Y-116740000D01*
X143318000Y-84388000D02*
X143318000Y-83058000D01*
X144648000Y-84388000D02*
X143318000Y-84388000D01*
X145918000Y-84388000D02*
X148518000Y-84388000D01*
X145918000Y-84388000D02*
X145918000Y-81728000D01*
X148518000Y-84388000D02*
X148518000Y-81728000D01*
X145918000Y-81728000D02*
X148518000Y-81728000D01*
X162813000Y-79956359D02*
X162813000Y-80263641D01*
X162053000Y-79956359D02*
X162053000Y-80263641D01*
X160273000Y-79956359D02*
X160273000Y-80263641D01*
X159513000Y-79956359D02*
X159513000Y-80263641D01*
D11*
X162483000Y-83090000D02*
G75*
G03*
X162483000Y-83090000I-50000J0D01*
G01*
D13*
X146847836Y-100538000D02*
X146632164Y-100538000D01*
X146847836Y-99818000D02*
X146632164Y-99818000D01*
X157939200Y-87604020D02*
X157939200Y-87885180D01*
X156919200Y-87604020D02*
X156919200Y-87885180D01*
X150034164Y-99818000D02*
X150249836Y-99818000D01*
X150034164Y-100538000D02*
X150249836Y-100538000D01*
X145140000Y-66084164D02*
X145140000Y-66299836D01*
X144420000Y-66084164D02*
X144420000Y-66299836D01*
X153211000Y-99542000D02*
X153211000Y-96242000D01*
X153211000Y-99542000D02*
X147701000Y-99542000D01*
X153211000Y-96242000D02*
X147701000Y-96242000D01*
X171196000Y-137855000D02*
X170086000Y-137855000D01*
X170086000Y-137855000D02*
X170086000Y-136525000D01*
X142750000Y-66280420D02*
X142750000Y-66561580D01*
X141730000Y-66280420D02*
X141730000Y-66561580D01*
X139227836Y-100538000D02*
X139012164Y-100538000D01*
X139227836Y-99818000D02*
X139012164Y-99818000D01*
D11*
X159943000Y-83090000D02*
G75*
G03*
X159943000Y-83090000I-50000J0D01*
G01*
D13*
X131886000Y-93283000D02*
X130556000Y-93283000D01*
X131886000Y-91953000D02*
X131886000Y-93283000D01*
X131886000Y-90683000D02*
X131886000Y-88083000D01*
X131886000Y-90683000D02*
X129226000Y-90683000D01*
X131886000Y-88083000D02*
X129226000Y-88083000D01*
X129226000Y-90683000D02*
X129226000Y-88083000D01*
X153610000Y-102932000D02*
X154940000Y-102932000D01*
X153610000Y-104262000D02*
X153610000Y-102932000D01*
X153610000Y-105532000D02*
X153610000Y-108132000D01*
X153610000Y-105532000D02*
X156270000Y-105532000D01*
X153610000Y-108132000D02*
X156270000Y-108132000D01*
X156270000Y-105532000D02*
X156270000Y-108132000D01*
X126900000Y-137770000D02*
X125630000Y-137770000D01*
X126900000Y-136500000D02*
X126900000Y-137770000D01*
%LPC*%
D16*
X157988000Y-101740000D03*
X157988000Y-100190000D03*
D17*
X157353000Y-92088000D03*
X157353000Y-90538000D03*
D18*
X155540761Y-96483064D03*
X156884264Y-95139561D03*
X154886687Y-94485487D03*
D19*
X160020000Y-86995000D03*
D20*
X160020000Y-89535000D03*
X160020000Y-97155000D03*
X160020000Y-99695000D03*
X160020000Y-102235000D03*
D21*
X152715000Y-90248500D03*
X150815000Y-90248500D03*
X151765000Y-92123500D03*
D22*
X157937200Y-97944400D03*
X157937200Y-96924400D03*
D23*
X156118448Y-98846752D03*
X155397200Y-99568000D03*
D22*
X153974800Y-91057000D03*
X153974800Y-92077000D03*
D24*
X152715000Y-88773000D03*
X153735000Y-88773000D03*
D23*
X155351424Y-98089776D03*
X154630176Y-98811024D03*
D25*
X150815000Y-88773000D03*
X149795000Y-88773000D03*
D26*
X154800000Y-79600000D03*
X154800000Y-80620000D03*
D27*
X152273000Y-82485000D03*
X152273000Y-81515000D03*
D28*
X132359500Y-133858000D03*
X134359500Y-133858000D03*
D29*
X136359500Y-133858000D03*
D30*
X130259500Y-133858000D03*
X138459500Y-133858000D03*
D31*
X129440000Y-77470000D03*
D32*
X131980000Y-77470000D03*
X134520000Y-77470000D03*
X137060000Y-77470000D03*
X139600000Y-77470000D03*
X142140000Y-77470000D03*
X144680000Y-77470000D03*
X147220000Y-77470000D03*
X149760000Y-77470000D03*
X152300000Y-77470000D03*
X154840000Y-77470000D03*
X157380000Y-77470000D03*
X159920000Y-77470000D03*
X162460000Y-77470000D03*
X165000000Y-77470000D03*
X165000000Y-62230000D03*
X162460000Y-62230000D03*
X159920000Y-62230000D03*
X157380000Y-62230000D03*
X154840000Y-62230000D03*
X152300000Y-62230000D03*
X149760000Y-62230000D03*
X147220000Y-62230000D03*
X144680000Y-62230000D03*
X142140000Y-62230000D03*
X139600000Y-62230000D03*
X137060000Y-62230000D03*
X134520000Y-62230000D03*
X131980000Y-62230000D03*
X129440000Y-62230000D03*
D33*
X125000000Y-58530000D03*
D34*
X144526000Y-97892000D03*
X140526000Y-97892000D03*
D35*
X136878000Y-64262000D03*
X135918000Y-64262000D03*
D26*
X157353000Y-79600000D03*
X157353000Y-80620000D03*
D36*
X125630000Y-92050000D03*
D37*
X125630000Y-89510000D03*
X125630000Y-86970000D03*
X125630000Y-84430000D03*
X125630000Y-81890000D03*
D28*
X134298000Y-97028000D03*
X132298000Y-97028000D03*
D29*
X130298000Y-97028000D03*
D30*
X136398000Y-97028000D03*
X128198000Y-97028000D03*
D27*
X157353000Y-82485000D03*
X157353000Y-81515000D03*
X154800000Y-82485000D03*
X154800000Y-81515000D03*
D36*
X167391000Y-81915000D03*
D37*
X164851000Y-81915000D03*
D36*
X171196000Y-92050000D03*
D37*
X171196000Y-89510000D03*
X171196000Y-86970000D03*
X171196000Y-84430000D03*
X171196000Y-81890000D03*
D26*
X152273000Y-79600000D03*
X152273000Y-80620000D03*
D38*
X143410000Y-101830000D03*
X142140000Y-101830000D03*
X140870000Y-101830000D03*
X139600000Y-101830000D03*
X138330000Y-101830000D03*
X137060000Y-101830000D03*
D39*
X135410000Y-103480000D03*
X135410000Y-104750000D03*
X135410000Y-106020000D03*
X135410000Y-107290000D03*
X135410000Y-108560000D03*
X135410000Y-109830000D03*
X135410000Y-111100000D03*
X135410000Y-112370000D03*
X135410000Y-113640000D03*
X135410000Y-114910000D03*
X135410000Y-116180000D03*
D38*
X137060000Y-117830000D03*
X138330000Y-117830000D03*
X139600000Y-117830000D03*
X140870000Y-117830000D03*
X142140000Y-117830000D03*
X143410000Y-117830000D03*
X144680000Y-117830000D03*
X145950000Y-117830000D03*
X147220000Y-117830000D03*
X148490000Y-117830000D03*
X149760000Y-117830000D03*
D39*
X151410000Y-116180000D03*
X151410000Y-114910000D03*
X151410000Y-113640000D03*
X151410000Y-112370000D03*
X151410000Y-111100000D03*
X151410000Y-109830000D03*
X151410000Y-108560000D03*
X151410000Y-107290000D03*
X151410000Y-106020000D03*
X151410000Y-104750000D03*
X151410000Y-103480000D03*
D38*
X149760000Y-101830000D03*
X148490000Y-101830000D03*
X147220000Y-101830000D03*
X145950000Y-101830000D03*
X144680000Y-101830000D03*
D36*
X144648000Y-83058000D03*
D37*
X147188000Y-83058000D03*
D26*
X162433000Y-79600000D03*
X162433000Y-80620000D03*
D33*
X129810000Y-139700000D03*
D26*
X159893000Y-79600000D03*
X159893000Y-80620000D03*
D27*
X162433000Y-82485000D03*
X162433000Y-81515000D03*
D35*
X147220000Y-100178000D03*
X146260000Y-100178000D03*
D17*
X157429200Y-86969600D03*
X157429200Y-88519600D03*
D40*
X149662000Y-100178000D03*
X150622000Y-100178000D03*
D41*
X144780000Y-65712000D03*
X144780000Y-66672000D03*
D34*
X151701000Y-97892000D03*
X147701000Y-97892000D03*
D33*
X170561000Y-58547000D03*
D36*
X171196000Y-136525000D03*
D37*
X171196000Y-133985000D03*
X171196000Y-131445000D03*
X171196000Y-128905000D03*
X171196000Y-126365000D03*
X171196000Y-123825000D03*
X171196000Y-121285000D03*
X171196000Y-118745000D03*
X171196000Y-116205000D03*
X171196000Y-113665000D03*
X171196000Y-111125000D03*
X171196000Y-108585000D03*
X171196000Y-106045000D03*
X171196000Y-103505000D03*
X171196000Y-100965000D03*
X171196000Y-98425000D03*
D17*
X142240000Y-65646000D03*
X142240000Y-67196000D03*
D33*
X167386000Y-139700000D03*
D35*
X139600000Y-100178000D03*
X138640000Y-100178000D03*
D27*
X159893000Y-82485000D03*
X159893000Y-81515000D03*
D36*
X130556000Y-91953000D03*
D37*
X130556000Y-89413000D03*
D36*
X154940000Y-104262000D03*
D37*
X154940000Y-106802000D03*
D36*
X125630000Y-136500000D03*
D37*
X125630000Y-133960000D03*
X125630000Y-131420000D03*
X125630000Y-128880000D03*
X125630000Y-126340000D03*
X125630000Y-123800000D03*
X125630000Y-121260000D03*
X125630000Y-118720000D03*
X125630000Y-116180000D03*
X125630000Y-113640000D03*
X125630000Y-111100000D03*
X125630000Y-108560000D03*
X125630000Y-106020000D03*
X125630000Y-103480000D03*
X125630000Y-100940000D03*
X125630000Y-98400000D03*
%LPD*%
M02*
